<?xml version="1.0" encoding="utf-8"?>
<!-- Generator: Adobe Illustrator 19.0.0, SVG Export Plug-In . SVG Version: 6.00 Build 0)  -->
<svg version="1.1" id="Capa_1" xmlns="http://www.w3.org/2000/svg" xmlns:xlink="http://www.w3.org/1999/xlink" x="0px" y="0px"
	 viewBox="-19 21.2 459.8 459.8" style="enable-background:new -19 21.2 459.8 459.8;" xml:space="preserve">
<style type="text/css">
	.st0{fill:#424242;}
</style>
<g>
	<path class="st0" d="M251.8,91.1c10.1-0.8,25.5-9.7,25.5-25.9c0-7.7-4.3-14.7-8.8-16.5c-1.8-0.7-3.4-2.1-3.8-3.9
		c-0.7-3.1-3.3-5.4-6.2-6c-1.5-0.3-2.8-1.2-4.1-2.1c-2.2-1.6-4.2-2.8-7.1-2.8c-2.6,0-4.6,0.8-6.7,2.2c-1.8,1.1-3.6,2.2-5.7,2.6
		c-3.6,0.8-5.8,3.3-6.8,5.5c-0.4,0.8-1,1.4-1.8,1.7c-4,1.7-11.9,6.3-11.9,6.3c-3,2-4,3-4,4c0,2,3,4.1,3,5c0,1-4,0.7-4,2
		c2.2,1.9,3,3,2.7,5c-0.7,4.1-10.7,7.3-10.7,12c0,3,6,4,10,4s6,2,13,2l-4.9,13.6c-1.8,0.5-3.5,1.2-5,2.2l-0.1,0.1
		c-6,3.7-10.3,10.6-11.4,15.8c-1.8,4-14.8,15.5-23.7,21.9c-0.8-1-2-1.6-3.3-1.7c-0.3,0-0.7,0-1,0c-2.8,0-5.6,0.5-8.8,1.3
		c-0.3,0-0.6-0.1-1-0.1c-0.8,0-1.5,0.1-2.2,0.3c-1.4,0.4-2.4,1.1-3.2,1.7c-0.2,0.1-0.4,0.3-0.5,0.3c-0.1,0-0.4,0.1-0.6,0.2
		c-0.9,0.2-2.1,0.6-3.3,1.3c-1.2,0.7-1.9,1.7-2.5,2.5c-0.1,0.2-0.4,0.5-0.5,0.6c-0.1,0.1-0.3,0.2-0.5,0.3c-0.7,0.4-1.7,1-2.7,2
		c-0.7,0.8-1.2,1.6-1.5,2.2c-0.1,0.1-0.1,0.2-0.2,0.3c-1.7,1.5-3.1,3.2-3.1,6.1c0,2.3,0.6,5.1,1.4,6.6s3.8,6.5,7.8,6.5
		c0.5,0,1-0.1,1.5-0.2c1.7,1.8,4.1,3.8,6.6,3.8c0.1,0,0.3,0,0.4,0c0.5,0.9,1.1,1.8,1.6,2.5c2.3,3.3,4.4,4.9,6.5,4.9
		c0.1,0,0.2,0,0.3,0c0.3,0,0.6-0.1,0.8-0.2l8.1-3.4c-0.1,2.2-0.6,5.2-1.6,8.6c-3.2,11-7.9,13.1-10.8,20.5
		c-2.5,6.4-1.6,10.9,2.7,14.6l-0.2,0.2c0.2,0.2,0.5,0.3,0.7,0.5c-2.9,3.1-4.8,10.8-4.8,15.7c0,10.4,2.9,13.4,2.9,21.6
		c0,13-2.8,28.7-2.8,42.7c0,15,3.8,28,3.8,40c0,13.5,7.4,19.7,10,34c1.6,8.7,0.4,27.4-2.7,34c-1.3,2.7,5.7,3.3,8.7,3.3
		s3,12.1,3,24.1c0,16.2-9.8,24.1-23.2,25.6c-2.7,0.3-4.8,2.5-4.8,5.3h14.5c11.4,0,21.3-1.6,26.3-3.7c0.3-0.1,0.5-0.2,0.7-0.2
		c0.8,0,1.5,0.6,1.5,1.5v2.3h9c2.9-10.7,3.6-48.7-0.4-57.3c3-11,3.4-19.7,3.4-26.7c0-21-9-37.3-9-45.3c0-1.6,0.1-3.3,0.2-5.1
		c0.1-0.2,0.2-0.5,0.2-0.8c0-0.2,0-0.3-0.1-0.5c0.4-4.6,1.1-9.6,1.9-14.6c0.1-0.2,0.1-0.4,0.1-0.7v-0.1c1.3-8.4,2.7-16.8,2.7-23
		c0-12.1,8.6-28.4,8.6-42.7c0-8-1.7-14.8-4.7-19.3c3,0,11.7-2.3,11.7-8.3c0-7-3.1-11.3-2.4-21.7c2.4-33.3,30.1-36.6,33.3-73.5
		c0.8-9.5-2.6-22.4-7.6-27.4v-8.5C250.3,91.9,251,91.2,251.8,91.1z M156.6,164.9c-0.6-1-2.2-3.6-2.8-4.8c-0.2-0.6-1.2-2.9-1.8-2.9
		c0,0,0,0-0.1,0c-0.5,0.2-0.1,1.9,0.4,3.3c1.4,2.8,2.3,4.7,1.5,5.2c-0.1,0.1-0.2,0.1-0.3,0.1c-1.3,0-3.7-3.8-3.9-4.2
		c-0.5-0.8-0.9-2.8-0.9-4.5c0-1,0.2-1.5,1.9-3c0.7-0.7,1-1.9,1.7-2.6c0.8-0.9,1.9-1.2,2.7-1.8l0,0l0.1-0.1c0.1-0.1,0.3-0.2,0.4-0.4
		c0,0,0-0.1,0.1-0.1c0.7-0.8,1.3-1.8,2-2.2c1.2-0.7,2.6-0.8,3.5-1.3c0.9-0.5,1.8-1.4,2.9-1.7c0.4-0.1,0.8-0.1,1.1-0.1
		c0.5,0,0.8,0.1,1.2,0.1c0.1,0,0.3,0,0.4,0c0.4-0.1,0.7-0.2,1-0.2l0,0c0.2-0.1,0.5-0.1,0.7-0.2c0.1,0,0.2-0.1,0.4-0.1
		s0.4-0.1,0.6-0.1s0.3-0.1,0.5-0.1s0.3-0.1,0.5-0.1c0.3-0.1,0.6-0.1,0.9-0.2l0,0l0,0c1.3-0.2,2.5-0.3,3.7-0.3c0.1,0,0.2,0,0.3,0l0,0
		c0.2,0,0.3,0,0.5,0c-0.9,0.8-2,1.4-3.1,1.7l0,0c-1.1,0.4-2.1,0.6-2.8,0.9c-0.2,0.4-0.6,0.9-1.1,1.5c0.8,1.5,1.1,2.3,1.5,3.5
		c0.6,1.2,1.4,4.2,2,5.3c0.4,0.6,0.7,1.1,1,1.6c0,0,0,0,0,0.1c0.3,0.5,0.5,1,0.8,1.4l0,0c0.2,0.4,0.4,0.8,0.6,1.2l0,0
		c0.2,0.4,0.3,0.7,0.4,1c0.4,1.4,0.2,2.3-0.6,2.8c-0.1,0.1-0.2,0.1-0.4,0.1c-1.6,0-5.2-4.9-5.8-6.1c-0.8-1.5-1.4-2.4-2.4-4.1
		c-0.3-0.5-1.2-1.6-1.8-1.6c-0.1,0-0.1,0-0.2,0c-0.8,0.4-0.1,1.8,0.7,3.5c0.8,1.5,2,4.4,3,6.4c2.4,4.3,3.1,5.6,1.6,6.5
		c-0.2,0.1-0.3,0.1-0.5,0.1c-1.6,0-4.2-3.3-5.1-4.8c-0.4-0.6-1.1-1.8-1.8-2.9l0,0c-0.2-0.3-0.3-0.5-0.5-0.8c0-0.1-0.1-0.1-0.1-0.2
		c-0.2-0.3-0.3-0.5-0.5-0.8c-0.9-1.5-2.1-4.3-2.9-4.3h-0.1c-0.8,0.3-0.3,1.6,0.4,3.3c0.7,1.7,2,4.3,2.5,5.1c2.1,3.1,3.3,5.3,1.7,6.1
		c-0.1,0.1-0.2,0.1-0.3,0.1s-0.2,0-0.3,0h-0.1c-0.1,0-0.1,0-0.2-0.1c0,0-0.1,0-0.2-0.1c-0.1,0-0.1-0.1-0.2-0.1
		c-0.1,0-0.1-0.1-0.2-0.1c-0.1,0-0.1-0.1-0.2-0.1c-0.1,0-0.1-0.1-0.2-0.1c-0.1,0-0.1-0.1-0.2-0.1c-0.1-0.1-0.2-0.1-0.2-0.2l-0.1-0.1
		c-0.1-0.1-0.2-0.2-0.3-0.2c0,0-0.1,0-0.1-0.1c-0.1-0.1-0.2-0.2-0.3-0.3C157.9,166.5,156.8,165.2,156.6,164.9z M170.1,176
		c-0.6-0.4-1.6-1.5-2.7-3.3c0.4,0.1,0.8,0.2,1.2,0.2c1,0,1.9-0.3,2.8-0.8c1.6-1,2.6-2.4,2.9-4.1c0.9,0,1.7-0.3,2.5-0.8
		c0.6-0.4,1.1-0.8,1.5-1.3c0.6,0.9,1.1,1.8,1.7,2.8c0.6,0.9,1.1,1.7,1.5,2.5L170.1,176z M178.7,358.4c-2.4-5.4-4.4-10-4.4-16.5
		c0-6-0.9-12.1-1.8-18.5c-1-6.9-2-14-2-21.5c0-6.9,0.7-14.4,1.4-21.6c0.3-2.7,0.5-5.4,0.7-8.2l0,0l1.6-11.9V260l0,0l-1.3-6.2
		c-0.3-1.9-0.7-3.5-1.1-5.1c-0.7-3.1-1.5-6.1-1.5-11c0-4.7,1.9-10.8,3.4-12.3l0.7-0.7c7.3,4.2,15.8,7.2,30.6,7.2
		c1.2,0,2.5,0,3.8-0.1l2.1,3.2c0.3,0.5,0.6,1,0.9,1.6h-12.4c-1.1,0-2,0.9-2,2s0.9,2,2,2h13.9c0.3,1.2,0.6,2.5,0.9,3.9h-11.9
		c-1.1,0-2,0.9-2,2s0.9,2,2,2h12.3c0.1,1,0.1,2,0.1,3c0,0.3,0,0.6,0,0.8h-12c-1.1,0-2,0.9-2,2s0.9,2,2,2h11.7
		c-0.2,1.3-0.4,2.6-0.6,3.9H202c-1.1,0-2,0.9-2,2s0.9,2,2,2h11c-0.3,1.3-0.7,2.6-1,3.9h-11.8c-1.1,0-2,0.9-2,2s0.9,2,2,2h10.7
		c-0.1,0.4-0.2,0.8-0.3,1.1c-0.3,0.9-0.5,1.8-0.8,2.7h-14c-1.1,0-2,0.9-2,2s0.9,2,2,2h12.9c-0.3,1.3-0.7,2.6-1,3.9h-10.1
		c-1.1,0-2,0.9-2,2s0.9,2,2,2h9.3c-0.2,1.3-0.4,2.6-0.5,3.9h-8.6c-1.1,0-2,0.9-2,2s0.9,2,2,2h8.4c0,1.2-0.1,2.5-0.2,3.9h-8.4
		c-1.1,0-2,0.9-2,2s0.9,2,2,2h7.9c-0.2,1.3-0.3,2.6-0.5,3.9h-7.9c-1.1,0-2,0.9-2,2s0.9,2,2,2h7.3c-0.2,1.2-0.4,2.3-0.5,3.5
		c0,0.1,0,0.2-0.1,0.3h-7.4c-1.1,0-2,0.9-2,2s0.9,2,2,2h6.7c-0.2,1.3-0.4,2.6-0.6,3.9h-7c-1.1,0-2,0.9-2,2s0.9,2,2,2h6.5
		c-0.2,1.3-0.3,2.6-0.4,3.9h-7.1c-1.1,0-2,0.9-2,2s0.9,2,2,2h6.8c-0.1,1.3-0.1,2.6-0.1,3.9h-7.9c-1.1,0-2,0.9-2,2s0.9,2,2,2h8.3
		c0.2,1.2,0.5,2.5,0.9,3.9h-11.1c-1.1,0-2,0.9-2,2s0.9,2,2,2h12.2c0.2,0.7,0.4,1.5,0.7,2.2c0.2,0.5,0.3,1.1,0.5,1.6h-8.9
		c-1.1,0-2,0.9-2,2s0.9,2,2,2H206c0.4,1.3,0.7,2.5,1.1,3.9h-8.7c-1.1,0-2,0.9-2,2s0.9,2,2,2h9.7c0.3,1.3,0.5,2.5,0.8,3.9h-9
		c-1.1,0-2,0.9-2,2s0.9,2,2,2h9.6c0.2,1.3,0.3,2.6,0.4,3.9h-9.4c-1.1,0-2,0.9-2,2s0.9,2,2,2h9.6c0,0.7,0,1.4,0,2.1
		c0,0.6,0,1.2,0,1.8h-9.7c-1.1,0-2,0.9-2,2s0.9,2,2,2h9.6c-0.1,1.2-0.1,2.5-0.3,3.9h-10.2c-1.1,0-2,0.9-2,2s0.9,2,2,2h9.7
		c-0.2,1.3-0.4,2.5-0.6,3.9h-11.1c-1.1,0-2,0.9-2,2s0.9,2,2,2h10.3c-0.2,0.9-0.4,1.7-0.6,2.6c-5.6,1.1-16.9,1.1-24.7-1.1
		c2.3-9.3,2.9-24.5,1.5-32.3C183,368.1,180.7,362.9,178.7,358.4z M207.8,463.2c-1-2.3-3.3-3.8-5.9-3.8c-0.9,0-1.8,0.2-2.7,0.6
		c-3.2,1.4-10,2.7-18.8,3.2c1.8-1.1,3.5-2.5,5-4c5.3-5.4,8-12.7,8-21.8c0-6,0-12.2-0.4-17c-0.1-1.6-0.4-4.2-1.1-6.5
		c2.2,0.2,4.4,0.3,6.5,0.3c3.4,0,6.7-0.2,9.2-0.6c0.3,0.9,0.6,2.1,0.9,3.6h-7.1c-1.1,0-2,0.9-2,2s0.9,2,2,2h7.4c0.1,0,0.2,0,0.2,0
		c0.1,1,0.2,2,0.3,3h-6.8c-1.1,0-2,0.9-2,2s0.9,2,2,2h7c0,1,0.1,2,0.1,3h-6.5c-1.1,0-2,0.9-2,2s0.9,2,2,2h6.6c0,1,0,2,0,3h-6.7
		c-1.1,0-2,0.9-2,2s0.9,2,2,2h6.7c0,1,0,2-0.1,3h-7.2c-1.1,0-2,0.9-2,2s0.9,2,2,2h7.1c0,1-0.1,2-0.1,3h-8.6c-1.1,0-2,0.9-2,2
		s0.9,2,2,2h8.3c-0.2,2.8-0.5,5.3-0.8,7.3h-0.5V463.2z M219.4,226c-25.1,2.5-35.1-1.2-44.6-7.1l-1.4-1.1c-2.7-2.1-3.7-4.2-1.7-9.4
		c1-2.5,2.3-4.4,3.8-6.5c2.4-3.4,5.1-7.2,7.2-14.4c1.4-5,2-9,1.7-12.1l1.8-0.8c0.6-0.3,1.1-0.8,1.4-1.4c0.2-0.6,0.2-1.4-0.1-2
		c-0.1-0.2-0.2-0.4-0.3-0.6c27.8-10.5,54.1-30.8,51.9-48.3c-0.2-1.4-1.4-2.3-2.8-2.2c-1.4,0.2-2.3,1.4-2.2,2.8
		c0.3,2.4-0.2,5-1.4,7.8l-2-3.2c-0.6-0.9-1.8-1.2-2.8-0.6c-0.9,0.6-1.2,1.8-0.6,2.8l3.2,5.1c-0.9,1.4-1.9,2.8-3.1,4.2l-3.5-5.6
		c-0.6-0.9-1.8-1.2-2.8-0.6c-0.9,0.6-1.2,1.8-0.6,2.8l4.1,6.5c-1.1,1.1-2.3,2.3-3.6,3.4l-6.5-10.5c-0.6-0.9-1.8-1.2-2.8-0.6
		c-0.9,0.6-1.2,1.8-0.6,2.8l6.8,11c-1.2,1-2.5,2-3.9,2.9l-5-8c-0.6-0.9-1.8-1.2-2.8-0.6c-0.9,0.6-1.2,1.8-0.6,2.8l4.9,7.9
		c-1.3,0.9-2.7,1.7-4.1,2.6l-4.4-7.1c-0.6-0.9-1.8-1.2-2.8-0.6c-0.9,0.6-1.2,1.8-0.6,2.8l4.4,7c-1.5,0.8-3,1.6-4.5,2.4
		c0-0.3-0.1-0.7-0.3-1l-3.8-6.2c-0.6-0.9-1.8-1.2-2.8-0.6c-0.9,0.6-1.2,1.8-0.6,2.8l3.8,6.2c0.1,0.2,0.3,0.3,0.4,0.5
		c-1.6,0.7-3.2,1.4-4.8,2.1c0-0.3-0.1-0.6-0.3-0.9l-4.4-7c-0.6-0.9-1.8-1.2-2.8-0.6c-0.9,0.6-1.2,1.8-0.6,2.8l4.4,7
		c0,0.1,0.1,0.1,0.2,0.2c-0.8,0.3-1.6,0.6-2.4,0.9c-0.1-0.1-0.1-0.2-0.2-0.3c-1.9-3.1-5.9-9.4-8.6-14.3c0-0.1-0.1-0.2-0.1-0.3
		c-0.4-1.1-0.7-2.1-1.1-2.9c2.7-1.1,7.5-4,16.6-11.5c4.2-3.5,14.3-12.2,16.5-17l0.2-0.5l0.1-0.6c0.8-3.8,4.3-9.6,9.2-12.7
		c2.8-1.4,6.1-1.5,9.1-0.3c1.3,0.5,2.7-0.1,3.2-1.4s-0.1-2.7-1.4-3.2c-1.1-0.4-2.2-0.7-3.3-0.9l3.9-10.8l3.8-10.1
		c0.2-0.6-0.4-1.2-1-0.9c0,0-4.8,2.7-6.6,2.8h-0.4c-3.3,0-5.1-0.5-7.1-1c-1.7-0.5-3.5-1-5.9-1c-1.2,0-2.3-0.1-3.2-0.3
		c0.6-0.5,1.3-1,1.8-1.4c3-2.2,6.4-4.7,7-8.6c0.3-1.5,0.1-2.9-0.2-4c1.2-1.2,1.6-2.6,1.6-3.8c0-1.9-1-3.3-1.9-4.4
		c0.2-0.1,0.3-0.2,0.5-0.4c2.2-1.3,8.2-4.7,11.3-6c1.9-0.8,3.5-2.3,4.3-4.2c0.4-0.8,1.4-2.3,3.3-2.7c2.9-0.6,5.2-2,7.3-3.3
		c1.6-1,2.6-1.4,4-1.4s2.3,0.4,4.2,1.8c1.7,1.3,3.6,2.5,6,3c1.2,0.3,2.2,1.2,2.5,2.3c0.8,3.2,3.3,6,6.9,7.4
		c2.3,0.9,5.6,5.8,5.6,11.7l-8.1-6.4c-0.9-0.7-2.1-0.5-2.8,0.3c-0.7,0.9-0.5,2.1,0.3,2.8l9.3,7.3c0.2,0.2,0.5,0.3,0.8,0.4
		c-0.3,1.4-0.8,2.8-1.4,4l-8.2-6.5c-0.9-0.7-2.1-0.5-2.8,0.3c-0.7,0.9-0.5,2.1,0.3,2.8l8.5,6.7c-0.8,1.1-1.7,2-2.6,2.8l-7.9-6.2
		c-0.9-0.7-2.1-0.5-2.8,0.3c-0.7,0.9-0.5,2.1,0.3,2.8l7.1,5.6c-1.2,0.8-2.4,1.4-3.6,2l-7.3-5.8c-0.9-0.7-2.1-0.5-2.8,0.3
		c-0.7,0.9-0.5,2.1,0.3,2.8l5.3,4.2c-1,0.2-2,0.4-2.8,0.5c-0.7,0.1-1.4,0.2-2.1,0.5l-2.3-1.8c-0.9-0.7-2.1-0.5-2.8,0.3
		c-0.7,0.9-0.5,2.1,0.3,2.8l1.8,1.4c-0.6,1-0.9,2.1-0.9,3.4v0.2h-4.1c-1.1,0-2,0.9-2,2s0.9,2,2,2h4.1v4.1v0.2h-5.4c-1.1,0-2,0.9-2,2
		s0.9,2,2,2h7.4c0.9,1.1,1.7,2.6,2.5,4.4h-3c-1.1,0-2,0.9-2,2s0.9,2,2,2h4.4l0,0c0.4,1.4,0.8,2.9,1.1,4.4h-3.7c-1.1,0-2,0.9-2,2
		s0.9,2,2,2h4.3c0.1,1.5,0.2,3,0.2,4.4h-5.6c-1.1,0-2,0.9-2,2c0,1.1,0.9,2,2,2h5.3c-0.2,1.5-0.4,3-0.7,4.4h-7.8c-1.1,0-2,0.9-2,2
		c0,1.1,0.9,2,2,2h6.8c-0.4,1.5-0.9,3-1.5,4.4h-10.3c-1.1,0-2,0.9-2,2c0,1.1,0.9,2,2,2h8.6c-0.7,1.5-1.5,3-2.4,4.4h-12.6
		c-1.1,0-2,0.9-2,2c0,1.1,0.9,2,2,2h10c-1,1.5-2.1,3-3.3,4.4h-15c-1.1,0-2,0.9-2,2c0,1.1,0.9,2,2,2h11.9c-1.2,1.5-2.3,2.9-3.5,4.4
		h-19.7c-1.1,0-2,0.9-2,2c0,1.1,0.9,2,2,2h16.8c-1,1.4-1.9,2.9-2.9,4.4h-18c-1.1,0-2,0.9-2,2c0,1.1,0.9,2,2,2h15.8
		c-0.7,1.4-1.3,2.9-1.9,4.4h-18c-1.1,0-2,0.9-2,2c0,1.1,0.9,2,2,2H222c-0.4,1.4-0.8,2.9-1.1,4.4h-19.7c-1.1,0-2,0.9-2,2
		c0,1.1,0.9,2,2,2h19c-0.2,1.2-0.3,2.4-0.4,3.7c0,0.2,0,0.5,0,0.7h-16.3c-1.1,0-2,0.9-2,2s0.9,2,2,2h16.1c0,1.6,0.2,3.1,0.4,4.4
		h-17.7c-1.1,0-2,0.9-2,2s0.9,2,2,2h18.3c0.1,0.7,0.3,1.4,0.4,2c0.2,0.8,0.3,1.6,0.5,2.4h-23c-1.1,0-2,0.9-2,2s0.9,2,2,2h23.5
		c0,0.2,0,0.3,0,0.5C222,224.6,220.8,225.4,219.4,226z"/>
	<path class="st0" d="M248.7,72.3c3.1-2.8,3.4-7.7,0.5-10.8l-3,2.7c1.4,1.5,1.2,3.8-0.3,5.2s-3.8,1.2-5.2-0.3l-3,2.7
		c1.5,1.7,3.6,2.5,5.7,2.5C245.4,74.3,247.3,73.6,248.7,72.3z"/>
</g>
</svg>
