<?xml version="1.0" encoding="utf-8"?>
<!-- Generator: Adobe Illustrator 19.0.0, SVG Export Plug-In . SVG Version: 6.00 Build 0)  -->
<svg version="1.1" id="Layer_1" xmlns="http://www.w3.org/2000/svg" xmlns:xlink="http://www.w3.org/1999/xlink" x="0px" y="0px"
	 viewBox="-144.8 68 22.8 15" style="enable-background:new -144.8 68 22.8 15;" xml:space="preserve">
<style type="text/css">
	.st0{fill:#424242;}
</style>
<path class="st0" d="M-122.8,70.1H-144c-0.5,0-0.8-0.4-0.8-0.8v-0.5c0-0.5,0.4-0.8,0.8-0.8h21.2c0.5,0,0.8,0.4,0.8,0.8v0.5
	C-122,69.8-122.4,70.1-122.8,70.1z"/>
<path class="st0" d="M-122.8,76.6H-144c-0.5,0-0.8-0.4-0.8-0.8v-0.5c0-0.5,0.4-0.8,0.8-0.8h21.2c0.5,0,0.8,0.4,0.8,0.8v0.5
	C-122,76.2-122.4,76.6-122.8,76.6z"/>
<path class="st0" d="M-134.2,83h-9.8c-0.5,0-0.8-0.4-0.8-0.8v-0.5c0-0.5,0.4-0.8,0.8-0.8h9.8c0.5,0,0.8,0.4,0.8,0.8v0.5
	C-133.4,82.6-133.8,83-134.2,83z"/>
</svg>
