<?xml version="1.0" encoding="utf-8"?>
<!-- Generator: Adobe Illustrator 19.0.0, SVG Export Plug-In . SVG Version: 6.00 Build 0)  -->
<svg version="1.1" id="Capa_1" xmlns="http://www.w3.org/2000/svg" xmlns:xlink="http://www.w3.org/1999/xlink" x="0px" y="0px"
	 viewBox="-172 273.4 445.8 66.6" style="enable-background:new -172 273.4 445.8 66.6;" xml:space="preserve">
<style type="text/css">
	.st0{fill:#424242;}
</style>
<g id="XMLID_157_">
	<g id="XMLID_518_">
		<path id="XMLID_519_" class="st0" d="M-149.3,275h2.8v10.9h-3c-0.5-4.3-2.8-7.9-7.5-7.9c-5.9,0-7.3,5.3-7.3,10.6
			c0,5.1,1.6,10.6,7.3,10.6c4.5,0,6.7-3.2,7.2-7.4h3.4c-0.5,6.9-4.5,10.8-11.4,10.8c-8.4,0-12.8-5.9-12.8-14.4
			c0-7.5,4.9-13.6,13.2-13.6c2.6,0,5.5,1.2,7.3,2.9L-149.3,275z"/>
		<path id="XMLID_521_" class="st0" d="M-122.8,294.9v1.2c0,4.5-1.8,6.3-5.1,6.3c-2,0-3.7-0.8-4-3c-1.5,2.2-4,3-6.5,3
			c-3.1,0-5.5-1.5-5.5-5.1c0-7.7,12-4,12-9.6c0-2.6-2.2-3-4.3-3c-1.1,0-3,0.4-3.7,1.3c1.5-0.2,2.6,0.4,2.6,2.1
			c0,1.8-1.2,2.4-2.8,2.4c-1.7,0-2.9-1.3-2.9-3c0-4.1,4.9-4.9,8-4.9c5.4,0,7.7,2.4,7.7,5.8v9.8c0,0.9,0.4,1.3,1,1.3s1.1-0.6,1.1-3
			V295h2.4L-122.8,294.9L-122.8,294.9z M-132.1,292l-4.2,1.9c-1.2,0.5-2.4,1.2-2.4,3c0,1.7,0.8,2.5,2.4,2.5c2.7,0,4.2-2.3,4.2-4.9
			V292z"/>
		<path id="XMLID_524_" class="st0" d="M-118.4,294.6c0.4,1.8,1.2,3.1,2.4,3.9c1.2,0.9,2.6,1.3,4.4,1.3c1.4,0,3.1-0.8,3.1-2.4
			c0-3.9-12.6-1.7-12.6-8.8c0-3.9,3.8-6,7.3-6c2.1,0,4.1,0.8,5.9,2l0.8-1.4h2.2v6.7h-2.6c-0.5-1.5-1.2-2.6-2.2-3.3
			c-1-0.8-2.2-1.1-3.7-1.1c-1.3,0-3,0.6-3,2.2c0,3.1,12.6,1.6,12.6,8.9c0,4.2-3.5,5.9-7.3,5.9c-2.4,0-4.8-0.4-6.7-2l-0.8,1.4h-2.6
			v-7.3L-118.4,294.6L-118.4,294.6z"/>
		<path id="XMLID_526_" class="st0" d="M-102,285.8v-2.5c4.1-0.3,5.1-3.9,5.5-7.5h2.5v7.4h5.3v2.6H-94v11.8c0,0.8,0.4,1.3,1.5,1.3
			c1.2,0,1.7-0.7,1.7-2.3v-3.5h2.6v3.3c0,4.2-2.3,6-5.5,6c-3,0-5.1-1.2-5.1-4.4v-12.2L-102,285.8L-102,285.8z"/>
		<path id="XMLID_528_" class="st0" d="M-81.1,293c-0.1,3.1,0.8,6.5,4.5,6.5c2.9,0,4.3-1.5,4.8-4.2h3.3c-0.5,4.5-3.3,7.2-8.6,7.2
			c-6.2,0-9.4-3.5-9.4-9.9c0-5.8,3.7-9.9,9.2-9.9c6.5,0,9.3,5.9,8.8,10.4L-81.1,293L-81.1,293z M-73.7,290.4c0-2.5-0.8-5-3.6-5
			c-2.7,0-3.7,2.5-3.8,5H-73.7z"/>
		<path id="XMLID_531_" class="st0" d="M-66.5,301.9v-2.6h2c1.1,0,1.6-0.4,1.6-1.6v-18c0-1.2-0.5-1.6-1.6-1.6h-2v-2.6h8.2v22.2
			c0,1.2,0.5,1.6,1.6,1.6h1.9v2.6H-66.5z"/>
		<path id="XMLID_533_" class="st0" d="M-53.2,301.9v-2.6h2c1.1,0,1.6-0.4,1.6-1.6v-18c0-1.2-0.5-1.6-1.6-1.6h-2v-2.6h8.2v22.2
			c0,1.2,0.5,1.6,1.6,1.6h1.9v2.6H-53.2z"/>
		<path id="XMLID_535_" class="st0" d="M-18.7,294.9v1.2c0,4.5-1.8,6.3-5.1,6.3c-2,0-3.7-0.8-4-3c-1.5,2.2-4,3-6.5,3
			c-3.1,0-5.5-1.5-5.5-5.1c0-7.7,12-4,12-9.6c0-2.6-2.2-3-4.3-3c-1.1,0-3,0.4-3.7,1.3c1.5-0.2,2.6,0.4,2.6,2.1
			c0,1.8-1.2,2.4-2.8,2.4c-1.7,0-2.9-1.3-2.9-3c0-4.1,4.9-4.9,8-4.9c5.4,0,7.7,2.4,7.7,5.8v9.8c0,0.9,0.4,1.3,1,1.3s1.1-0.6,1.1-3
			V295h2.4C-18.7,295-18.7,294.9-18.7,294.9z M-28,292l-4.2,1.9c-1.2,0.5-2.4,1.2-2.4,3c0,1.7,0.8,2.5,2.4,2.5
			c2.7,0,4.2-2.3,4.2-4.9V292z"/>
		<path id="XMLID_540_" class="st0" d="M-9.3,286.8L-9.3,286.8c1.7-2.5,3.9-4.1,7-4.1c3.5,0,5.7,2.1,5.7,6.4v8.6
			c0,1.2,0.5,1.6,2.4,1.6h1.4v2.6H-4.4v-2.6h1c1.7,0,2.2-0.4,2.2-1.6v-8.3c0-3-1.6-3.6-3.5-3.6s-4.5,2-4.5,4.6v7.3
			c0,1.2,0.5,1.6,1.6,1.6H-6v2.6h-11.7v-2.6h2.3c1.1,0,1.6-0.4,1.6-1.6V288c0-1.7-0.5-2.2-2.6-2.2h-1.3v-2.6h8.6v3.5h-0.2V286.8z"/>
		<path id="XMLID_542_" class="st0" d="M19,282.6c6,0,10.2,3.6,10.2,9.9s-4.3,9.9-10.2,9.9c-6,0-10.2-3.6-10.2-9.9
			S13,282.6,19,282.6z M19,299.8c3.2,0,4.9-2.5,4.9-7.3s-1.7-7.3-4.9-7.3s-4.9,2.5-4.9,7.3S15.8,299.8,19,299.8z"/>
		<path id="XMLID_547_" class="st0" d="M34.5,294.6c0.4,1.8,1.2,3.1,2.4,3.9c1.2,0.9,2.6,1.3,4.4,1.3c1.4,0,3.1-0.8,3.1-2.4
			c0-3.9-12.6-1.7-12.6-8.8c0-3.9,3.8-6,7.3-6c2.1,0,4.1,0.8,5.9,2l0.8-1.4H48v6.7h-2.6c-0.5-1.5-1.2-2.6-2.2-3.3
			c-1-0.8-2.2-1.1-3.7-1.1c-1.3,0-3,0.6-3,2.2c0,3.1,12.6,1.6,12.6,8.9c0,4.2-3.5,5.9-7.3,5.9c-2.4,0-4.8-0.4-6.7-2l-0.8,1.4h-2.6
			v-7.3L34.5,294.6L34.5,294.6z"/>
		<path id="XMLID_549_" class="st0" d="M79.1,301.9v-3c2.1,0,3.5-0.3,4.2-2.2l7.6-21.3h5.6l8,21.3c0.7,1.9,2.1,2.2,4.2,2.2v3H94.8
			v-3h3.1c0.9,0,1.2-0.2,1.2-0.6s-0.1-0.7-0.2-1l-1.3-4h-9l-1.3,4c-0.1,0.2-0.2,0.5-0.2,0.8c0,0.6,0.5,0.7,1.3,0.7h3.1v3L79.1,301.9
			L79.1,301.9z M96.5,290.4l-3.5-9.6l0,0l-3.2,9.6H96.5z"/>
		<path id="XMLID_552_" class="st0" d="M113.8,294.6c0.4,1.8,1.2,3.1,2.4,3.9c1.2,0.9,2.6,1.3,4.4,1.3c1.4,0,3.1-0.8,3.1-2.4
			c0-3.9-12.6-1.7-12.6-8.8c0-3.9,3.8-6,7.3-6c2.1,0,4.1,0.8,5.9,2l0.8-1.4h2.2v6.7h-2.6c-0.5-1.5-1.2-2.6-2.2-3.3
			c-1-0.8-2.2-1.1-3.7-1.1c-1.3,0-3,0.6-3,2.2c0,3.1,12.6,1.6,12.6,8.9c0,4.2-3.5,5.9-7.3,5.9c-2.4,0-4.8-0.4-6.7-2l-0.8,1.4H111
			v-7.3L113.8,294.6L113.8,294.6z"/>
		<path id="XMLID_554_" class="st0" d="M140.4,282.6c6,0,10.2,3.6,10.2,9.9s-4.3,9.9-10.2,9.9c-6,0-10.2-3.6-10.2-9.9
			S134.4,282.6,140.4,282.6z M140.4,299.8c3.2,0,4.9-2.5,4.9-7.3s-1.7-7.3-4.9-7.3s-4.9,2.5-4.9,7.3S137.2,299.8,140.4,299.8z"/>
		<path id="XMLID_559_" class="st0" d="M170.3,294.2c-0.4,5.3-3.1,8.3-8.6,8.3c-6.1,0-9.4-3.6-9.4-10c0-5.9,4.7-9.9,9.8-9.9
			c4.6,0,8.2,2.5,8.2,5.9c0,1.8-1.2,3.3-2.9,3.3c-1.4,0-3.1-0.7-3.1-2.4c0-1.6,0.8-2.5,2.4-2.6c-0.9-1.2-2.2-1.6-3.8-1.6
			c-4.1,0-5.3,3.9-5.3,6.9s1,6.9,5.1,6.9c2.4,0,4.1-2,4.3-4.9h3.3V294.2z"/>
		<path id="XMLID_563_" class="st0" d="M172.5,301.9v-2.6h1.8c1.1,0,1.6-0.4,1.6-1.6v-10.3c0-1.2-0.5-1.6-1.6-1.6h-1.8v-2.6h8.1
			v14.4c0,1.2,0.5,1.6,1.6,1.6h2v2.6L172.5,301.9L172.5,301.9z M177.8,275c1.6,0,2.9,1.3,2.9,2.9s-1.3,2.9-2.9,2.9s-2.9-1.3-2.9-2.9
			C174.9,276.2,176.2,275,177.8,275z"/>
		<path id="XMLID_566_" class="st0" d="M206.9,294.9v1.2c0,4.5-1.8,6.3-5.1,6.3c-2,0-3.7-0.8-4-3c-1.5,2.2-4,3-6.5,3
			c-3.1,0-5.5-1.5-5.5-5.1c0-7.7,12-4,12-9.6c0-2.6-2.2-3-4.3-3c-1.1,0-3,0.4-3.7,1.3c1.5-0.2,2.6,0.4,2.6,2.1
			c0,1.8-1.2,2.4-2.8,2.4c-1.7,0-2.9-1.3-2.9-3c0-4.1,4.9-4.9,8-4.9c5.4,0,7.7,2.4,7.7,5.8v9.8c0,0.9,0.4,1.3,1,1.3s1.1-0.6,1.1-3
			V295h2.4V294.9L206.9,294.9z M197.6,292l-4.2,1.9c-1.2,0.5-2.4,1.2-2.4,3c0,1.7,0.8,2.5,2.4,2.5c2.7,0,4.2-2.3,4.2-4.9V292z"/>
		<path id="XMLID_571_" class="st0" d="M222.3,298.6L222.3,298.6c-1.7,2.7-3.7,3.9-6.3,3.9c-5.5,0-7.9-5-7.9-9.9s2.9-9.9,7.9-9.9
			c3.2,0,5.3,2,6.3,3.4h0.1v-6.2c0-1.2-0.4-1.8-1.6-1.8h-2.5v-2.6h8.8v22c0,1.2,0.4,1.8,1.6,1.8h2.1v2.6h-8.4L222.3,298.6
			L222.3,298.6z M217.6,299.3c2.7,0,4.8-2.2,4.8-7.1c0-4.3-2.1-6.6-4.8-6.6s-4.1,2.2-4.1,6.8C213.5,297,214.9,299.3,217.6,299.3z"/>
		<path id="XMLID_575_" class="st0" d="M242.4,282.6c6,0,10.2,3.6,10.2,9.9s-4.3,9.9-10.2,9.9c-6,0-10.2-3.6-10.2-9.9
			C232.1,286.2,236.4,282.6,242.4,282.6z M242.4,299.8c3.2,0,4.9-2.5,4.9-7.3s-1.7-7.3-4.9-7.3s-4.9,2.5-4.9,7.3
			S239.1,299.8,242.4,299.8z"/>
		<path id="XMLID_579_" class="st0" d="M257.8,294.6c0.4,1.8,1.2,3.1,2.4,3.9c1.2,0.9,2.6,1.3,4.4,1.3c1.4,0,3.1-0.8,3.1-2.4
			c0-3.9-12.6-1.7-12.6-8.8c0-3.9,3.8-6,7.3-6c2.1,0,4.1,0.8,5.9,2l0.8-1.4h2.2v6.7h-2.6c-0.5-1.5-1.2-2.6-2.2-3.3
			c-1-0.8-2.2-1.1-3.7-1.1c-1.3,0-3,0.6-3,2.2c0,3.1,12.6,1.6,12.6,8.9c0,4.2-3.5,5.9-7.3,5.9c-2.4,0-4.8-0.4-6.7-2l-0.8,1.4H255
			v-7.3L257.8,294.6L257.8,294.6z"/>
	</g>
	<g id="XMLID_588_">
		<g>
			<path id="XMLID_30_" class="st0" d="M67,286.3h8.1v1.9h-0.6c-1.5,0-2.1,0.3-2.5,0.9l-3.3,4.6c0.5,0.6,1,1,1.9,1
				c2.1,0,2.5-2,2.5-3.7H75c0,3.5-0.8,6.2-4.9,6.2c-1.4,0-2.8-0.4-4-1.3c-1.6,0.9-3.1,1.3-4.7,1.3c-4.1,0-5.8-2.4-5.8-5
				c0-2.7,0.8-3.7,4.3-5.5c-0.5-0.6-0.7-1.9-0.7-2.9c0-2.7,1.8-4.4,4.5-4.4c2,0,3.6,1.4,3.6,3.4c0,2.1-1.6,3.5-3.3,4.5
				c0.5,1.2,2.4,3.9,3.3,4.8c0.6-0.6,1.9-2.3,1.9-3c0-0.6-0.3-0.9-1.3-0.9h-1v-1.9C66.9,286.3,67,286.3,67,286.3z M62.1,294.9
				c0.9,0,1.7-0.1,2.5-0.6c-1.4-1.7-2.6-3.6-3.7-5.5c-1,0.6-1.7,1.4-1.7,2.8C59.2,293.4,60.4,294.9,62.1,294.9z M65.1,282.9
				c0-1-0.6-1.5-1.5-1.5c-1,0-1.6,0.7-1.6,1.7c0,0.8,0.5,1.7,0.9,2.4C63.9,285,65.1,284.1,65.1,282.9z"/>
		</g>
	</g>
	<g id="XMLID_595_">
		<path id="XMLID_597_" class="st0" d="M71.9,302.3H57.4c-0.6,0-1-0.5-1-1s0.5-1,1-1h14.5c0.6,0,1,0.5,1,1S72.4,302.3,71.9,302.3z"
			/>
	</g>
	<g id="XMLID_852_">
		<g>
			<path id="XMLID_333_" class="st0" d="M-74.7,331.5h1.6c0.6,0,1.1-0.2,1.1-0.9v-11.3c0-0.7-0.5-0.9-1.1-0.9h-1.6v-1.9h10.1
				c5.1,0,8.5,2.8,8.5,8.4s-3.4,8.4-8.5,8.4h-10.1V331.5z M-68.4,331.5h3.1c2.9,0,5.2-1.5,5.2-6.6s-2.3-6.5-5-6.5h-3.4L-68.4,331.5
				L-68.4,331.5z"/>
			<path id="XMLID_330_" class="st0" d="M-49.4,327.8c-0.1,2,0.5,4.1,2.9,4.1c1.8,0,2.7-0.9,3.1-2.7h2.1c-0.3,2.9-2.1,4.6-5.5,4.6
				c-3.9,0-6-2.2-6-6.3c0-3.7,2.4-6.3,5.9-6.3c4.2,0,5.9,3.7,5.6,6.6L-49.4,327.8L-49.4,327.8z M-44.7,326.1c0-1.6-0.5-3.2-2.3-3.2
				c-1.7,0-2.4,1.6-2.4,3.2H-44.7z"/>
			<path id="XMLID_328_" class="st0" d="M-35.9,328.8c0.3,1.1,0.8,2,1.5,2.5c0.7,0.6,1.7,0.8,2.8,0.8c0.9,0,2-0.5,2-1.5
				c0-2.5-8-1.1-8-5.6c0-2.5,2.4-3.8,4.6-3.8c1.3,0,2.6,0.5,3.7,1.2l0.5-0.9h1.4v4.2H-29c-0.3-0.9-0.8-1.6-1.4-2.1s-1.4-0.7-2.4-0.7
				c-0.8,0-1.9,0.4-1.9,1.4c0,2,8,1,8,5.7c0,2.7-2.3,3.8-4.6,3.8c-1.5,0-3-0.3-4.2-1.3l-0.5,0.9h-1.7v-4.6
				C-37.7,328.9-35.9,328.9-35.9,328.8z"/>
			<path id="XMLID_325_" class="st0" d="M-18.9,323.6L-18.9,323.6c1.1-1.7,2.4-2.5,4-2.5c3.5,0,5,3.2,5,6.3c0,3.1-1.5,6.3-5,6.3
				c-2,0-3.4-1.2-3.9-2.2h-0.1v4.4c0,0.8,0.2,1.1,1,1.1h1.6v1.7h-8V337h1.4c0.8,0,1-0.4,1-1.1v-11.6c0-0.8-0.2-1.1-1-1.1h-1.3v-1.7
				h5.3C-18.9,321.5-18.9,323.6-18.9,323.6z M-18.8,327.5c0,2.9,1.3,4.3,3,4.3c1.4,0,2.6-1.5,2.6-4.3c0-3.3-1.2-4.3-2.6-4.3
				C-17.6,323.1-18.8,324.6-18.8,327.5z"/>
			<path id="XMLID_322_" class="st0" d="M7.7,329v0.8c0,2.8-1.1,4-3.3,4c-1.3,0-2.4-0.5-2.6-1.9c-0.9,1.4-2.6,1.9-4.2,1.9
				c-2,0-3.5-0.9-3.5-3.2c0-4.9,7.6-2.5,7.6-6.1c0-1.6-1.4-1.9-2.7-1.9c-0.7,0-1.9,0.2-2.4,0.8c0.9-0.1,1.7,0.3,1.7,1.3
				c0,1.1-0.8,1.5-1.8,1.5c-1.1,0-1.8-0.8-1.8-1.9c0-2.6,3.1-3.1,5.1-3.1c3.4,0,4.9,1.5,4.9,3.7v6.2c0,0.6,0.2,0.8,0.6,0.8
				S6,331.5,6,330v-1H7.7z M1.8,327.1l-2.7,1.2c-0.7,0.3-1.5,0.7-1.5,1.9c0,1.1,0.5,1.6,1.5,1.6c1.7,0,2.7-1.5,2.7-3.1V327.1z"/>
			<path id="XMLID_320_" class="st0" d="M21.7,328.5c-0.2,3.4-2,5.3-5.5,5.3c-3.9,0-6-2.3-6-6.3c0-3.8,3-6.3,6.3-6.3
				c2.9,0,5.2,1.6,5.2,3.7c0,1.1-0.7,2.1-1.8,2.1c-0.9,0-2-0.5-2-1.5s0.5-1.6,1.5-1.6c-0.6-0.7-1.4-1-2.4-1c-2.6,0-3.4,2.5-3.4,4.4
				s0.6,4.4,3.3,4.4c1.5,0,2.6-1.3,2.8-3.1L21.7,328.5L21.7,328.5z"/>
			<path id="XMLID_318_" class="st0" d="M30.4,323.5L30.4,323.5c1.1-1.4,2.5-2.4,4.5-2.4c2.2,0,3.6,1.4,3.6,3.6v6c0,0.7,0.3,1,1,1
				h1.4v1.7h-7.4v-1.7h1c0.7,0,1-0.3,1-1V325c0-1.3-0.9-1.8-2.2-1.8s-2.8,1.4-2.8,3.6v4c0,0.7,0.3,1,1,1h1v1.7H25v-1.7h1.4
				c0.7,0,1-0.3,1-1v-11.4c0-0.7-0.3-1-1-1H25v-1.7h5.5v6.9L30.4,323.5L30.4,323.5z"/>
			<path id="XMLID_315_" class="st0" d="M50.5,321.2c3.8,0,6.5,2.3,6.5,6.3s-2.7,6.3-6.5,6.3s-6.5-2.3-6.5-6.3
				C44,323.4,46.7,321.2,50.5,321.2z M50.5,332.1c2.1,0,3.1-1.6,3.1-4.6s-1.1-4.6-3.1-4.6s-3.1,1.6-3.1,4.6S48.4,332.1,50.5,332.1z"
				/>
			<path id="XMLID_313_" class="st0" d="M81.2,318.5c-0.8,0-1,0.3-1,0.9v10.4c0,2.6-2.3,4.1-5.2,4.1c-2.3,0-5.6-1.1-5.6-3.9
				c0-1.5,0.7-2.7,2.4-2.7c1,0,2,0.9,2,1.9c0,1.2-0.7,2-1.9,2.1c0.6,0.6,1.5,0.8,2.4,0.8c1.4,0,2.4-0.6,2.4-2v-10.7
				c0-0.7-0.3-0.9-1-0.9H74v-1.9h9.1v1.9C83.1,318.5,81.2,318.5,81.2,318.5z"/>
			<path id="XMLID_311_" class="st0" d="M96.4,333.4v-2h-0.1c-1,1.9-2.6,2.4-4.3,2.4c-2.4,0-3.7-1.2-3.7-3.6v-6c0-0.7-0.3-1-1-1H86
				v-1.7h5.3v8.4c0,1.1,0.7,1.9,2,1.9c2.2,0,3.1-2.1,3.1-3.3v-4.3c0-0.7-0.4-1-1.2-1h-1.4v-1.7h5.6v9.2c0,0.7,0.3,1,1.4,1h1v1.7
				H96.4z"/>
			<path id="XMLID_309_" class="st0" d="M110.4,323.5L110.4,323.5c1.1-1.5,1.9-2.3,3.2-2.3c1.6,0,3.1,0.9,3.1,2.8
				c0,1.1-0.7,2.1-1.9,2.1c-1,0-1.8-0.6-1.8-1.6s0.8-1.5,1.7-1.5c-0.3-0.3-0.7-0.4-1.1-0.4c-2.1,0-3.2,2.1-3.2,3.9v4.2
				c0,0.7,0.3,1,1,1h1.6v1.7h-8v-1.7h1.4c0.7,0,1-0.3,1-1v-6.5c0-0.7-0.3-1-1-1H105v-1.7h5.4V323.5z"/>
			<path id="XMLID_306_" class="st0" d="M119.8,333.4v-1.7h1.2c0.7,0,1-0.3,1-1v-6.5c0-0.7-0.3-1-1-1h-1.2v-1.7h5.2v9.2
				c0,0.7,0.3,1,1,1h1.2v1.7H119.8z M121,319.8l2.5-2.8c0.7-0.8,1.4-1.9,2.5-1.9c0.5,0,1.1,0.5,1.1,1c0,0.8-0.3,1-0.9,1.3l-3.7,2.3
				L121,319.8L121,319.8z"/>
			<path id="XMLID_303_" class="st0" d="M139.5,331.3L139.5,331.3c-1.1,1.7-2.4,2.5-4,2.5c-3.5,0-5-3.2-5-6.3s1.9-6.3,5-6.3
				c2,0,3.4,1.2,4,2.2h0.1v-4c0-0.8-0.3-1.1-1-1.1H137v-1.7h5.6v14c0,0.8,0.2,1.1,1,1.1h1.3v1.7h-5.3L139.5,331.3L139.5,331.3z
				 M136.4,331.8c1.7,0,3.1-1.4,3.1-4.5c0-2.8-1.3-4.2-3.1-4.2c-1.7,0-2.6,1.4-2.6,4.3C133.8,330.4,134.7,331.8,136.4,331.8z"/>
			<path id="XMLID_300_" class="st0" d="M147.8,333.4v-1.7h1.2c0.7,0,1-0.3,1-1v-6.5c0-0.7-0.3-1-1-1h-1.2v-1.7h5.2v9.2
				c0,0.7,0.3,1,1,1h1.2v1.7H147.8z M151.2,316.3c1,0,1.8,0.8,1.8,1.8s-0.8,1.8-1.8,1.8s-1.8-0.8-1.8-1.8
				C149.4,317.1,150.2,316.3,151.2,316.3z"/>
			<path id="XMLID_298_" class="st0" d="M169.6,328.5c-0.2,3.4-2,5.3-5.5,5.3c-3.9,0-6-2.3-6-6.3c0-3.8,3-6.3,6.3-6.3
				c2.9,0,5.2,1.6,5.2,3.7c0,1.1-0.7,2.1-1.8,2.1c-0.9,0-2-0.5-2-1.5s0.5-1.6,1.5-1.6c-0.6-0.7-1.4-1-2.4-1c-2.6,0-3.4,2.5-3.4,4.4
				s0.6,4.4,3.3,4.4c1.5,0,2.6-1.3,2.8-3.1L169.6,328.5z"/>
			<path id="XMLID_295_" class="st0" d="M179.4,321.2c3.8,0,6.5,2.3,6.5,6.3s-2.7,6.3-6.5,6.3s-6.5-2.3-6.5-6.3
				C172.9,323.4,175.6,321.2,179.4,321.2z M179.4,332.1c2.1,0,3.1-1.6,3.1-4.6s-1.1-4.6-3.1-4.6c-2.1,0-3.1,1.6-3.1,4.6
				S177.4,332.1,179.4,332.1z"/>
		</g>
	</g>
</g>
</svg>
