<?xml version="1.0" encoding="utf-8"?>
<!-- Generator: Adobe Illustrator 19.0.0, SVG Export Plug-In . SVG Version: 6.00 Build 0)  -->
<svg version="1.1" id="Capa_1" xmlns="http://www.w3.org/2000/svg" xmlns:xlink="http://www.w3.org/1999/xlink" x="0px" y="0px"
	 viewBox="-443 1047.4 445.8 66.6" style="enable-background:new -443 1047.4 445.8 66.6;" xml:space="preserve">
<style type="text/css">
	.st0{fill:#794210;}
</style>
<path class="st0" d="M-416.5,1080.5h-1.8c-0.3-1.1-0.7-2.1-1.3-3c-1,1-2.1,1.9-3.4,2.7c-1.3,0.7-3,1.1-5.2,1.1
	c-2.4,0-4.6-0.6-6.6-1.7c-2-1.2-3.7-2.8-4.9-4.8c-1.2-2.1-1.8-4.4-1.8-7c0-1.8,0.3-3.6,1-5.3c0.7-1.7,1.6-3.2,2.8-4.4
	c1.2-1.3,2.7-2.3,4.3-3c1.7-0.7,3.5-1.1,5.5-1.1c3.3,0,6,1.1,8.2,3.2c0.3-0.6,0.6-1.4,0.8-2.4h1.8l0.3,9.7h-1.9
	c-0.3-1.7-0.9-3.1-1.8-4.4c-0.9-1.3-1.9-2.3-3.1-3c-1.2-0.7-2.5-1-3.8-1c-1.5,0-2.8,0.4-4,1.2c-1.2,0.8-2.1,2-2.8,3.7
	c-0.7,1.7-1,3.7-1,6.2c0,2.4,0.3,4.4,0.8,6c0.6,1.6,1.2,2.8,2.1,3.6c0.8,0.8,1.7,1.4,2.5,1.7c0.8,0.3,1.6,0.4,2.3,0.4
	c1.6,0,3-0.4,4.3-1.3c1.3-0.9,2.3-1.9,3.1-3.2c0.8-1.3,1.4-2.6,1.6-3.9h1.9V1080.5z"/>
<path class="st0" d="M-395,1080.8h-8.7v-1.3c0.7,0,1.3-0.1,1.6-0.2c0.3-0.1,0.5-0.4,0.5-0.7c0-0.3-0.1-0.6-0.2-0.8l-0.9-2.2h-6
	l-0.4,1.2c-0.3,0.7-0.4,1.2-0.4,1.5c0,0.5,0.2,0.9,0.6,1c0.4,0.1,0.9,0.2,1.5,0.2v1.3h-6.4v-1.3c0.5,0,0.9-0.1,1.3-0.3
	c0.4-0.2,0.7-0.6,1-1.1c0.3-0.5,0.7-1.3,1-2.3l5.3-14h1.3l5.6,14.4c0.4,1,0.7,1.7,0.9,2.1s0.5,0.6,0.8,0.8c0.3,0.2,0.8,0.3,1.4,0.3
	V1080.8z M-403.1,1074.3l-2.6-6.5l-2.4,6.5H-403.1z"/>
<path class="st0" d="M-379.9,1075.5c0,0.6-0.1,1.2-0.4,1.8c-0.2,0.6-0.6,1.3-1.1,1.8c-0.5,0.6-1.1,1.1-1.9,1.4
	c-0.8,0.4-1.6,0.6-2.6,0.6c-1,0-2-0.2-2.9-0.6c-1-0.4-1.8-1.1-2.5-1.9c-0.3,0.7-0.5,1.3-0.6,1.9h-1.3v-6.3h1.3
	c0.2,0.9,0.5,1.8,0.9,2.6c0.4,0.8,1,1.5,1.7,2.1c0.7,0.6,1.6,0.9,2.7,0.9c0.9,0,1.7-0.3,2.2-0.8c0.6-0.5,0.8-1.2,0.8-1.9
	c0-0.4-0.1-0.8-0.3-1.1c-0.2-0.3-0.4-0.6-0.8-0.9c-0.3-0.3-0.8-0.5-1.3-0.8c-0.6-0.3-1.2-0.6-1.9-0.9c-1.1-0.5-2-1.1-2.8-1.6
	c-0.7-0.5-1.3-1.1-1.6-1.6c-0.4-0.5-0.6-1-0.8-1.4c-0.1-0.5-0.2-0.9-0.2-1.4c0-0.8,0.2-1.6,0.7-2.4c0.4-0.8,1.1-1.5,2-2
	s1.9-0.8,3-0.8c0.9,0,1.7,0.2,2.5,0.6c0.8,0.4,1.5,0.9,2,1.6c0.2-0.4,0.3-0.9,0.4-1.6h1.3v5.2h-1.3c-0.9-2.8-2.5-4.2-4.8-4.2
	c-0.8,0-1.5,0.2-2,0.6c-0.5,0.4-0.7,1-0.7,1.7c0,0.5,0.2,1,0.5,1.4c0.3,0.4,0.7,0.7,1.2,1c0.5,0.3,1.3,0.7,2.4,1.2
	c1.4,0.6,2.4,1.2,3.2,1.7c0.8,0.5,1.4,1.1,2,1.8C-380.2,1073.6-379.9,1074.4-379.9,1075.5"/>
<path class="st0" d="M-359.7,1067.5h-1.3c-0.1-1.1-0.4-2-0.8-2.5c-0.4-0.5-0.8-0.9-1.2-1c-0.4-0.1-1-0.2-1.5-0.2h-2.3v13.6
	c0,0.5,0.1,1,0.2,1.2c0.1,0.3,0.4,0.5,0.8,0.7c0.4,0.2,1,0.2,1.8,0.2v1.3h-9.3v-1.3c1.1,0,1.9-0.2,2.2-0.5c0.3-0.3,0.5-0.9,0.5-1.7
	v-13.6h-2c-0.8,0-1.4,0.1-1.9,0.2s-1,0.5-1.3,1c-0.4,0.5-0.6,1.4-0.7,2.5h-1.3v-5.3h18.3V1067.5z"/>
<path class="st0" d="M-341.6,1074.7l-0.1,6.1h-16.5v-1.3c1.1,0,1.9-0.2,2.2-0.5c0.3-0.3,0.5-0.9,0.5-1.7v-11.6
	c0-0.5-0.1-0.9-0.2-1.2c-0.1-0.3-0.3-0.5-0.7-0.7c-0.4-0.2-1-0.3-1.8-0.3v-1.3h15.4l0.2,4.8h-1.3c-0.3-1.1-0.6-1.8-1-2.3
	c-0.4-0.5-0.8-0.7-1.2-0.8c-0.5-0.1-1.1-0.2-2.1-0.2h-3.5v6.5h1.9c0.6,0,1.1-0.1,1.4-0.2c0.3-0.1,0.5-0.3,0.7-0.6
	c0.1-0.3,0.2-0.8,0.3-1.5h1.3v6.2h-1.3c0-0.7-0.1-1.2-0.3-1.5c-0.1-0.3-0.4-0.5-0.7-0.6c-0.3-0.1-0.8-0.2-1.4-0.2h-1.9v4.4
	c0,0.7,0,1.3,0.1,1.6c0,0.3,0.1,0.6,0.3,0.8c0.2,0.2,0.4,0.4,0.8,0.5s0.9,0.2,1.5,0.2h1.5c0.6,0,1.2-0.1,1.8-0.2s1.1-0.6,1.7-1.2
	c0.5-0.7,0.9-1.7,1.1-3.1H-341.6z"/>
<path class="st0" d="M-323.3,1074.6l-0.1,6.2h-16.5v-1.3c1.1,0,1.9-0.2,2.2-0.5c0.3-0.3,0.5-0.9,0.5-1.7v-11.6c0-0.5-0.1-1-0.2-1.2
	s-0.4-0.5-0.8-0.7c-0.4-0.2-1-0.2-1.8-0.2v-1.3h9.3v1.3c-0.8,0-1.4,0.1-1.8,0.2c-0.4,0.2-0.7,0.4-0.8,0.7s-0.2,0.7-0.2,1.3v10.6
	c0,0.8,0,1.4,0.1,1.8c0.1,0.4,0.3,0.6,0.7,0.8c0.4,0.2,1,0.3,1.8,0.3c1,0,2-0.1,2.8-0.2c0.8-0.2,1.5-0.6,2.2-1.3
	c0.7-0.7,1.1-1.7,1.2-3.2H-323.3z"/>
<path class="st0" d="M-305.3,1074.6l-0.1,6.2h-16.5v-1.3c1.1,0,1.9-0.2,2.2-0.5c0.3-0.3,0.5-0.9,0.5-1.7v-11.6c0-0.5-0.1-1-0.2-1.2
	c-0.1-0.3-0.4-0.5-0.8-0.7c-0.4-0.2-1-0.2-1.8-0.2v-1.3h9.3v1.3c-0.8,0-1.4,0.1-1.8,0.2s-0.7,0.4-0.8,0.7c-0.1,0.3-0.2,0.7-0.2,1.3
	v10.6c0,0.8,0,1.4,0.1,1.8c0.1,0.4,0.3,0.6,0.7,0.8c0.4,0.2,1,0.3,1.8,0.3c1,0,2-0.1,2.8-0.2c0.8-0.2,1.5-0.6,2.2-1.3
	c0.7-0.7,1.1-1.7,1.2-3.2H-305.3z"/>
<path class="st0" d="M-285.5,1080.8h-8.7v-1.3c0.7,0,1.3-0.1,1.6-0.2c0.3-0.1,0.5-0.4,0.5-0.7c0-0.3-0.1-0.6-0.2-0.8l-0.9-2.2h-6
	l-0.4,1.2c-0.3,0.7-0.4,1.2-0.4,1.5c0,0.5,0.2,0.9,0.6,1c0.4,0.1,0.9,0.2,1.5,0.2v1.3h-6.4v-1.3c0.5,0,0.9-0.1,1.3-0.3
	c0.4-0.2,0.7-0.6,1-1.1c0.3-0.5,0.7-1.3,1-2.3l5.3-14h1.3l5.6,14.4c0.4,1,0.7,1.7,0.9,2.1s0.5,0.6,0.8,0.8c0.3,0.2,0.8,0.3,1.4,0.3
	V1080.8z M-293.6,1074.3l-2.6-6.5l-2.4,6.5H-293.6z"/>
<path class="st0" d="M-264.4,1063.5c-0.9,0-1.5,0.1-1.9,0.3c-0.4,0.2-0.6,0.4-0.7,0.8c-0.1,0.3-0.1,0.9-0.1,1.7v14.7h-1.3
	l-12.1-14.4v10.2c0,0.8,0,1.3,0.1,1.7c0.1,0.3,0.3,0.6,0.7,0.8c0.4,0.2,1,0.3,1.9,0.3v1.3h-6.9v-1.3c0.8,0,1.4-0.1,1.8-0.3
	c0.4-0.2,0.6-0.5,0.7-0.8c0.1-0.3,0.1-0.9,0.1-1.7v-9.4c0-0.8,0-1.3-0.1-1.7c0-0.4-0.1-0.7-0.3-1c-0.2-0.3-0.4-0.5-0.8-0.7
	c-0.3-0.2-0.8-0.3-1.5-0.4v-1.3h5.4l10.5,12.4v-8.4c0-0.7,0-1.2-0.1-1.6c-0.1-0.4-0.3-0.7-0.7-0.9c-0.4-0.2-1-0.3-1.8-0.3v-1.3h6.9
	V1063.5z"/>
<path class="st0" d="M-242,1071.5c0,1.7-0.4,3.3-1.2,4.7c-0.8,1.5-2,2.6-3.6,3.5c-1.6,0.9-3.4,1.3-5.6,1.3c-1.7,0-3.3-0.3-4.6-0.8
	c-1.3-0.6-2.4-1.3-3.3-2.3c-0.8-0.9-1.5-2-1.9-3.1c-0.4-1.1-0.6-2.3-0.6-3.4c0-1.6,0.4-3.2,1.2-4.7c0.8-1.5,1.9-2.6,3.5-3.5
	c1.6-0.9,3.4-1.3,5.6-1.3c2,0,3.7,0.3,5,1c1.4,0.6,2.5,1.5,3.2,2.4c0.8,1,1.3,2,1.7,3.1C-242.2,1069.5-242,1070.5-242,1071.5
	 M-246.5,1071.5c0-1-0.1-2-0.3-2.9c-0.2-0.9-0.5-1.8-0.9-2.5c-0.4-0.7-1.1-1.3-1.8-1.8c-0.8-0.4-1.7-0.7-2.9-0.7
	c-1.6,0-2.8,0.4-3.7,1.2c-0.9,0.8-1.5,1.8-1.8,2.9c-0.3,1.2-0.5,2.4-0.5,3.8c0,0.8,0,1.6,0.1,2.4c0.1,0.8,0.3,1.7,0.7,2.5
	c0.4,0.9,1,1.6,1.8,2.2c0.8,0.6,1.9,0.9,3.2,0.9c1.3,0,2.4-0.3,3.2-0.9c0.8-0.6,1.4-1.4,1.8-2.3c0.4-0.9,0.6-1.7,0.7-2.5
	C-246.5,1072.9-246.5,1072.2-246.5,1071.5"/>
<path class="st0" d="M-225.9,1075.5c0,0.6-0.1,1.2-0.4,1.8c-0.2,0.6-0.6,1.3-1.1,1.8c-0.5,0.6-1.1,1.1-1.9,1.4
	c-0.8,0.4-1.6,0.6-2.6,0.6c-1,0-2-0.2-2.9-0.6c-1-0.4-1.8-1.1-2.5-1.9c-0.3,0.7-0.5,1.3-0.6,1.9h-1.3v-6.3h1.3
	c0.2,0.9,0.5,1.8,0.9,2.6c0.4,0.8,1,1.5,1.7,2.1c0.7,0.6,1.6,0.9,2.7,0.9c0.9,0,1.7-0.3,2.2-0.8c0.6-0.5,0.8-1.2,0.8-1.9
	c0-0.4-0.1-0.8-0.3-1.1c-0.2-0.3-0.4-0.6-0.8-0.9c-0.3-0.3-0.8-0.5-1.3-0.8c-0.6-0.3-1.2-0.6-1.9-0.9c-1.1-0.5-2-1.1-2.8-1.6
	c-0.7-0.5-1.3-1.1-1.6-1.6c-0.4-0.5-0.6-1-0.8-1.4c-0.1-0.5-0.2-0.9-0.2-1.4c0-0.8,0.2-1.6,0.7-2.4c0.4-0.8,1.1-1.5,2-2
	c0.9-0.5,1.9-0.8,3-0.8c0.9,0,1.7,0.2,2.5,0.6c0.8,0.4,1.5,0.9,2,1.6c0.2-0.4,0.3-0.9,0.4-1.6h1.3v5.2h-1.3
	c-0.9-2.8-2.5-4.2-4.8-4.2c-0.8,0-1.5,0.2-2,0.6c-0.5,0.4-0.7,1-0.7,1.7c0,0.5,0.2,1,0.5,1.4c0.3,0.4,0.7,0.7,1.2,1
	c0.5,0.3,1.3,0.7,2.4,1.2c1.4,0.6,2.4,1.2,3.2,1.7c0.8,0.5,1.4,1.1,2,1.8C-226.2,1073.6-225.9,1074.4-225.9,1075.5"/>
<path class="st0" d="M-185.9,1074.8c-0.1,1-0.3,2-0.7,3c-0.4,1-1,1.8-1.8,2.4c-0.8,0.7-1.8,1-3.1,1c-0.6,0-1.2-0.1-1.8-0.3
	c-0.6-0.2-1.2-0.5-1.9-1c-0.7-0.5-1.5-1.3-2.6-2.3c-1.3,1.2-2.6,2.2-4,2.7c-1.3,0.6-2.6,0.9-3.9,0.9c-1.4,0-2.7-0.3-3.8-1
	c-1.1-0.7-2-1.5-2.6-2.6c-0.6-1.1-0.9-2.2-0.9-3.5c0-0.7,0.1-1.5,0.4-2.4c0.2-0.9,0.8-1.8,1.7-2.9c0.9-1.1,2.2-2.1,3.9-3.1
	c-0.7-1.1-1.2-2.2-1.5-3c-0.3-0.9-0.5-1.8-0.5-2.9c0-1,0.2-1.9,0.6-2.7c0.4-0.8,0.9-1.4,1.5-1.9c0.6-0.5,1.3-0.9,2-1.1
	c0.8-0.3,1.5-0.4,2.3-0.4c1.1,0,2.1,0.2,3,0.7c0.8,0.5,1.5,1.1,1.9,1.9c0.4,0.8,0.7,1.6,0.7,2.4c0,1.1-0.4,2.2-1.2,3.3
	c-0.8,1.1-2,2.1-3.5,2.9l6,7.9c0.7-0.9,1.4-1.8,1.9-2.7c0.6-0.9,0.8-1.8,0.8-2.7c0-0.3-0.1-0.6-0.4-1.1s-0.8-0.6-1.6-0.6v-1.8h8v1.8
	c-0.7,0.2-1.3,0.4-1.7,0.7c-0.4,0.3-0.8,0.7-1.2,1.1c-0.3,0.4-0.9,1.3-1.7,2.6l-0.8,1.4c-0.7,1.1-1.4,2.1-2.1,2.9
	c0.6,0.9,1.4,1.7,2.2,2.5c0.8,0.7,1.6,1.1,2.3,1.1c0.4,0,0.7-0.1,1-0.3c0.3-0.2,0.6-0.5,0.9-1c0.2-0.5,0.4-1.1,0.5-1.9H-185.9z
	 M-198.9,1076.3l-6.9-8.9c-1.9,1.2-2.9,2.6-2.9,4.3c0,1,0.3,2,0.8,2.9c0.5,1,1.2,1.8,2.1,2.4c0.9,0.6,1.8,0.9,2.8,0.9
	c0.8,0,1.5-0.2,2.2-0.5C-200.2,1077.2-199.6,1076.8-198.9,1076.3 M-199.7,1058.8c0-0.5-0.1-1-0.3-1.5c-0.2-0.5-0.5-0.8-0.9-1.1
	c-0.4-0.3-0.9-0.4-1.5-0.4c-0.8,0-1.5,0.3-1.9,0.8c-0.5,0.5-0.7,1.1-0.7,1.8c0,1.5,0.7,3.3,2.2,5.3c0.9-0.7,1.7-1.4,2.3-2.1
	C-200,1060.8-199.7,1059.9-199.7,1058.8"/>
<path class="st0" d="M-147.7,1080.8h-12.5v-1.8c1.1,0,1.8-0.1,2.3-0.2c0.5-0.2,0.7-0.5,0.7-1.1c0-0.4-0.1-0.8-0.2-1.2l-1.2-3.1h-8.6
	l-0.6,1.7c-0.4,1-0.5,1.7-0.5,2.1c0,0.8,0.3,1.3,0.9,1.5c0.6,0.2,1.3,0.3,2.1,0.3v1.8h-9.1v-1.8c0.7,0,1.3-0.1,1.9-0.4
	c0.5-0.3,1-0.8,1.5-1.5c0.5-0.8,1-1.8,1.5-3.2l7.6-20h1.9l8.1,20.6c0.6,1.5,1,2.4,1.3,3c0.3,0.5,0.7,0.9,1.1,1.2
	c0.5,0.3,1.2,0.4,2,0.4V1080.8z M-159.3,1071.5l-3.6-9.2l-3.5,9.2H-159.3z"/>
<path class="st0" d="M-132.5,1075.5c0,0.6-0.1,1.2-0.4,1.8c-0.2,0.6-0.6,1.3-1.1,1.8c-0.5,0.6-1.1,1.1-1.9,1.4
	c-0.8,0.4-1.6,0.6-2.6,0.6c-1,0-2-0.2-2.9-0.6c-1-0.4-1.8-1.1-2.5-1.9c-0.3,0.7-0.5,1.3-0.6,1.9h-1.3v-6.3h1.3
	c0.2,0.9,0.5,1.8,0.9,2.6c0.4,0.8,1,1.5,1.7,2.1c0.7,0.6,1.6,0.9,2.7,0.9c0.9,0,1.7-0.3,2.2-0.8c0.6-0.5,0.8-1.2,0.8-1.9
	c0-0.4-0.1-0.8-0.3-1.1c-0.2-0.3-0.4-0.6-0.7-0.9c-0.3-0.3-0.8-0.5-1.3-0.8c-0.6-0.3-1.2-0.6-1.9-0.9c-1.1-0.5-2-1.1-2.8-1.6
	c-0.7-0.5-1.3-1.1-1.6-1.6c-0.4-0.5-0.6-1-0.8-1.4c-0.1-0.5-0.2-0.9-0.2-1.4c0-0.8,0.2-1.6,0.7-2.4c0.4-0.8,1.1-1.5,2-2
	c0.9-0.5,1.9-0.8,3-0.8c0.9,0,1.7,0.2,2.5,0.6c0.8,0.4,1.5,0.9,2,1.6c0.2-0.4,0.3-0.9,0.5-1.6h1.3v5.2h-1.3
	c-0.9-2.8-2.5-4.2-4.8-4.2c-0.8,0-1.5,0.2-2,0.6c-0.5,0.4-0.7,1-0.7,1.7c0,0.5,0.2,1,0.5,1.4c0.3,0.4,0.7,0.7,1.2,1
	c0.5,0.3,1.3,0.7,2.4,1.2c1.4,0.6,2.4,1.2,3.2,1.7c0.8,0.5,1.4,1.1,2,1.8C-132.8,1073.6-132.5,1074.4-132.5,1075.5"/>
<path class="st0" d="M-109.3,1071.5c0,1.7-0.4,3.3-1.2,4.7c-0.8,1.5-2,2.6-3.6,3.5c-1.6,0.9-3.4,1.3-5.6,1.3c-1.7,0-3.3-0.3-4.6-0.8
	c-1.3-0.6-2.4-1.3-3.3-2.3c-0.8-0.9-1.5-2-1.9-3.1c-0.4-1.1-0.6-2.3-0.6-3.4c0-1.6,0.4-3.2,1.2-4.7c0.8-1.5,1.9-2.6,3.5-3.5
	c1.6-0.9,3.4-1.3,5.6-1.3c2,0,3.7,0.3,5,1c1.4,0.6,2.5,1.5,3.2,2.4c0.8,1,1.3,2,1.7,3.1C-109.5,1069.5-109.3,1070.5-109.3,1071.5
	 M-113.7,1071.5c0-1-0.1-2-0.3-2.9s-0.5-1.8-0.9-2.5c-0.4-0.7-1.1-1.3-1.8-1.8c-0.8-0.4-1.7-0.7-2.9-0.7c-1.6,0-2.8,0.4-3.7,1.2
	c-0.9,0.8-1.5,1.8-1.8,2.9c-0.3,1.2-0.5,2.4-0.5,3.8c0,0.8,0,1.6,0.2,2.4c0.1,0.8,0.3,1.7,0.7,2.5c0.4,0.9,1,1.6,1.8,2.2
	c0.8,0.6,1.9,0.9,3.2,0.9c1.3,0,2.4-0.3,3.2-0.9c0.8-0.6,1.4-1.4,1.8-2.3c0.4-0.9,0.6-1.7,0.7-2.5
	C-113.8,1072.9-113.7,1072.2-113.7,1071.5"/>
<path class="st0" d="M-89.1,1080.6h-1.3c-0.2-0.8-0.5-1.5-0.9-2.1c-0.7,0.7-1.5,1.3-2.4,1.9c-0.9,0.5-2.1,0.8-3.6,0.8
	c-1.7,0-3.2-0.4-4.6-1.2c-1.4-0.8-2.6-1.9-3.4-3.4c-0.8-1.5-1.3-3.1-1.3-4.9c0-1.3,0.2-2.5,0.7-3.7c0.5-1.2,1.1-2.2,2-3.1
	c0.8-0.9,1.9-1.6,3-2.1c1.2-0.5,2.5-0.8,3.9-0.8c2.3,0,4.2,0.8,5.7,2.3c0.2-0.4,0.4-1,0.6-1.7h1.2l0.2,6.8h-1.3
	c-0.2-1.2-0.7-2.2-1.3-3.1c-0.6-0.9-1.4-1.6-2.2-2.1c-0.8-0.5-1.7-0.7-2.7-0.7c-1,0-2,0.3-2.8,0.9c-0.8,0.6-1.5,1.4-1.9,2.6
	c-0.5,1.2-0.7,2.6-0.7,4.4c0,1.7,0.2,3.1,0.6,4.2c0.4,1.1,0.9,2,1.5,2.5c0.6,0.6,1.2,1,1.7,1.2c0.6,0.2,1.1,0.3,1.6,0.3
	c1.1,0,2.1-0.3,3-0.9c0.9-0.6,1.6-1.4,2.2-2.3c0.6-0.9,1-1.8,1.1-2.7h1.3V1080.6z"/>
<path class="st0" d="M-77.4,1080.8h-9.4v-1.3c0.8,0,1.4-0.1,1.8-0.2c0.4-0.2,0.7-0.4,0.8-0.7c0.1-0.3,0.2-0.7,0.2-1.3v-11.6
	c0-0.8-0.2-1.4-0.5-1.7c-0.3-0.3-1.1-0.5-2.2-0.5v-1.3h9.4v1.3c-0.8,0-1.4,0.1-1.8,0.2c-0.4,0.2-0.7,0.4-0.8,0.7
	c-0.1,0.3-0.2,0.7-0.2,1.3v11.6c0,0.5,0.1,0.9,0.2,1.2c0.1,0.3,0.4,0.5,0.8,0.7c0.4,0.2,1,0.2,1.8,0.2V1080.8z"/>
<path class="st0" d="M-57.8,1080.8h-8.7v-1.3c0.7,0,1.3-0.1,1.6-0.2c0.3-0.1,0.5-0.4,0.5-0.7c0-0.3-0.1-0.6-0.2-0.8l-0.9-2.2h-6
	l-0.4,1.2c-0.3,0.7-0.4,1.2-0.4,1.5c0,0.5,0.2,0.9,0.6,1c0.4,0.1,0.9,0.2,1.5,0.2v1.3h-6.4v-1.3c0.5,0,0.9-0.1,1.3-0.3
	c0.4-0.2,0.7-0.6,1-1.1c0.3-0.5,0.7-1.3,1-2.3l5.3-14h1.3l5.6,14.4c0.4,1,0.7,1.7,0.9,2.1c0.2,0.4,0.5,0.6,0.8,0.8
	c0.3,0.2,0.8,0.3,1.4,0.3V1080.8z M-66,1074.3l-2.6-6.5l-2.4,6.5H-66z"/>
<path class="st0" d="M-37.3,1071.7c0,1.3-0.2,2.5-0.7,3.6c-0.5,1.1-1,2-1.8,2.7c-0.7,0.7-1.5,1.3-2.3,1.6c-1.7,0.8-3.8,1.1-6.3,1.1
	h-8.4v-1.3c0.8,0,1.4-0.1,1.8-0.2c0.4-0.2,0.7-0.4,0.8-0.7s0.2-0.7,0.2-1.3v-11.7c0-0.8-0.2-1.4-0.5-1.7c-0.3-0.3-1.1-0.5-2.3-0.5
	v-1.3l4-0.1c0.1,0,0.7,0,1.7,0c1,0,1.5,0,1.7,0c1.5,0,2.8,0.1,3.9,0.2c1.1,0.2,2,0.4,2.9,0.8c0.8,0.3,1.6,0.8,2.2,1.4
	c0.7,0.6,1.3,1.3,1.7,2c0.5,0.8,0.8,1.6,1.1,2.5C-37.5,1069.8-37.3,1070.7-37.3,1071.7 M-41.8,1071.6c0-1.9-0.4-3.5-1.1-4.8
	c-0.7-1.3-1.7-2.2-3-2.7c-0.5-0.2-1.1-0.4-1.7-0.4c-0.6-0.1-1.5-0.1-2.6-0.1v13c0,0.7,0,1.3,0.1,1.6c0.1,0.3,0.3,0.6,0.6,0.8
	c0.4,0.2,0.9,0.3,1.7,0.3c2.2,0,3.8-0.8,4.7-2.3C-42.2,1075.4-41.8,1073.6-41.8,1071.6"/>
<path class="st0" d="M-14.1,1071.5c0,1.7-0.4,3.3-1.2,4.7c-0.8,1.5-2,2.6-3.6,3.5c-1.6,0.9-3.4,1.3-5.6,1.3c-1.7,0-3.3-0.3-4.6-0.8
	c-1.3-0.6-2.4-1.3-3.3-2.3c-0.8-0.9-1.5-2-1.9-3.1c-0.4-1.1-0.6-2.3-0.6-3.4c0-1.6,0.4-3.2,1.2-4.7c0.8-1.5,1.9-2.6,3.5-3.5
	c1.6-0.9,3.4-1.3,5.6-1.3c2,0,3.7,0.3,5,1c1.4,0.6,2.5,1.5,3.2,2.4c0.8,1,1.3,2,1.7,3.1C-14.2,1069.5-14.1,1070.5-14.1,1071.5
	 M-18.5,1071.5c0-1-0.1-2-0.3-2.9s-0.5-1.8-0.9-2.5c-0.4-0.7-1.1-1.3-1.8-1.8c-0.8-0.4-1.7-0.7-2.9-0.7c-1.6,0-2.8,0.4-3.7,1.2
	c-0.9,0.8-1.5,1.8-1.8,2.9c-0.3,1.2-0.5,2.4-0.5,3.8c0,0.8,0,1.6,0.1,2.4s0.3,1.7,0.7,2.5c0.4,0.9,1,1.6,1.8,2.2
	c0.8,0.6,1.9,0.9,3.2,0.9c1.3,0,2.4-0.3,3.2-0.9c0.8-0.6,1.4-1.4,1.8-2.3c0.4-0.9,0.6-1.7,0.7-2.5
	C-18.5,1072.9-18.5,1072.2-18.5,1071.5"/>
<path class="st0" d="M2.1,1075.5c0,0.6-0.1,1.2-0.4,1.8c-0.2,0.6-0.6,1.3-1.1,1.8c-0.5,0.6-1.1,1.1-1.9,1.4
	c-0.8,0.4-1.6,0.6-2.6,0.6c-1,0-2-0.2-2.9-0.6c-1-0.4-1.8-1.1-2.5-1.9c-0.3,0.7-0.5,1.3-0.6,1.9h-1.3v-6.3h1.3
	c0.2,0.9,0.5,1.8,0.9,2.6c0.4,0.8,1,1.5,1.7,2.1c0.7,0.6,1.6,0.9,2.7,0.9c0.9,0,1.7-0.3,2.2-0.8c0.6-0.5,0.8-1.2,0.8-1.9
	c0-0.4-0.1-0.8-0.3-1.1c-0.2-0.3-0.4-0.6-0.8-0.9c-0.3-0.3-0.8-0.5-1.3-0.8c-0.6-0.3-1.2-0.6-1.9-0.9c-1.1-0.5-2-1.1-2.8-1.6
	c-0.7-0.5-1.3-1.1-1.6-1.6c-0.4-0.5-0.6-1-0.8-1.4c-0.1-0.5-0.2-0.9-0.2-1.4c0-0.8,0.2-1.6,0.7-2.4c0.4-0.8,1.1-1.5,2-2
	c0.9-0.5,1.9-0.8,3-0.8c0.9,0,1.7,0.2,2.5,0.6c0.8,0.4,1.5,0.9,2,1.6c0.2-0.4,0.3-0.9,0.4-1.6h1.3v5.2h-1.3
	c-0.9-2.8-2.5-4.2-4.8-4.2c-0.8,0-1.5,0.2-2,0.6c-0.5,0.4-0.7,1-0.7,1.7c0,0.5,0.2,1,0.5,1.4c0.3,0.4,0.7,0.7,1.2,1
	c0.5,0.3,1.3,0.7,2.4,1.2c1.4,0.6,2.4,1.2,3.2,1.7c0.8,0.5,1.4,1.1,2,1.8C1.8,1073.6,2.1,1074.4,2.1,1075.5"/>
<path class="st0" d="M-284.3,1098.2c0,1-0.2,1.8-0.5,2.6c-0.3,0.8-0.7,1.4-1.3,1.9c-0.5,0.5-1.1,0.9-1.6,1.2
	c-1.2,0.5-2.7,0.8-4.5,0.8h-6v-0.9c0.6,0,1-0.1,1.3-0.2c0.3-0.1,0.5-0.3,0.6-0.5c0.1-0.2,0.1-0.5,0.1-0.9v-8.3c0-0.6-0.1-1-0.4-1.2
	c-0.2-0.2-0.8-0.4-1.6-0.4v-0.9l2.8-0.1c0.1,0,0.5,0,1.2,0c0.7,0,1.1,0,1.2,0c1.1,0,2,0.1,2.8,0.2c0.8,0.1,1.5,0.3,2.1,0.6
	c0.6,0.2,1.1,0.6,1.6,1c0.5,0.4,0.9,0.9,1.2,1.4c0.3,0.5,0.6,1.1,0.8,1.7C-284.4,1096.9-284.3,1097.5-284.3,1098.2 M-287.5,1098.2
	c0-1.4-0.3-2.5-0.8-3.4c-0.5-0.9-1.2-1.6-2.1-1.9c-0.4-0.2-0.8-0.3-1.2-0.3c-0.4,0-1.1-0.1-1.9-0.1v9.3c0,0.5,0,0.9,0.1,1.2
	c0.1,0.2,0.2,0.4,0.5,0.6c0.3,0.1,0.6,0.2,1.2,0.2c1.6,0,2.7-0.6,3.3-1.7C-287.8,1100.9-287.5,1099.6-287.5,1098.2"/>
<path class="st0" d="M-274.8,1101.7l-0.1,3h-8.2v-0.6c0.6,0,0.9-0.1,1.1-0.2c0.2-0.2,0.2-0.4,0.2-0.8v-5.8c0-0.3,0-0.5-0.1-0.6
	c-0.1-0.1-0.2-0.3-0.4-0.3c-0.2-0.1-0.5-0.1-0.9-0.1v-0.6h7.7l0.1,2.4h-0.6c-0.1-0.5-0.3-0.9-0.5-1.1c-0.2-0.2-0.4-0.4-0.6-0.4
	c-0.2-0.1-0.6-0.1-1-0.1h-1.7v3.3h0.9c0.3,0,0.6,0,0.7-0.1c0.2-0.1,0.3-0.2,0.3-0.3c0.1-0.2,0.1-0.4,0.1-0.8h0.7v3.1h-0.6
	c0-0.3-0.1-0.6-0.1-0.8c-0.1-0.2-0.2-0.3-0.3-0.3c-0.2-0.1-0.4-0.1-0.7-0.1h-1v2.2c0,0.4,0,0.6,0,0.8c0,0.2,0.1,0.3,0.1,0.4
	c0.1,0.1,0.2,0.2,0.4,0.2c0.2,0,0.4,0.1,0.8,0.1h0.7c0.3,0,0.6,0,0.9-0.1c0.3-0.1,0.6-0.3,0.8-0.6c0.3-0.3,0.5-0.8,0.6-1.6H-274.8z"
	/>
<path class="st0" d="M-266.8,1102.1c0,0.3-0.1,0.6-0.2,0.9c-0.1,0.3-0.3,0.6-0.6,0.9c-0.2,0.3-0.6,0.5-0.9,0.7
	c-0.4,0.2-0.8,0.3-1.3,0.3c-0.5,0-1-0.1-1.5-0.3c-0.5-0.2-0.9-0.5-1.2-1c-0.1,0.3-0.2,0.6-0.3,0.9h-0.6v-3.2h0.6
	c0.1,0.5,0.3,0.9,0.5,1.3c0.2,0.4,0.5,0.7,0.8,1c0.4,0.3,0.8,0.4,1.3,0.4c0.5,0,0.8-0.1,1.1-0.4c0.3-0.3,0.4-0.6,0.4-1
	c0-0.2,0-0.4-0.1-0.6c-0.1-0.2-0.2-0.3-0.4-0.4s-0.4-0.3-0.7-0.4c-0.3-0.1-0.6-0.3-1-0.5c-0.6-0.3-1-0.5-1.4-0.8s-0.6-0.5-0.8-0.8
	c-0.2-0.3-0.3-0.5-0.4-0.7c-0.1-0.2-0.1-0.5-0.1-0.7c0-0.4,0.1-0.8,0.3-1.2c0.2-0.4,0.5-0.7,1-1c0.4-0.3,0.9-0.4,1.5-0.4
	c0.4,0,0.8,0.1,1.2,0.3c0.4,0.2,0.7,0.5,1,0.8c0.1-0.2,0.2-0.5,0.2-0.8h0.6v2.6h-0.6c-0.5-1.4-1.2-2.1-2.4-2.1c-0.4,0-0.7,0.1-1,0.3
	c-0.2,0.2-0.4,0.5-0.4,0.8c0,0.3,0.1,0.5,0.2,0.7c0.2,0.2,0.4,0.4,0.6,0.5c0.3,0.1,0.7,0.3,1.2,0.6c0.7,0.3,1.2,0.6,1.6,0.8
	c0.4,0.2,0.7,0.5,1,0.9C-267,1101.1-266.8,1101.6-266.8,1102.1"/>
<path class="st0" d="M-257.6,1097.9c0,0.8-0.2,1.3-0.7,1.7c-0.5,0.4-1,0.6-1.7,0.8c-0.6,0.1-1.3,0.2-2,0.2h-0.6v2.4
	c0,0.3,0,0.5,0.1,0.6c0.1,0.1,0.2,0.3,0.4,0.3c0.2,0.1,0.5,0.1,0.9,0.1v0.6h-4.7v-0.6c0.4,0,0.7,0,0.9-0.1c0.2-0.1,0.3-0.2,0.4-0.3
	c0.1-0.2,0.1-0.4,0.1-0.6v-5.8c0-0.3,0-0.5-0.1-0.6c-0.1-0.1-0.2-0.3-0.4-0.3c-0.2-0.1-0.5-0.1-0.9-0.1v-0.6l2.6-0.1
	c0.1,0,0.3,0,0.4,0c0.2,0,0.3,0,0.4,0c0.1,0,0.2,0,0.4,0c0.2,0,0.4,0,0.5,0c0.5,0,1.1,0.1,1.6,0.2c0.5,0.1,1,0.3,1.5,0.7
	C-257.9,1096.6-257.6,1097.2-257.6,1097.9 M-259.7,1097.9c0-0.7-0.2-1.2-0.6-1.5c-0.4-0.2-1-0.4-1.7-0.4c-0.1,0-0.3,0-0.5,0v3.7h0.6
	c0.7,0,1.2-0.1,1.6-0.3C-259.9,1099.3-259.7,1098.7-259.7,1097.9"/>
<path class="st0" d="M-248.9,1104.7h-4.4v-0.6c0.4,0,0.6,0,0.8-0.1c0.2-0.1,0.3-0.2,0.3-0.4c0-0.1,0-0.3-0.1-0.4l-0.4-1.1h-3
	l-0.2,0.6c-0.1,0.3-0.2,0.6-0.2,0.7c0,0.3,0.1,0.4,0.3,0.5c0.2,0.1,0.5,0.1,0.7,0.1v0.6h-3.2v-0.6c0.3,0,0.5,0,0.6-0.1
	c0.2-0.1,0.3-0.3,0.5-0.5c0.2-0.3,0.3-0.6,0.5-1.1l2.7-7h0.6l2.8,7.2c0.2,0.5,0.4,0.9,0.4,1c0.1,0.2,0.2,0.3,0.4,0.4
	c0.2,0.1,0.4,0.1,0.7,0.1V1104.7z M-252.9,1101.5l-1.3-3.2l-1.2,3.2H-252.9z"/>
<path class="st0" d="M-239.8,1104.6h-0.6c-0.1-0.4-0.3-0.7-0.5-1c-0.3,0.4-0.7,0.7-1.2,0.9c-0.4,0.3-1,0.4-1.8,0.4
	c-0.8,0-1.6-0.2-2.3-0.6c-0.7-0.4-1.3-1-1.7-1.7c-0.4-0.7-0.6-1.5-0.6-2.5c0-0.6,0.1-1.3,0.3-1.8c0.2-0.6,0.6-1.1,1-1.5
	c0.4-0.4,0.9-0.8,1.5-1.1c0.6-0.3,1.2-0.4,1.9-0.4c1.2,0,2.1,0.4,2.9,1.1c0.1-0.2,0.2-0.5,0.3-0.9h0.6l0.1,3.4h-0.7
	c-0.1-0.6-0.3-1.1-0.6-1.5c-0.3-0.5-0.7-0.8-1.1-1c-0.4-0.2-0.9-0.4-1.3-0.4c-0.5,0-1,0.1-1.4,0.4c-0.4,0.3-0.7,0.7-1,1.3
	c-0.2,0.6-0.4,1.3-0.4,2.2c0,0.8,0.1,1.5,0.3,2.1c0.2,0.6,0.4,1,0.7,1.3c0.3,0.3,0.6,0.5,0.9,0.6c0.3,0.1,0.6,0.2,0.8,0.2
	c0.6,0,1.1-0.1,1.5-0.4c0.4-0.3,0.8-0.7,1.1-1.1c0.3-0.5,0.5-0.9,0.6-1.4h0.7V1104.6z"/>
<path class="st0" d="M-227.8,1104.7h-4.6v-0.6c0.4,0,0.7,0,0.8-0.1c0.2-0.1,0.3-0.2,0.4-0.4c0.1-0.2,0.1-0.4,0.1-0.6v-2.8h-4.3v2.8
	c0,0.4,0.1,0.7,0.2,0.8c0.2,0.2,0.5,0.3,1.1,0.3v0.6h-4.6v-0.6c0.4,0,0.6,0,0.8-0.1c0.2-0.1,0.3-0.2,0.4-0.4
	c0.1-0.2,0.1-0.4,0.1-0.6v-5.8c0-0.3,0-0.5-0.1-0.6s-0.2-0.3-0.4-0.3c-0.2-0.1-0.5-0.1-0.9-0.1v-0.6h4.6v0.6c-0.6,0-0.9,0.1-1.1,0.3
	c-0.2,0.2-0.2,0.4-0.2,0.8v2.3h4.3v-2.3c0-0.3,0-0.5-0.1-0.6c-0.1-0.1-0.2-0.3-0.4-0.3c-0.2-0.1-0.5-0.1-0.9-0.1v-0.6h4.6v0.6
	c-0.4,0-0.7,0-0.9,0.1c-0.2,0.1-0.3,0.2-0.4,0.3c-0.1,0.1-0.1,0.4-0.1,0.6v5.8c0,0.2,0,0.4,0.1,0.6c0,0.1,0.2,0.3,0.4,0.4
	c0.2,0.1,0.5,0.1,0.9,0.1V1104.7z"/>
<path class="st0" d="M-216.4,1100.1c0,0.8-0.2,1.6-0.6,2.4c-0.4,0.7-1,1.3-1.8,1.8c-0.8,0.4-1.7,0.7-2.8,0.7c-0.9,0-1.6-0.1-2.3-0.4
	c-0.7-0.3-1.2-0.7-1.6-1.1c-0.4-0.5-0.7-1-0.9-1.6c-0.2-0.6-0.3-1.1-0.3-1.7c0-0.8,0.2-1.6,0.6-2.3c0.4-0.7,1-1.3,1.7-1.8
	c0.8-0.4,1.7-0.7,2.8-0.7c1,0,1.8,0.2,2.5,0.5c0.7,0.3,1.2,0.7,1.6,1.2c0.4,0.5,0.7,1,0.8,1.5
	C-216.5,1099.1-216.4,1099.6-216.4,1100.1 M-218.6,1100.1c0-0.5,0-1-0.1-1.5c-0.1-0.5-0.2-0.9-0.5-1.3c-0.2-0.4-0.5-0.7-0.9-0.9
	c-0.4-0.2-0.9-0.3-1.4-0.3c-0.8,0-1.4,0.2-1.8,0.6c-0.4,0.4-0.7,0.9-0.9,1.5c-0.2,0.6-0.2,1.2-0.2,1.9c0,0.4,0,0.8,0.1,1.2
	c0.1,0.4,0.2,0.8,0.4,1.3c0.2,0.4,0.5,0.8,0.9,1.1c0.4,0.3,1,0.4,1.6,0.4c0.7,0,1.2-0.2,1.6-0.5c0.4-0.3,0.7-0.7,0.9-1.1
	c0.2-0.4,0.3-0.9,0.4-1.3C-218.7,1100.8-218.6,1100.4-218.6,1100.1"/>
<path class="st0" d="M-205.8,1096.1c-0.4,0-0.7,0-0.9,0.1c-0.2,0.1-0.3,0.2-0.4,0.3c-0.1,0.2-0.1,0.4-0.1,0.6v7v0.2
	c0,0.5,0,0.9-0.1,1.2c0,0.3-0.1,0.6-0.3,0.9c-0.2,0.4-0.5,0.8-1,1c-0.4,0.2-0.8,0.4-1.2,0.5c-0.4,0.1-0.7,0.1-1,0.1
	c-0.4,0-0.8-0.1-1.2-0.2c-0.3-0.1-0.6-0.3-0.8-0.5c-0.2-0.2-0.3-0.5-0.3-0.8c0-0.2,0.1-0.5,0.2-0.7c0.2-0.2,0.4-0.3,0.7-0.3
	c0.2,0,0.3,0,0.4,0.1c0.1,0.1,0.2,0.2,0.3,0.3c0.1,0.1,0.1,0.2,0.1,0.4c0,0.1,0,0.2,0,0.3c0,0.1-0.1,0.2-0.1,0.2
	c0,0.3,0.2,0.4,0.7,0.4c0.3,0,0.6-0.1,0.8-0.2c0.2-0.1,0.3-0.3,0.4-0.5c0.1-0.2,0.1-0.4,0.2-0.7c0-0.3,0-0.6,0-1v-7.7
	c0-0.3,0-0.5-0.1-0.7c-0.1-0.2-0.2-0.3-0.4-0.3c-0.2-0.1-0.5-0.1-0.9-0.1v-0.6h4.8V1096.1z"/>
<path class="st0" d="M-195.3,1096.1c-0.4,0-0.7,0-0.9,0.1c-0.2,0.1-0.3,0.2-0.3,0.4c0,0.2-0.1,0.4-0.1,0.8v3.4c0,0.6,0,1.1-0.1,1.4
	c0,0.3-0.2,0.6-0.3,1c-0.3,0.6-0.8,1.1-1.4,1.3c-0.6,0.2-1.2,0.4-1.8,0.4c-0.4,0-0.9-0.1-1.3-0.2c-0.4-0.1-0.9-0.3-1.3-0.5
	c-0.4-0.3-0.7-0.6-0.9-1c-0.1-0.2-0.2-0.5-0.3-0.7c-0.1-0.2-0.1-0.4-0.1-0.6c0-0.2,0-0.5,0-0.8l0-3.9c0-0.4-0.1-0.7-0.2-0.8
	c-0.2-0.2-0.5-0.2-1.1-0.2v-0.6h4.7v0.6c-0.4,0-0.7,0-0.9,0.1c-0.2,0.1-0.3,0.2-0.4,0.3c-0.1,0.1-0.1,0.4-0.1,0.6v3.9
	c0,0.4,0,0.7,0.1,1c0,0.3,0.1,0.6,0.2,0.8c0.2,0.4,0.4,0.7,0.8,0.9c0.4,0.2,0.8,0.3,1.2,0.3c0.5,0,0.9-0.1,1.3-0.4
	c0.4-0.2,0.7-0.5,0.9-0.9c0.1-0.3,0.2-0.6,0.2-0.9c0-0.3,0.1-0.7,0.1-1.1v-3.3c0-0.3,0-0.5,0-0.7c0-0.1-0.1-0.3-0.2-0.4
	c-0.1-0.1-0.2-0.2-0.4-0.2c-0.2-0.1-0.4-0.1-0.8-0.1v-0.6h3.4V1096.1z"/>
<path class="st0" d="M-184.7,1104.7h-2.5c-0.1-0.1-0.2-0.2-0.3-0.4c-0.1-0.2-0.3-0.4-0.4-0.7c-0.2-0.3-0.3-0.5-0.4-0.6l-0.6-1
	c-0.3-0.5-0.5-0.8-0.6-1c-0.1-0.2-0.3-0.3-0.5-0.3c-0.2,0-0.5-0.1-0.9-0.1h-0.3v2.4c0,0.3,0,0.5,0.1,0.6c0.1,0.2,0.2,0.3,0.4,0.4
	c0.2,0.1,0.5,0.1,0.9,0.1v0.6h-4.6v-0.6c0.6,0,0.9-0.1,1.1-0.2c0.2-0.2,0.2-0.4,0.2-0.8v-5.8c0-0.4-0.1-0.7-0.2-0.8
	c-0.2-0.2-0.5-0.2-1.1-0.2v-0.6l2.1-0.1c0.2,0,0.4,0,0.6,0c0.2,0,0.4,0,0.6,0c0.1,0,0.4,0,0.7,0c0.5,0,0.9,0,1.3,0.1
	c0.4,0,0.7,0.1,0.9,0.2c0.3,0.1,0.7,0.2,1,0.4c0.3,0.2,0.6,0.5,0.7,0.8c0.2,0.3,0.3,0.7,0.3,1.1c0,0.3-0.1,0.6-0.2,0.9
	c-0.1,0.3-0.4,0.6-0.6,0.8c-0.3,0.2-0.7,0.4-1.2,0.5c0.3,0.2,0.6,0.4,0.8,0.7c0.2,0.3,0.6,0.8,1.1,1.6c0.3,0.4,0.5,0.8,0.7,1
	c0.2,0.2,0.4,0.4,0.5,0.5c0.2,0.1,0.4,0.1,0.6,0.2V1104.7z M-188.5,1097.9c0-0.7-0.2-1.2-0.7-1.5c-0.4-0.2-1-0.4-1.8-0.4
	c-0.1,0-0.2,0-0.2,0c-0.1,0-0.1,0-0.2,0v3.7h0.4c0.7,0,1.3-0.1,1.7-0.3C-188.8,1099.3-188.5,1098.8-188.5,1097.9"/>
<path class="st0" d="M-179.7,1104.7h-4.7v-0.6c0.4,0,0.7,0,0.9-0.1c0.2-0.1,0.3-0.2,0.4-0.3c0.1-0.2,0.1-0.4,0.1-0.6v-5.8
	c0-0.4-0.1-0.7-0.2-0.8c-0.2-0.2-0.5-0.2-1.1-0.2v-0.6h4.7v0.6c-0.4,0-0.7,0-0.9,0.1c-0.2,0.1-0.3,0.2-0.4,0.3
	c-0.1,0.1-0.1,0.4-0.1,0.6v5.8c0,0.3,0,0.5,0.1,0.6c0.1,0.2,0.2,0.3,0.4,0.3c0.2,0.1,0.5,0.1,0.9,0.1V1104.7z M-180.6,1092.4l-2,2.3
	h-0.5l0.7-2.3H-180.6z"/>
<path class="st0" d="M-169.3,1100.2c0,0.7-0.1,1.3-0.3,1.8c-0.2,0.5-0.5,1-0.9,1.3c-0.4,0.4-0.7,0.6-1.2,0.8
	c-0.9,0.4-1.9,0.6-3.2,0.6h-4.2v-0.6c0.4,0,0.7,0,0.9-0.1c0.2-0.1,0.3-0.2,0.4-0.3c0.1-0.1,0.1-0.4,0.1-0.6v-5.8
	c0-0.4-0.1-0.7-0.2-0.8c-0.2-0.2-0.5-0.2-1.1-0.2v-0.6l2,0c0.1,0,0.3,0,0.8,0c0.5,0,0.8,0,0.8,0c0.8,0,1.4,0,1.9,0.1
	c0.5,0.1,1,0.2,1.5,0.4c0.4,0.2,0.8,0.4,1.1,0.7c0.3,0.3,0.6,0.6,0.9,1c0.2,0.4,0.4,0.8,0.5,1.2
	C-169.4,1099.2-169.3,1099.7-169.3,1100.2 M-171.6,1100.1c0-1-0.2-1.8-0.5-2.4c-0.4-0.6-0.9-1.1-1.5-1.3c-0.3-0.1-0.6-0.2-0.9-0.2
	c-0.3,0-0.7,0-1.3,0v6.5c0,0.4,0,0.6,0.1,0.8c0,0.2,0.1,0.3,0.3,0.4c0.2,0.1,0.5,0.1,0.8,0.1c1.1,0,1.9-0.4,2.3-1.2
	C-171.8,1102-171.6,1101.1-171.6,1100.1"/>
<path class="st0" d="M-163.7,1104.7h-4.7v-0.6c0.4,0,0.7,0,0.9-0.1c0.2-0.1,0.3-0.2,0.4-0.3c0.1-0.2,0.1-0.4,0.1-0.6v-5.8
	c0-0.4-0.1-0.7-0.2-0.8c-0.2-0.2-0.5-0.2-1.1-0.2v-0.6h4.7v0.6c-0.4,0-0.7,0-0.9,0.1c-0.2,0.1-0.3,0.2-0.4,0.3
	c-0.1,0.1-0.1,0.4-0.1,0.6v5.8c0,0.3,0,0.5,0.1,0.6c0.1,0.2,0.2,0.3,0.4,0.3c0.2,0.1,0.5,0.1,0.9,0.1V1104.7z"/>
<path class="st0" d="M-154,1104.6h-0.6c-0.1-0.4-0.3-0.7-0.5-1c-0.3,0.4-0.7,0.7-1.2,0.9c-0.4,0.3-1,0.4-1.8,0.4
	c-0.8,0-1.6-0.2-2.3-0.6c-0.7-0.4-1.3-1-1.7-1.7c-0.4-0.7-0.6-1.5-0.6-2.5c0-0.6,0.1-1.3,0.3-1.8c0.2-0.6,0.6-1.1,1-1.5
	c0.4-0.4,0.9-0.8,1.5-1.1c0.6-0.3,1.2-0.4,1.9-0.4c1.2,0,2.1,0.4,2.9,1.1c0.1-0.2,0.2-0.5,0.3-0.9h0.6l0.1,3.4h-0.7
	c-0.1-0.6-0.3-1.1-0.6-1.5c-0.3-0.5-0.7-0.8-1.1-1c-0.4-0.2-0.9-0.4-1.3-0.4c-0.5,0-1,0.1-1.4,0.4c-0.4,0.3-0.7,0.7-1,1.3
	c-0.2,0.6-0.3,1.3-0.3,2.2c0,0.8,0.1,1.5,0.3,2.1c0.2,0.6,0.4,1,0.7,1.3c0.3,0.3,0.6,0.5,0.9,0.6c0.3,0.1,0.6,0.2,0.8,0.2
	c0.6,0,1.1-0.1,1.5-0.4c0.4-0.3,0.8-0.7,1.1-1.1c0.3-0.5,0.5-0.9,0.6-1.4h0.7V1104.6z"/>
<path class="st0" d="M-142.1,1100.1c0,0.8-0.2,1.6-0.6,2.4c-0.4,0.7-1,1.3-1.8,1.8c-0.8,0.4-1.7,0.7-2.8,0.7c-0.9,0-1.6-0.1-2.3-0.4
	c-0.7-0.3-1.2-0.7-1.6-1.1c-0.4-0.5-0.7-1-0.9-1.6c-0.2-0.6-0.3-1.1-0.3-1.7c0-0.8,0.2-1.6,0.6-2.3c0.4-0.7,1-1.3,1.7-1.8
	c0.8-0.4,1.7-0.7,2.8-0.7c1,0,1.8,0.2,2.5,0.5c0.7,0.3,1.2,0.7,1.6,1.2c0.4,0.5,0.7,1,0.8,1.5
	C-142.2,1099.1-142.1,1099.6-142.1,1100.1 M-144.3,1100.1c0-0.5,0-1-0.1-1.5c-0.1-0.5-0.2-0.9-0.5-1.3c-0.2-0.4-0.5-0.7-0.9-0.9
	c-0.4-0.2-0.9-0.3-1.4-0.3c-0.8,0-1.4,0.2-1.8,0.6c-0.4,0.4-0.7,0.9-0.9,1.5c-0.2,0.6-0.2,1.2-0.2,1.9c0,0.4,0,0.8,0.1,1.2
	c0.1,0.4,0.2,0.8,0.4,1.3c0.2,0.4,0.5,0.8,0.9,1.1c0.4,0.3,1,0.4,1.6,0.4c0.7,0,1.2-0.2,1.6-0.5c0.4-0.3,0.7-0.7,0.9-1.1
	c0.2-0.4,0.3-0.9,0.4-1.3C-144.3,1100.8-144.3,1100.4-144.3,1100.1"/>
</svg>
