<?xml version="1.0" encoding="utf-8"?>
<!-- Generator: Adobe Illustrator 19.0.0, SVG Export Plug-In . SVG Version: 6.00 Build 0)  -->
<svg version="1.1" id="Capa_1" xmlns="http://www.w3.org/2000/svg" xmlns:xlink="http://www.w3.org/1999/xlink" x="0px" y="0px"
	 viewBox="-19 21.2 459.8 459.8" style="enable-background:new -19 21.2 459.8 459.8;" xml:space="preserve">
<style type="text/css">
	.st0{fill:#424242;}
</style>
<g>
	<path class="st0" d="M262.1,89.8c10.2-0.8,25.7-9.8,25.7-26.1c0-8-4.6-15.3-9.4-16.8c-1.7-0.5-2.9-2-3.4-3.8
		c-0.7-2.9-3-5.1-5.7-5.9c-1.3-0.4-3.3-1.3-4.4-2.1c-2.3-1.7-4.3-2.9-7.4-2.9c-2.7,0-4.8,0.9-7.1,2.4c-1.7,1.1-3.5,2-5.4,2.5
		c-3.6,0.8-5.8,3.3-6.8,5.6c-0.4,0.8-1,1.4-1.8,1.7c-4.1,1.8-12,6.4-12,6.4c-3,2-4,3-4,4c0,2,3,4.1,3,5c0,1-4,0.7-4,2
		c2.2,1.9,3,3,2.7,5c-0.7,4.1-10.7,7.4-10.7,12.1c0,3,6,4,10.1,4c4,0,6,2,13.1,2l-4.9,13.7c-1.4,0.3-2.7,0.7-4,1.3
		c-0.2,0.1-0.5,0.1-0.7,0.2c-0.3,0.1-0.5,0.3-0.7,0.5c-6.9,3.9-11.9,12-13.3,18.5c-1.8,3.9-13.3,14-21.7,19.9
		c0.2,0.3,0.4,0.7,0.6,1.1c-0.6-1.7-2.2-2.8-4-2.9c-0.3,0-0.7,0-1,0c-2.9,0-5.7,0.5-8.9,1.3c-0.3,0-0.6-0.1-1-0.1
		c-0.8,0-1.5,0.1-2.3,0.3c-1.4,0.4-2.4,1.1-3.2,1.7c-0.2,0.1-0.4,0.3-0.5,0.3c-0.1,0-0.3,0.1-0.6,0.1c-0.9,0.2-2.1,0.6-3.3,1.3
		c-1.2,0.7-1.9,1.8-2.5,2.5c-0.2,0.2-0.3,0.4-0.5,0.6c-0.1,0.1-0.3,0.2-0.5,0.3c-0.7,0.4-1.8,1-2.7,2c-0.8,0.8-1.2,1.6-1.5,2.3
		c-0.1,0.1-0.1,0.2-0.2,0.3c-1.7,1.6-3.2,3.2-3.2,6.1c0,2.3,0.6,5.1,1.4,6.6c0.9,1.6,3.9,6.6,7.9,6.6c0.5,0,1-0.1,1.5-0.2
		c1.7,1.8,4.1,3.8,6.7,3.8c0.1,0,0.2-0.1,0.4-0.1c0.6,1,1.1,1.9,1.6,2.6c2.3,3.3,4.4,4.9,6.5,4.9c0.1,0,0.2,0,0.3,0
		c0.3,0,0.6-0.1,0.8-0.2l8.7-3.7l-4.7,2c-1.9,8.3-6.3,22.4-8.3,27.6c-2.6,6.8-1.6,13.4,3.3,17.2c-3,3-4.9,8.9-4.9,13.9
		c0,10.5,2.9,13.5,2.9,21.7c0,13.1-2.8,28.9-2.8,43c0,15.1,3.8,28.2,3.8,40.3c0,13.6,7.4,19.8,10,34.2c1.6,8.8,0.4,28.6-2.7,35.3
		c-1.3,2.7,3.6,3.5,6.7,3.5l0.1,25.3c0,8.5-10.1,17.3-24.4,17.3c-2.1,0-6.6,0.1-6.8,3.7c-0.1,2.7,0.8,4.6,2.2,5.2
		c4.4,1.7,7.3,3.6,21.9,3.6c9.6,0,11.4-5.9,17.5-5.9c0.9,0,1.6,0.7,1.6,1.6v3.5l15.3-0.1c1.2-3.7,1.9-7,1.9-12.2
		c0-0.8-0.1-1.6-0.2-2.4c0,0,0,0,0,0c0,0,0,0,0-0.1c-0.4-4-1.5-7.6-1.5-11.8l0.2-28.6c0,0,0.1,0,0.1,0c0,0,0.1,0,0.1,0
		c1.5-0.3,5.8-0.4,5.8-2c0.1-2.3-2-12-2-17c0.1-5.9,0.4-8.8,0.4-13.2c0-21.2-6-32.8-6-42.7c0-13.1,3-33,3-45.1
		c0-12.2,8.6-30.2,8.6-43c0-9.1-2.4-15.3-5.7-19.4c2,0,6.3-1,9.2-3.3c0,0,0,0,0,0l0,0c1.5-1.3,2.7-2.9,2.7-5c0-7-3.2-11.4-2.4-21.9
		c2.4-33.5,30.3-36.8,33.6-74c0.8-9.5-2.6-22.6-7.6-27.6v-8.5C260.6,90.5,261.3,89.8,262.1,89.8z M173.2,162.9
		c-0.6-0.9-2-3.2-2.9-4.7c-0.9-1.6-2.1-4.4-2.9-4.4c0,0-0.1,0-0.1,0c-0.8,0.3-0.4,1.6,0.4,3.3c0.7,1.7,2,4.4,2.5,5.2
		c2.1,3.1,3.3,5.3,1.7,6.2c-0.1,0.1-0.2,0.1-0.3,0.1c-1.6,0-4.8-3.9-5.1-4.5c-0.6-1-2.3-3.6-2.8-4.9c-0.3-0.6-1.3-2.9-1.8-2.9
		c0,0,0,0-0.1,0c-0.6,0.2-0.1,1.9,0.4,3.3c1.4,2.9,2.3,4.7,1.5,5.3c-0.1,0.1-0.2,0.1-0.3,0.1c-1.3,0-3.7-3.8-4-4.2
		c-0.4-0.9-0.9-2.8-0.9-4.6c0-1,0.2-1.5,1.9-3c0.7-0.7,1-1.9,1.8-2.6c0.9-0.9,2-1.2,2.9-1.9c1-0.8,1.6-2.2,2.4-2.7
		c1.2-0.7,2.7-0.9,3.6-1.3c0.9-0.4,1.8-1.4,2.9-1.7c0.4-0.1,0.8-0.2,1.1-0.2c0.4,0,0.8,0.1,1.2,0.1c0.1,0,0.3,0,0.4-0.1
		c3.5-0.9,5.9-1.3,8.2-1.3c0.3,0,0.5,0,0.8,0c-1.9,1.7-4.6,2.1-5.9,2.6c-0.2,0.4-0.6,0.9-1.2,1.5c0.8,1.5,1.1,2.3,1.6,3.5
		c0.6,1.2,1.5,4.3,2,5.3c3.1,5,3.7,7.2,2.1,8.2c-0.1,0.1-0.2,0.1-0.4,0.1c-1.7,0-5.2-4.9-5.9-6.1c-0.8-1.5-1.4-2.4-2.4-4.2
		c-0.3-0.5-1.2-1.6-1.8-1.6c-0.1,0-0.1,0-0.2,0c-0.8,0.4-0.1,1.8,0.7,3.5c0.8,1.5,2,4.5,3,6.5c2.4,4.3,3.1,5.7,1.6,6.6
		c-0.2,0.1-0.3,0.1-0.5,0.1C176.7,167.7,174.1,164.4,173.2,162.9z M179.8,175.3c-0.8-0.5-1.8-1.7-2.8-3.3c0.4,0.1,0.9,0.2,1.3,0.2
		c1,0,2-0.3,2.8-0.8c1.9-1.2,2.8-2.6,2.9-4.2c0.9,0,1.7-0.3,2.5-0.8c0.6-0.4,1.1-0.8,1.5-1.3c0.6,0.9,1.1,1.8,1.7,2.8
		c0.6,0.9,1.1,1.8,1.6,2.5L179.8,175.3z M181.4,207.9c0.1-0.3,7.7-20.4,9-31.7l5.5-2.3c0.6-0.3,1.1-0.8,1.4-1.5s0.2-1.4-0.1-2
		c-0.1-0.1-0.2-0.4-0.3-0.6c28-10.6,54.5-30.9,52.3-48.6c-0.2-1.4-1.4-2.4-2.8-2.2c-1.4,0.2-2.4,1.4-2.2,2.8
		c0.3,2.4-0.2,5.1-1.4,7.8l-2-3.2c-0.6-1-1.8-1.2-2.8-0.6c-0.9,0.6-1.2,1.8-0.6,2.8l3.2,5.1c-0.9,1.4-2,2.8-3.2,4.2l-3.5-5.6
		c-0.6-0.9-1.8-1.2-2.8-0.6c-0.9,0.6-1.2,1.8-0.6,2.8l4.1,6.5c-1.1,1.1-2.3,2.3-3.6,3.4l-6.6-10.6c-0.6-0.9-1.8-1.2-2.8-0.6
		c-0.9,0.6-1.2,1.8-0.6,2.8l6.9,11c-1.3,1-2.6,2-3.9,3l-5-8c-0.6-0.9-1.8-1.2-2.8-0.6c-0.9,0.6-1.2,1.8-0.6,2.8l5.1,8.2
		c-1.3,0.9-2.7,1.8-4.1,2.6l-4.5-7.2c-0.6-0.9-1.8-1.2-2.8-0.6c-0.9,0.6-1.2,1.8-0.6,2.8l4.4,7.1c-1.5,0.8-3.1,1.7-4.7,2.5
		c0-0.3,0-0.7-0.2-1l-3.8-6.2c-0.6-0.9-1.8-1.2-2.8-0.6c-0.9,0.6-1.2,1.8-0.6,2.8l3.8,6.2c0.1,0.2,0.3,0.3,0.4,0.4
		c-1.6,0.8-3.3,1.5-5,2.2c0-0.3,0-0.6-0.1-0.9l-4.4-7.1c-0.6-1-1.8-1.2-2.8-0.6c-0.9,0.6-1.2,1.8-0.6,2.8l4.4,7.1
		c0,0.1,0.1,0.1,0.2,0.2c-0.8,0.3-1.7,0.6-2.5,0.9c-0.1-0.1-0.1-0.2-0.2-0.3c-1.9-3.1-5.9-9.4-8.6-14.3c0-0.1-0.1-0.2-0.1-0.4
		c-0.4-1.2-0.8-2.3-1.2-3.2c0,0,0,0.1,0,0.1c9.4-3.7,28.6-20.6,31.2-26.3l0.2-0.5l0.1-0.6c1.2-5.9,6.2-13,11.9-15.7
		c3.1-1.3,6.4-0.6,8.6,0.3c1.3,0.5,2.8-0.1,3.3-1.4c0.5-1.3-0.1-2.8-1.4-3.3c-1-0.4-2.1-0.7-3.3-1l3.9-10.9l3.8-10.1
		c0.2-0.6-0.4-1.2-1-0.9c0,0-4.9,2.8-6.7,2.8c0,0,0,0,0,0h-0.4c-3.3,0-5.2-0.5-7.1-1c-1.7-0.5-3.6-1-6-1c-1.2,0-2.3-0.1-3.2-0.3
		c0.6-0.5,1.3-1,1.8-1.4c3-2.2,6.4-4.7,7.1-8.6c0.3-1.6,0.1-2.9-0.2-4.1c1.3-1.2,1.6-2.6,1.6-3.8c0-2-1-3.3-1.9-4.4
		c0.1-0.1,0.3-0.2,0.4-0.3c2.1-1.3,8.4-4.8,11.5-6.1c1.9-0.8,3.4-2.3,4.3-4.2c0.4-0.8,1.4-2.3,3.3-2.8c2.4-0.5,4.7-1.6,7.2-3.2
		c1.7-1.1,2.8-1.5,4.3-1.5c1.4,0,2.3,0.4,4.4,1.9c1.8,1.3,4.3,2.5,6,2.9c1.1,0.3,2,1.2,2.3,2.3c0.9,3.6,3.4,6.3,6.8,7.4
		c2.3,0.7,5.7,5.8,5.8,11.8l-8.2-6.4c-0.9-0.7-2.1-0.5-2.8,0.3c-0.7,0.9-0.5,2.1,0.3,2.8l9.4,7.4c0.2,0.2,0.5,0.2,0.7,0.3
		c-0.3,1.5-0.8,2.8-1.5,4.1l-8.2-6.5c-0.9-0.7-2.1-0.5-2.8,0.3c-0.7,0.9-0.5,2.1,0.3,2.8l8.5,6.7c-0.8,1-1.7,2-2.6,2.8l-7.9-6.2
		c-0.9-0.7-2.1-0.5-2.8,0.3s-0.5,2.1,0.3,2.8l7.1,5.6c-1.2,0.8-2.4,1.4-3.7,2l-7.3-5.8c-0.9-0.7-2.1-0.5-2.8,0.3
		c-0.7,0.9-0.5,2.1,0.3,2.8l5.3,4.2c-1,0.2-2,0.4-2.8,0.5c-0.7,0.1-1.4,0.3-2.1,0.6l-2.4-1.9c-0.9-0.7-2.1-0.5-2.8,0.3
		c-0.7,0.9-0.5,2.1,0.3,2.8l1.9,1.5c-0.6,1-1,2.1-1,3.3v0.2h-4.1c-1.1,0-2,0.9-2,2c0,1.1,0.9,2,2,2h4.1v4.3v0.2h-5.5
		c-1.1,0-2,0.9-2,2c0,1.1,0.9,2,2,2h7.4c0.9,1.1,1.7,2.6,2.5,4.4h-3.2c-1.1,0-2,0.9-2,2s0.9,2,2,2h4.6c0,0,0,0,0,0
		c0.4,1.4,0.8,2.9,1.1,4.5h-3.9c-1.1,0-2,0.9-2,2c0,1.1,0.9,2,2,2h4.4c0.1,1.5,0.2,3,0.1,4.5h-5.7c-1.1,0-2,0.9-2,2c0,1.1,0.9,2,2,2
		h5.3c-0.2,1.5-0.4,3.1-0.7,4.5h-7.8c-1.1,0-2,0.9-2,2c0,1.1,0.9,2,2,2h6.8c-0.4,1.6-0.9,3-1.5,4.4h-9.9c-1.1,0-2,0.9-2,2
		c0,1.1,0.9,2,2,2h8.2c-0.7,1.6-1.5,3-2.4,4.5h-11.4c-1.1,0-2,0.9-2,2c0,1.1,0.9,2,2,2h8.8c-1.1,1.5-2.1,3-3.3,4.5h-12.1
		c-1.1,0-2,0.9-2,2c0,1.1,0.9,2,2,2h8.9c-1.2,1.5-2.3,3-3.5,4.5h-12c-1.1,0-2,0.9-2,2s0.9,2,2,2h9.1c-1,1.4-1.9,2.9-2.9,4.5h-13.3
		c-1.1,0-2,0.9-2,2c0,1.1,0.9,2,2,2h11.1c-0.7,1.4-1.4,2.9-2,4.5h-16.1c-1.1,0-2,0.9-2,2s0.9,2,2,2h14.7c-0.4,1.4-0.7,2.9-1,4.5
		h-19.6c-1.1,0-2,0.9-2,2s0.9,2,2,2h18.9c-0.2,1.2-0.4,2.4-0.5,3.7c0,0.3,0,0.5,0,0.7H208c-1.1,0-2,0.9-2,2s0.9,2,2,2h21.5
		c0,1.6,0.2,3.1,0.4,4.5h-24.3c-1.1,0-2,0.9-2,2s0.9,2,2,2h24.9c0.1,0.7,0.3,1.4,0.4,2c0.2,0.8,0.3,1.6,0.5,2.4h-27.1
		c-1.1,0-2,0.9-2,2c0,1.1,0.9,2,2,2H232c0,0.2,0,0.3,0,0.5c0,0.2-0.1,0.3-0.2,0.5c-16.8,4.6-37.2,3.1-47.2-3.3l-1.6-1.2
		C180.2,217,179.5,212.8,181.4,207.9z M215.9,417.5h-7.5c-1.1,0-2,0.9-2,2s0.9,2,2,2h7.5l0,3h-7.4c-1.1,0-2,0.9-2,2c0,1.1,0.9,2,2,2
		h7.4l0,3h-7.4c-1.1,0-2,0.9-2,2c0,1.1,0.9,2,2,2h7.4l0,3h-7.3c-1.1,0-2,0.9-2,2s0.9,2,2,2h7.3l0,0.2c0,1,0.1,1.9,0.2,2.8H207
		c-1.1,0-2,0.9-2,2c0,1.1,0.9,2,2,2h9.4c0.1,0.4,0.1,0.8,0.2,1.1c0.1,0.6,0.2,1.2,0.3,1.9h-12.7c-1.1,0-2,0.9-2,2s0.9,2,2,2h13.1
		c0,0.1,0,0.3,0,0.4c0,3-0.2,5.2-0.7,7.2l-6.6,0.1c-0.7-2.9-3.3-5.1-6.5-5.1c-4.2,0-7,1.8-9.3,3.2c-2.4,1.5-4.3,2.7-8.2,2.7
		c-11.2,0-14.6-1.1-17.8-2.3c0.2,0,0.3,0,0.5,0c17.6,0,29.4-11.5,29.4-22.3l-0.1-25.3l0-0.2c2.6,0.2,5.4,0.3,8.3,0.3
		c3.2,0,6.4-0.2,9.5-0.4L215.9,417.5z M221.4,234.9c0.3,0.4,0.5,0.8,0.8,1.2h-17.8c-1.1,0-2,0.9-2,2s0.9,2,2,2h19.3
		c0.2,0,0.3-0.1,0.4-0.2c0.5,1.2,0.8,2.6,1.1,4H209c-1.1,0-2,0.9-2,2s0.9,2,2,2h16.8c0.1,1,0.2,2,0.2,3.1c0,0.2-0.1,0.5-0.1,0.8H211
		c-1.1,0-2,0.9-2,2s0.9,2,2,2h14.6c-0.2,1.2-0.4,2.5-0.7,3.9H211c-1.1,0-2,0.9-2,2c0,1.1,0.9,2,2,2h12.9c-0.3,1.3-0.7,2.7-1.1,4.1
		c-0.2,0-0.3-0.2-0.5-0.2H211c-1.1,0-2,0.9-2,2c0,1.1,0.9,2,2,2h10.8c0,0,0,0,0,0.1c-0.4,1.3-0.7,2.5-1.1,3.8h-10.3
		c-1.1,0-2,0.9-2,2c0,1.1,0.9,2,2,2h9.2c-0.3,1.3-0.7,2.6-0.9,3.9H210c-1.1,0-2,0.9-2,2c0,1.1,0.9,2,2,2h8c-0.2,1.3-0.3,2.6-0.4,3.9
		H209c-1.1,0-2,0.9-2,2s0.9,2,2,2h8.3c0,1.2-0.1,2.5-0.1,3.9c0,0,0,0,0,0h-9c-1.1,0-2,0.9-2,2c0,1.1,0.9,2,2,2h8.8
		c-0.1,1.2-0.2,2.6-0.3,3.9h-9.6c-1.1,0-2,0.9-2,2c0,1.1,0.9,2,2,2h9.2c-0.1,1.3-0.2,2.5-0.4,3.9h-10.3c-1.1,0-2,0.9-2,2
		c0,1.1,0.9,2,2,2h9.9c-0.1,1.3-0.2,2.6-0.3,3.9c0,0,0,0,0,0h-10.8c-1.1,0-2,0.9-2,2c0,1.1,0.9,2,2,2h10.5c-0.1,1.3-0.2,2.6-0.3,3.9
		h-11.5c-1.1,0-2,0.9-2,2c0,1.1,0.9,2,2,2h11.2c-0.1,1.3-0.1,2.6-0.1,3.9h-12c-1.1,0-2,0.9-2,2c0,1.1,0.9,2,2,2h12.2
		c0.1,1.3,0.3,2.5,0.6,3.9h-13.2c-1.1,0-2,0.9-2,2c0,1.1,0.9,2,2,2h14c0.2,1,0.5,2,0.7,3.1c0.1,0.2,0.1,0.5,0.2,0.7h-12.4
		c-1.1,0-2,0.9-2,2c0,1.1,0.9,2,2,2h13.3c0.3,1.2,0.5,2.5,0.8,3.9h-11.7c-1.1,0-2,0.9-2,2c0,1.1,0.9,2,2,2h12.4
		c0.2,1.2,0.3,2.6,0.5,3.9h-11.1c-1.1,0-2,0.9-2,2c0,1.1,0.9,2,2,2h11.4c0.1,0,0.1-0.1,0.1-0.1c0.1,1.2,0.1,2.6,0.2,3.9h-10.1
		c-1.1,0-2,0.9-2,2c0,1.1,0.9,2,2,2h10.3c0,1.4,0,2.6-0.1,3.9h-10.4c-1.1,0-2,0.9-2,2c0,1.1,0.9,2,2,2h10.2c0,1.1-0.1,2.4-0.1,3.9
		h-10.6c-1.1,0-2,0.9-2,2c0,1.1,0.9,2,2,2h10.7c0.1,1.2,0.3,2.5,0.4,3.9h-12c-1.1,0-2,0.9-2,2c0,1.1,0.9,2,2,2h12.3
		c0.1,0,0.2-0.1,0.3-0.1c0.1,0.4,0.1,0.8,0.2,1.2c0.1,0.6,0.2,1.3,0.3,2c-8.1,1.8-23.2,1.7-29.1,0.1c2.3-9.6,3-25.5,1.5-33.5
		c-1.3-6.9-3.5-12.1-5.5-16.7c-2.4-5.4-4.4-10.1-4.4-16.6c0-6.1-0.9-12.2-1.8-18.6c-1-6.9-2-14-2-21.7c0-6.9,0.7-14.5,1.4-21.8
		c0.3-2.8,0.5-5.6,0.7-8.4l0,0.2l1.6-12l-0.1-0.2l-1.4-6.3c-0.3-1.8-0.7-3.5-1-5.1c-0.8-3.2-1.5-6.1-1.5-11.1
		c0-3.9,1.5-8.4,3.4-10.4l0.7-0.7c6.9,3.5,16.6,5.4,26.9,5.4c2.4,0,4.8-0.1,7.2-0.3L221.4,234.9z"/>
	<path class="st0" d="M259,70.8c1.5-1.4,2.4-3.3,2.5-5.3c0.1-2.1-0.6-4-2-5.6l-3,2.7c0.7,0.7,1,1.7,1,2.7c0,1-0.5,1.9-1.2,2.5
		c-1.5,1.4-3.8,1.2-5.2-0.3l-3,2.7c1.5,1.7,3.6,2.5,5.7,2.5C255.7,72.8,257.5,72.2,259,70.8z"/>
</g>
</svg>
