<?xml version="1.0" encoding="utf-8"?>
<!-- Generator: Adobe Illustrator 19.0.0, SVG Export Plug-In . SVG Version: 6.00 Build 0)  -->
<svg version="1.1" id="Capa_1" xmlns="http://www.w3.org/2000/svg" xmlns:xlink="http://www.w3.org/1999/xlink" x="0px" y="0px" width="64px" height="100px"
	 viewBox="-507.5 1200.4 64.2 100" style="enable-background:new -507.5 1200.4 64.2 100;" xml:space="preserve">
<style type="text/css">
	.st0{fill:#FCFFFC;}
	.st1{fill:#040F0F;}
</style>
<path class="st0" d="M-472.2,1213.2c2-0.2,4.8-1.6,4.8-4.8c0-1.5-0.6-2.7-1.5-3.1c-0.4-0.1-0.9-0.6-0.9-1c-0.1-0.6-0.4-0.9-1-1
	c-0.3-0.1-0.6-0.2-0.9-0.4c-0.4-0.3-0.7-0.6-1.3-0.6c-0.5,0-0.8,0-1.3,0.3c-0.4,0.2-0.7,0.6-1.1,0.7c-0.7,0.2-1,0.5-1.2,0.9
	c-0.1,0.2-0.4,0.4-0.5,0.4c-0.8,0.3-2.4,1.4-2.4,1.4c-0.6,0.4-0.7,0.4-0.7,0.6c0,0.4,0.5,0.9,0.5,1c0,0.2-0.7,0.1-0.7,0.4
	c0.4,0.4,0.5,0.6,0.4,1c-0.1,0.8-2.1,1.4-2.1,2.3c0,0.6,0.9,0.6,1.7,0.6c0.8,0,1.3,0.4,2.7,0.4l-1.1,3c-0.4,0.1-1,0.6-1,0.6
	c-1.2,0.7-1.9,1.8-2.1,2.8c-0.4,0.8-3.1,3.3-4.8,4.5c-0.2-0.2-0.9-0.3-1-0.3c-0.6,0-1.8,0.1-1.9,0.1c-0.2,0-1.2,0.5-1.2,0.5
	c0,0-0.8,1.2-1,1c-0.1,0.1-0.5,0.1-0.7,0.3c-0.1,0.2-0.4,0.6-0.4,0.7c0,0-0.5,0.3-0.5,0.8c0,0.5,0.2,0.9,0.3,1.2
	c0.2,0.3-0.1,0.9,0.7,0.9c0.1,0,0.7,0,0.8,0c0.3,0.4,1.1,1,1.1,1c0.5-0.3,0.8,0.4,0.9,0.5c0.5,0.7,0.4,1,0.8,1c0,0,0.4-0.1,0.4-0.1
	l2-0.7c0,0.4-0.2,1.5-0.4,2.2c-0.6,2.2-1.5,2.5-2.1,3.9c-0.5,1.3-0.3,1.9,0.6,2.7c0,0,0,0.5,0.1,0.5c-0.6,0.6-1,2-1,3
	c0,2.1,0.7,2.5,0.7,4.1c0,2.6-0.5,5.7-0.5,8.5c0,3,0.8,5.6,0.8,8c0,2.7,1.4,3.8,1.9,6.7c0.3,1.7,0.1,5.6-0.5,6.9
	c-0.3,0.5,1.3,0.2,1.9,0.2s0.3,2.7,0.3,5.1c0,3.2-1.4,4.8-4,5.1c-0.5,0.1-0.8,0-0.8,0.6l2.6-0.2c2.3,0,2.7,0.2,3.7-0.3
	c0.1,0,0.6-0.1,0.7-0.1c0.2,0,0.6,0.1,0.6,0.3l0.1,0.4l1.3-0.2c0.6-2.1,0.4-9.1-0.4-10.8c0.6-2.2,0.7-3.9,0.7-5.3
	c0-4.2-1.7-7.4-1.7-8.9c0-0.3,0.3-3.2,0.5-4.2c0,0,0.6-3.5,0.6-4.7c0-2.4,1.6-5.6,1.6-8.4c0-1.6-0.3-3.1-0.9-4
	c0.6,0,2.3-0.4,2.3-1.6c0-1.4-0.6-2.1-0.4-4.2c0.5-6.6,5.9-7.3,6.5-14.6c0.2-1.9-0.4-4.2-1.4-5.2l0-1.8
	C-472.7,1213.7-472.3,1213.2-472.2,1213.2z"/>
<g>
	<path class="st1" d="M-472.1,1213.4c2-0.2,5-1.9,5-5.1c0-1.5-0.9-2.9-1.7-3.3c-0.4-0.1-0.7-0.4-0.8-0.8c-0.1-0.6-0.7-1.1-1.2-1.2
		c-0.3-0.1-0.6-0.2-0.8-0.4c-0.4-0.3-0.8-0.6-1.4-0.6c-0.5,0-0.9,0.2-1.3,0.4c-0.4,0.2-0.7,0.4-1.1,0.5c-0.7,0.2-1.1,0.7-1.3,1.1
		c-0.1,0.2-0.2,0.3-0.4,0.3c-0.8,0.3-2.4,1.2-2.4,1.2c-0.6,0.4-0.8,0.6-0.8,0.8c0,0.4,0.6,0.8,0.6,1c0,0.2-0.8,0.1-0.8,0.4
		c0.4,0.4,0.6,0.6,0.5,1c-0.1,0.8-2.1,1.4-2.1,2.4c0,0.6,1.2,0.8,2,0.8c0.8,0,1.2,0.4,2.6,0.4l-1,2.7c-0.4,0.1-0.7,0.2-1,0.4l0,0
		c-1.2,0.7-2,2.1-2.3,3.1c-0.4,0.8-2.9,3.1-4.7,4.3c-0.2-0.2-0.4-0.3-0.7-0.3c-0.1,0-0.1,0-0.2,0c-0.6,0-1.1,0.1-1.7,0.3
		c-0.1,0-0.1,0-0.2,0c-0.2,0-0.3,0-0.4,0.1c-0.3,0.1-0.5,0.2-0.6,0.3c0,0-0.1,0.1-0.1,0.1c0,0-0.1,0-0.1,0c-0.2,0-0.4,0.1-0.7,0.3
		c-0.2,0.1-0.4,0.3-0.5,0.5c0,0-0.1,0.1-0.1,0.1c0,0-0.1,0-0.1,0.1c-0.1,0.1-0.3,0.2-0.5,0.4c-0.1,0.2-0.2,0.3-0.3,0.4
		c0,0,0,0,0,0.1c-0.3,0.3-0.6,0.6-0.6,1.2c0,0.5,0.1,1,0.3,1.3c0.2,0.3,0.8,1.3,1.5,1.3c0.1,0,0.2,0,0.3,0c0.3,0.4,0.8,0.8,1.3,0.8
		c0,0,0.1,0,0.1,0c0.1,0.2,0.2,0.4,0.3,0.5c0.5,0.7,0.9,1,1.3,1c0,0,0,0,0.1,0c0.1,0,0.1,0,0.2,0l1.6-0.7c0,0.4-0.1,1-0.3,1.7
		c-0.6,2.2-1.6,2.6-2.1,4.1c-0.5,1.3-0.3,2.2,0.5,2.9l0,0c0,0,0.1,0.1,0.1,0.1c-0.6,0.6-1,2.1-1,3.1c0,2.1,0.6,2.7,0.6,4.3
		c0,2.6-0.6,5.7-0.6,8.5c0,3,0.8,5.5,0.8,7.9c0,2.7,1.5,3.9,2,6.7c0.3,1.7,0.1,5.4-0.5,6.7c-0.3,0.5,1.1,0.7,1.7,0.7
		s0.6,2.4,0.6,4.8c0,3.2-1.9,4.8-4.6,5.1c-0.5,0.1-1,0.5-1,1h2.9c2.3,0,4.2-0.3,5.2-0.7c0.1,0,0.1,0,0.1,0c0.2,0,0.3,0.1,0.3,0.3
		v0.5h1.8c0.6-2.1,0.7-9.6-0.1-11.3c0.6-2.2,0.7-3.9,0.7-5.3c0-4.2-1.8-7.4-1.8-9c0-0.3,0-0.7,0-1c0,0,0-0.1,0-0.2c0,0,0-0.1,0-0.1
		c0.1-0.9,0.2-1.9,0.4-2.9c0,0,0-0.1,0-0.1v0c0.3-1.7,0.5-3.3,0.5-4.6c0-2.4,1.7-5.6,1.7-8.5c0-1.6-0.3-2.9-0.9-3.8
		c0.6,0,2.3-0.5,2.3-1.6c0-1.4-0.6-2.2-0.5-4.3c0.5-6.6,6-7.2,6.6-14.6c0.2-1.9-0.5-4.4-1.5-5.4v-1.7
		C-472.4,1213.6-472.3,1213.5-472.1,1213.4z M-491,1228.1c-0.1-0.2-0.4-0.7-0.6-1c0-0.1-0.2-0.6-0.4-0.6c0,0,0,0,0,0
		c-0.1,0,0,0.4,0.1,0.7c0.3,0.6,0.5,0.9,0.3,1c0,0,0,0-0.1,0c-0.3,0-0.7-0.8-0.8-0.8c-0.1-0.2-0.2-0.6-0.2-0.9c0-0.2,0-0.3,0.4-0.6
		c0.1-0.1,0.2-0.4,0.3-0.5c0.2-0.2,0.4-0.2,0.5-0.4l0,0l0,0c0,0,0.1,0,0.1-0.1c0,0,0,0,0,0c0.1-0.2,0.3-0.4,0.4-0.4
		c0.2-0.1,0.5-0.2,0.7-0.3s0.4-0.3,0.6-0.3c0.1,0,0.2,0,0.2,0c0.1,0,0.2,0,0.2,0c0,0,0.1,0,0.1,0c0.1,0,0.1,0,0.2,0l0,0
		c0,0,0.1,0,0.1,0c0,0,0,0,0.1,0c0,0,0.1,0,0.1,0c0,0,0.1,0,0.1,0s0.1,0,0.1,0c0.1,0,0.1,0,0.2,0l0,0l0,0c0.3,0,0.5-0.1,0.7-0.1
		c0,0,0,0,0.1,0l0,0c0,0,0.1,0,0.1,0c-0.2,0.2-0.4,0.3-0.6,0.3l0,0c-0.2,0.1-0.4,0.1-0.6,0.2c0,0.1-0.1,0.2-0.2,0.3
		c0.2,0.3,0.2,0.5,0.3,0.7c0.1,0.2,0.3,0.8,0.4,1c0.1,0.1,0.1,0.2,0.2,0.3c0,0,0,0,0,0c0.1,0.1,0.1,0.2,0.2,0.3l0,0
		c0,0.1,0.1,0.2,0.1,0.2l0,0c0,0.1,0.1,0.1,0.1,0.2c0.1,0.3,0,0.5-0.1,0.6c0,0,0,0-0.1,0c-0.3,0-1-1-1.1-1.2
		c-0.2-0.3-0.3-0.5-0.5-0.8c-0.1-0.1-0.2-0.3-0.4-0.3c0,0,0,0,0,0c-0.2,0.1,0,0.4,0.1,0.7c0.2,0.3,0.4,0.9,0.6,1.3
		c0.5,0.9,0.6,1.1,0.3,1.3c0,0-0.1,0-0.1,0c-0.3,0-0.8-0.7-1-1c-0.1-0.1-0.2-0.4-0.4-0.6l0,0c0-0.1-0.1-0.1-0.1-0.2c0,0,0,0,0,0
		c0-0.1-0.1-0.1-0.1-0.2c-0.2-0.3-0.4-0.9-0.6-0.9h0c-0.2,0.1-0.1,0.3,0.1,0.7s0.4,0.9,0.5,1c0.4,0.6,0.7,1,0.3,1.2c0,0,0,0-0.1,0
		s0,0-0.1,0h0c0,0,0,0,0,0c0,0,0,0,0,0c0,0,0,0,0,0s0,0,0,0c0,0,0,0,0,0c0,0,0,0,0,0s0,0,0,0c0,0,0,0,0,0l0,0c0,0,0,0-0.1,0
		c0,0,0,0,0,0c0,0,0,0-0.1-0.1C-490.7,1228.4-490.9,1228.1-491,1228.1z M-488.3,1230.2c-0.1-0.1-0.3-0.3-0.5-0.7c0.1,0,0.2,0,0.2,0
		c0.2,0,0.4-0.1,0.6-0.2c0.3-0.2,0.5-0.5,0.6-0.8c0.2,0,0.3-0.1,0.5-0.2c0.1-0.1,0.2-0.2,0.3-0.3c0.1,0.2,0.2,0.4,0.3,0.6
		c0.1,0.2,0.2,0.3,0.3,0.5L-488.3,1230.2z M-486.6,1266.4c-0.5-1.1-0.9-2-0.9-3.3c0-1.2-0.2-2.4-0.4-3.7c-0.2-1.4-0.4-2.8-0.4-4.3
		c0-1.4,0.1-2.9,0.3-4.3c0.1-0.5,0.1-1.1,0.1-1.6l0,0l0.3-2.4v0l0,0l-0.3-1.2c-0.1-0.4-0.1-0.7-0.2-1c-0.1-0.6-0.3-1.2-0.3-2.2
		c0-0.9,0.4-2.1,0.7-2.4l0.1-0.1c1.4,0.8,3.1,1.4,6.1,1.4c0.2,0,0.5,0,0.8,0l0.4,0.6c0.1,0.1,0.1,0.2,0.2,0.3h-2.5
		c-0.2,0-0.4,0.2-0.4,0.4s0.2,0.4,0.4,0.4h2.8c0.1,0.2,0.1,0.5,0.2,0.8h-2.4c-0.2,0-0.4,0.2-0.4,0.4s0.2,0.4,0.4,0.4h2.4
		c0,0.2,0,0.4,0,0.6c0,0.1,0,0.1,0,0.2h-2.4c-0.2,0-0.4,0.2-0.4,0.4c0,0.2,0.2,0.4,0.4,0.4h2.3c0,0.3-0.1,0.5-0.1,0.8h-2.3
		c-0.2,0-0.4,0.2-0.4,0.4s0.2,0.4,0.4,0.4h2.2c-0.1,0.3-0.1,0.5-0.2,0.8h-2.3c-0.2,0-0.4,0.2-0.4,0.4s0.2,0.4,0.4,0.4h2.1
		c0,0.1,0,0.2-0.1,0.2c-0.1,0.2-0.1,0.4-0.2,0.5h-2.8c-0.2,0-0.4,0.2-0.4,0.4c0,0.2,0.2,0.4,0.4,0.4h2.6c-0.1,0.3-0.1,0.5-0.2,0.8
		h-2c-0.2,0-0.4,0.2-0.4,0.4s0.2,0.4,0.4,0.4h1.8c0,0.3-0.1,0.5-0.1,0.8h-1.7c-0.2,0-0.4,0.2-0.4,0.4s0.2,0.4,0.4,0.4h1.7
		c0,0.2,0,0.5,0,0.8h-1.7c-0.2,0-0.4,0.2-0.4,0.4s0.2,0.4,0.4,0.4h1.6c0,0.3-0.1,0.5-0.1,0.8h-1.6c-0.2,0-0.4,0.2-0.4,0.4
		s0.2,0.4,0.4,0.4h1.4c0,0.2-0.1,0.5-0.1,0.7c0,0,0,0,0,0.1h-1.5c-0.2,0-0.4,0.2-0.4,0.4s0.2,0.4,0.4,0.4h1.3c0,0.3-0.1,0.5-0.1,0.8
		h-1.4c-0.2,0-0.4,0.2-0.4,0.4s0.2,0.4,0.4,0.4h1.3c0,0.3-0.1,0.5-0.1,0.8h-1.4c-0.2,0-0.4,0.2-0.4,0.4s0.2,0.4,0.4,0.4h1.3
		c0,0.3,0,0.5,0,0.8h-1.6c-0.2,0-0.4,0.2-0.4,0.4s0.2,0.4,0.4,0.4h1.6c0,0.2,0.1,0.5,0.2,0.8h-2.2c-0.2,0-0.4,0.2-0.4,0.4
		s0.2,0.4,0.4,0.4h2.4c0,0.1,0.1,0.3,0.1,0.4c0,0.1,0.1,0.2,0.1,0.3h-1.8c-0.2,0-0.4,0.2-0.4,0.4s0.2,0.4,0.4,0.4h2
		c0.1,0.3,0.1,0.5,0.2,0.8h-1.7c-0.2,0-0.4,0.2-0.4,0.4s0.2,0.4,0.4,0.4h1.9c0.1,0.3,0.1,0.5,0.2,0.8h-1.8c-0.2,0-0.4,0.2-0.4,0.4
		s0.2,0.4,0.4,0.4h1.9c0,0.3,0.1,0.5,0.1,0.8h-1.9c-0.2,0-0.4,0.2-0.4,0.4c0,0.2,0.2,0.4,0.4,0.4h1.9c0,0.1,0,0.3,0,0.4
		c0,0.1,0,0.2,0,0.4h-1.9c-0.2,0-0.4,0.2-0.4,0.4s0.2,0.4,0.4,0.4h1.9c0,0.2,0,0.5-0.1,0.8h-2c-0.2,0-0.4,0.2-0.4,0.4
		s0.2,0.4,0.4,0.4h1.9c0,0.3-0.1,0.5-0.1,0.8h-2.2c-0.2,0-0.4,0.2-0.4,0.4s0.2,0.4,0.4,0.4h2c0,0.2-0.1,0.3-0.1,0.5
		c-1.1,0.2-3.3,0.2-4.9-0.2c0.5-1.8,0.6-4.9,0.3-6.4C-485.7,1268.3-486.2,1267.2-486.6,1266.4z M-480.8,1287.1
		c-0.2-0.5-0.7-0.8-1.2-0.8c-0.2,0-0.4,0-0.5,0.1c-0.6,0.3-2,0.5-3.7,0.6c0.4-0.2,0.7-0.5,1-0.8c1-1.1,1.6-2.5,1.6-4.3
		c0-1.2,0-2.4-0.1-3.4c0-0.3-0.1-0.8-0.2-1.3c0.4,0,0.9,0.1,1.3,0.1c0.7,0,1.3,0,1.8-0.1c0.1,0.2,0.1,0.4,0.2,0.7h-1.4
		c-0.2,0-0.4,0.2-0.4,0.4s0.2,0.4,0.4,0.4h1.5c0,0,0,0,0,0c0,0.2,0,0.4,0.1,0.6h-1.3c-0.2,0-0.4,0.2-0.4,0.4s0.2,0.4,0.4,0.4h1.4
		c0,0.2,0,0.4,0,0.6h-1.3c-0.2,0-0.4,0.2-0.4,0.4s0.2,0.4,0.4,0.4h1.3c0,0.2,0,0.4,0,0.6h-1.3c-0.2,0-0.4,0.2-0.4,0.4
		c0,0.2,0.2,0.4,0.4,0.4h1.3c0,0.2,0,0.4,0,0.6h-1.4c-0.2,0-0.4,0.2-0.4,0.4s0.2,0.4,0.4,0.4h1.4c0,0.2,0,0.4,0,0.6h-1.7
		c-0.2,0-0.4,0.2-0.4,0.4s0.2,0.4,0.4,0.4h1.6C-480.6,1286.3-480.7,1286.8-480.8,1287.1L-480.8,1287.1L-480.8,1287.1z
		 M-478.5,1240.1c-5,0.5-6.9-0.2-8.8-1.4l-0.3-0.2c-0.5-0.4-0.7-0.8-0.3-1.9c0.2-0.5,0.5-0.9,0.8-1.3c0.5-0.7,1-1.4,1.4-2.9
		c0.3-1,0.4-1.8,0.3-2.4l0.4-0.2c0.1-0.1,0.2-0.2,0.3-0.3c0-0.1,0-0.3,0-0.4c0,0,0-0.1-0.1-0.1c5.5-2.1,10.7-6.1,10.3-9.6
		c0-0.3-0.3-0.5-0.6-0.4c-0.3,0-0.5,0.3-0.4,0.6c0.1,0.5,0,1-0.3,1.5l-0.4-0.6c-0.1-0.2-0.4-0.2-0.6-0.1c-0.2,0.1-0.2,0.4-0.1,0.6
		l0.6,1c-0.2,0.3-0.4,0.6-0.6,0.8l-0.7-1.1c-0.1-0.2-0.4-0.2-0.6-0.1c-0.2,0.1-0.2,0.4-0.1,0.6l0.8,1.3c-0.2,0.2-0.5,0.5-0.7,0.7
		l-1.3-2.1c-0.1-0.2-0.4-0.2-0.6-0.1c-0.2,0.1-0.2,0.4-0.1,0.6l1.3,2.2c-0.2,0.2-0.5,0.4-0.8,0.6l-1-1.6c-0.1-0.2-0.4-0.2-0.6-0.1
		c-0.2,0.1-0.2,0.4-0.1,0.6l1,1.6c-0.3,0.2-0.5,0.3-0.8,0.5l-0.9-1.4c-0.1-0.2-0.4-0.2-0.6-0.1c-0.2,0.1-0.2,0.4-0.1,0.6l0.9,1.4
		c-0.3,0.2-0.6,0.3-0.9,0.5c0-0.1,0-0.1-0.1-0.2l-0.8-1.2c-0.1-0.2-0.4-0.2-0.6-0.1c-0.2,0.1-0.2,0.4-0.1,0.6l0.8,1.2
		c0,0,0.1,0.1,0.1,0.1c-0.3,0.1-0.6,0.3-1,0.4c0-0.1,0-0.1-0.1-0.2l-0.9-1.4c-0.1-0.2-0.4-0.2-0.6-0.1c-0.2,0.1-0.2,0.4-0.1,0.6
		l0.9,1.4c0,0,0,0,0,0c-0.2,0.1-0.3,0.1-0.5,0.2c0,0,0,0,0-0.1c-0.4-0.6-1.2-1.9-1.7-2.8c0,0,0,0,0-0.1c-0.1-0.2-0.1-0.4-0.2-0.6
		c0.5-0.2,1.5-0.8,3.3-2.3c0.8-0.7,2.8-2.4,3.3-3.4l0-0.1l0-0.1c0.2-0.8,0.9-1.9,1.8-2.5c0.6-0.3,1.2-0.3,1.8-0.1
		c0.3,0.1,0.5,0,0.6-0.3c0.1-0.3,0-0.5-0.3-0.6c-0.2-0.1-0.4-0.1-0.7-0.2l0.8-2.1l0.8-2c0-0.1-0.1-0.2-0.2-0.2c0,0-1,0.5-1.3,0.6
		h-0.1c-0.7,0-1-0.1-1.4-0.2c-0.3-0.1-0.7-0.2-1.2-0.2c-0.2,0-0.5,0-0.6-0.1c0.1-0.1,0.3-0.2,0.4-0.3c0.6-0.4,1.3-0.9,1.4-1.7
		c0.1-0.3,0-0.6,0-0.8c0.2-0.2,0.3-0.5,0.3-0.8c0-0.4-0.2-0.7-0.4-0.9c0,0,0.1,0,0.1-0.1c0.4-0.3,1.6-0.9,2.2-1.2
		c0.4-0.2,0.7-0.5,0.9-0.8c0.1-0.2,0.3-0.5,0.7-0.5c0.6-0.1,1-0.4,1.4-0.7c0.3-0.2,0.5-0.3,0.8-0.3c0.3,0,0.5,0.1,0.8,0.4
		c0.3,0.3,0.7,0.5,1.2,0.6c0.2,0.1,0.4,0.2,0.5,0.5c0.2,0.6,0.7,1.2,1.4,1.5c0.5,0.2,1.1,1.1,1.1,2.3l-1.6-1.3
		c-0.2-0.1-0.4-0.1-0.6,0.1c-0.1,0.2-0.1,0.4,0.1,0.6l1.8,1.4c0,0,0.1,0.1,0.2,0.1c-0.1,0.3-0.2,0.6-0.3,0.8l-1.6-1.3
		c-0.2-0.1-0.4-0.1-0.6,0.1c-0.1,0.2-0.1,0.4,0.1,0.6l1.7,1.3c-0.2,0.2-0.3,0.4-0.5,0.6l-1.6-1.2c-0.2-0.1-0.4-0.1-0.6,0.1
		c-0.1,0.2-0.1,0.4,0.1,0.6l1.4,1.1c-0.2,0.2-0.5,0.3-0.7,0.4l-1.4-1.1c-0.2-0.1-0.4-0.1-0.6,0.1c-0.1,0.2-0.1,0.4,0.1,0.6l1,0.8
		c-0.2,0-0.4,0.1-0.6,0.1c-0.1,0-0.3,0-0.4,0.1l-0.5-0.4c-0.2-0.1-0.4-0.1-0.6,0.1c-0.1,0.2-0.1,0.4,0.1,0.6l0.4,0.3
		c-0.1,0.2-0.2,0.4-0.2,0.7v0h-0.8c-0.2,0-0.4,0.2-0.4,0.4s0.2,0.4,0.4,0.4h0.8v0.8v0h-1.1c-0.2,0-0.4,0.2-0.4,0.4
		c0,0.2,0.2,0.4,0.4,0.4h1.5c0.2,0.2,0.3,0.5,0.5,0.9h-0.6c-0.2,0-0.4,0.2-0.4,0.4s0.2,0.4,0.4,0.4h0.9l0,0c0.1,0.3,0.2,0.6,0.2,0.9
		h-0.7c-0.2,0-0.4,0.2-0.4,0.4s0.2,0.4,0.4,0.4h0.9c0,0.3,0,0.6,0,0.9h-1.1c-0.2,0-0.4,0.2-0.4,0.4s0.2,0.4,0.4,0.4h1
		c0,0.3-0.1,0.6-0.1,0.9h-1.5c-0.2,0-0.4,0.2-0.4,0.4s0.2,0.4,0.4,0.4h1.3c-0.1,0.3-0.2,0.6-0.3,0.9h-2c-0.2,0-0.4,0.2-0.4,0.4
		s0.2,0.4,0.4,0.4h1.7c-0.1,0.3-0.3,0.6-0.5,0.9h-2.5c-0.2,0-0.4,0.2-0.4,0.4s0.2,0.4,0.4,0.4h2c-0.2,0.3-0.4,0.6-0.7,0.9h-3
		c-0.2,0-0.4,0.2-0.4,0.4c0,0.2,0.2,0.4,0.4,0.4h2.4c-0.2,0.3-0.5,0.6-0.7,0.9h-3.9c-0.2,0-0.4,0.2-0.4,0.4s0.2,0.4,0.4,0.4h3.3
		c-0.2,0.3-0.4,0.6-0.6,0.9h-3.6c-0.2,0-0.4,0.2-0.4,0.4s0.2,0.4,0.4,0.4h3.1c-0.1,0.3-0.3,0.6-0.4,0.9h-3.6c-0.2,0-0.4,0.2-0.4,0.4
		s0.2,0.4,0.4,0.4h3.3c-0.1,0.3-0.2,0.6-0.2,0.9h-3.9c-0.2,0-0.4,0.2-0.4,0.4s0.2,0.4,0.4,0.4h3.8c0,0.2-0.1,0.5-0.1,0.7
		c0,0,0,0.1,0,0.1h-3.2c-0.2,0-0.4,0.2-0.4,0.4c0,0.2,0.2,0.4,0.4,0.4h3.2c0,0.3,0,0.6,0.1,0.9h-3.5c-0.2,0-0.4,0.2-0.4,0.4
		s0.2,0.4,0.4,0.4h3.6c0,0.1,0.1,0.3,0.1,0.4c0,0.2,0.1,0.3,0.1,0.5h-4.6c-0.2,0-0.4,0.2-0.4,0.4s0.2,0.4,0.4,0.4h4.7
		c0,0,0,0.1,0,0.1C-478,1239.9-478.3,1240-478.5,1240.1z"/>
	<path class="st1" d="M-472.7,1209.7c0.6-0.6,0.7-1.5,0.1-2.1l-0.6,0.5c0.3,0.3,0.2,0.8-0.1,1c-0.3,0.3-0.8,0.2-1-0.1l-0.6,0.5
		c0.3,0.3,0.7,0.5,1.1,0.5C-473.4,1210.1-473,1210-472.7,1209.7z"/>
</g>
<polygon class="st1" points="-482.4,1291.9 -473.9,1291.9 -478.2,1295 -482.4,1298.2 -486.7,1295 -491,1291.9 "/>
</svg>
