<?xml version="1.0" encoding="utf-8"?>
<!-- Generator: Adobe Illustrator 19.0.0, SVG Export Plug-In . SVG Version: 6.00 Build 0)  -->
<svg version="1.1" id="stickerid" xmlns="http://www.w3.org/2000/svg" xmlns:xlink="http://www.w3.org/1999/xlink" x="0px" y="0px"
	 viewBox="-142 66.6 50 110" style="enable-background:new -142 66.6 50 110;" xml:space="preserve">
<style type="text/css">
	.st0{fill:#FCFFFC;}
	.st1{fill:#424242;}
</style>
<path class="st0" d="M-100.5,68.2h-33c-3.2,0-5.8,2.6-5.8,5.8v88.9c0,3.2,2.6,5.8,5.8,5.8h11.7l4.8,7.3l4.8-7.3h11.7
	c3.2,0,5.8-2.6,5.8-5.8V74C-94.8,70.8-97.3,68.2-100.5,68.2z"/>
<path class="st1" d="M-108.5,84.7c2.1-0.2,5.3-2,5.3-5.4c0-1.6-0.9-3.1-1.9-3.5c-0.4-0.1-0.6-0.4-0.7-0.8c-0.1-0.6-0.6-1-1.2-1.2
	c-0.3-0.1-0.7-0.3-0.9-0.4c-0.5-0.4-0.9-0.6-1.5-0.6c-0.6,0-1,0.2-1.4,0.5c-0.4,0.2-0.7,0.4-1.1,0.5c-0.7,0.2-1.2,0.7-1.4,1.1
	c-0.1,0.1-0.2,0.3-0.4,0.4c-0.9,0.4-2.5,1.3-2.5,1.3c-0.6,0.4-0.8,0.6-0.8,0.8c0,0.4,0.6,0.9,0.6,1c0,0.2-0.8,0.1-0.8,0.4
	c0.5,0.4,0.6,0.6,0.6,1c-0.1,0.9-2.2,1.5-2.2,2.5c0,0.6,1.2,0.8,2.1,0.8c0.8,0,1.2,0.4,2.7,0.4l-1,2.8c-2,0.4-3.5,2.6-3.9,4.2
	c-0.4,0.8-2.7,2.9-4.5,4.1c-0.1-0.2-0.4-0.4-0.9-0.4c-0.6,0-1.1,0.1-1.8,0.3c-0.1,0-0.5,0-0.7,0.1c-0.3,0.1-0.6,0.3-0.8,0.4
	c-0.3,0.1-0.5,0.1-0.8,0.3c-0.2,0.1-0.5,0.5-0.6,0.6c-0.2,0.1-0.5,0.3-0.7,0.5c-0.1,0.2-0.3,0.4-0.4,0.5c-0.1,0.1-0.3,0.2-0.4,0.4
	c-0.2,0.4-0.4,1.3,0.1,2.2c0.4,0.8,1.3,1.6,1.9,1.4c0.4,0.4,1,0.9,1.5,0.8c0.1,0.2,0.2,0.4,0.3,0.5c0.5,0.7,0.9,1,1.4,1
	c0.2,0,0.5-0.1,1-0.3c-0.4,1.7-1.3,4.6-1.7,5.6c-0.5,1.4-0.3,2.8,0.7,3.6c-0.6,0.6-1,1.8-1,2.9c0,2.1,0.6,2.8,0.6,4.5
	c0,2.7-0.6,5.9-0.6,8.9c0,3.1,0.8,5.8,0.8,8.3c0,2.8,1.5,4.1,2.1,7.1c0.3,1.8,0.1,5.9-0.6,7.3c-0.3,0.6,0.7,0.7,1.4,0.7l0,5.2
	c0,1.8-2.1,3.6-5,3.6c-0.5,0-1.4,0.1-1.4,0.9c0,0.4,0,0.7,0.3,0.9c0.8,0.6,2.6,0.8,4.5,0.8c2.2,0,2.3-1.2,3.7-1.2
	c0.2,0,0.5,0.2,0.5,0.4v0.6l3.1,0c0.3-0.8,0.4-1.4,0.4-2.5c0-1.1-0.4-1.9-0.4-2.9l-0.1-5.9c0.3,0,1.2-0.1,1.3-0.4
	c0-0.5-0.4-2.3-0.4-3.5c0-1.2,0.1-1.8,0.1-2.7c0-4.4-1.2-6.8-1.2-8.8c0-2.7,0.6-6.8,0.6-9.3c0-2.5,1.8-6.2,1.8-8.9
	c0-1.9-0.5-3.2-1.2-4c0.4,0,1.3-0.2,1.9-0.7c0.3-0.3,0.6-0.6,0.6-1c0-1.4-0.6-2.4-0.5-4.5c0.5-6.9,6.3-7.6,6.9-15.3
	c0.2-2-0.5-4.7-1.6-5.7V85C-108.8,84.8-108.7,84.7-108.5,84.7z M-126.9,99.7c-0.1-0.2-0.4-0.6-0.6-1c-0.2-0.5-0.5-0.9-0.6-0.9
	c-0.2,0.1-0.1,0.3,0.1,0.7s0.4,0.9,0.5,1.1c0.4,0.6,0.7,1.1,0.4,1.3c-0.2,0.1-0.7-0.4-1.1-0.9c-0.1-0.2-0.5-0.7-0.6-1
	c-0.1-0.2-0.3-0.6-0.4-0.6c-0.1,0,0,0.4,0.1,0.7c0.3,0.6,0.5,1,0.3,1.1c-0.2,0.1-0.6-0.4-0.9-0.9c-0.1-0.2-0.2-0.6-0.2-0.9
	c0-0.2,0.1-0.3,0.4-0.6c0.1-0.1,0.2-0.4,0.4-0.5c0.2-0.2,0.4-0.2,0.6-0.4c0.2-0.2,0.3-0.4,0.5-0.6c0.2-0.1,0.6-0.2,0.7-0.3
	s0.4-0.3,0.6-0.4c0.1,0,0.1,0,0.2,0c0.1,0,0.2,0,0.2,0c0,0,0.1,0,0.1,0c0.7-0.2,1.2-0.3,1.7-0.3c0.1,0,0.1,0,0.2,0
	c-0.4,0.4-0.9,0.4-1.2,0.5c0,0.1-0.1,0.2-0.2,0.3c0.1,0.3,0.2,0.5,0.3,0.7c0.1,0.2,0.3,0.9,0.4,1.1c0.6,1,0.8,1.5,0.4,1.7
	c-0.3,0.1-0.9-0.7-1.3-1.2c-0.2-0.3-0.3-0.5-0.5-0.9c-0.1-0.2-0.3-0.4-0.4-0.3c-0.2,0.1,0,0.4,0.1,0.7c0.1,0.3,0.4,0.9,0.6,1.3
	c0.5,0.9,0.6,1.1,0.3,1.4C-126,100.9-126.5,100.4-126.9,99.7z M-125.6,102.3c-0.1-0.1-0.4-0.4-0.6-0.7c0.2,0,0.6,0,0.9-0.2
	c0.4-0.2,0.6-0.5,0.6-0.8c0.2,0,0.4-0.1,0.5-0.1c0.1-0.1,0.2-0.2,0.3-0.3c0.1,0.2,0.6,0.9,0.7,1.1L-125.6,102.3z M-118,162.1h-1.4
	c0-0.6-0.8-1.1-1.5-1.1c-1.8,0-1.7,1.2-3.7,1.2c-2.3,0-2.9-0.2-3.5-0.5c3.1,0.1,6.2-2,6.2-4.6l0-5.2c0.5,0.1,1.1,0.1,1.7,0.1
	c0.6,0,1.3,0,1.9-0.1v0.5h-1.2c-0.2,0-0.4,0.2-0.4,0.4s0.2,0.4,0.4,0.4h1.2v0.6h-1.2c-0.2,0-0.4,0.2-0.4,0.4c0,0.2,0.2,0.4,0.4,0.4
	h1.2v0.6h-1.2c-0.2,0-0.4,0.2-0.4,0.4s0.2,0.4,0.4,0.4h1.2v0.6h-1.2c-0.2,0-0.4,0.2-0.4,0.4s0.2,0.4,0.4,0.4h1.2c0,0.2,0,0.4,0,0.6
	h-1.5c-0.2,0-0.4,0.2-0.4,0.4c0,0.2,0.2,0.4,0.4,0.4h1.6c0,0.1,0.1,0.5,0.1,0.6h-2.3c-0.2,0-0.4,0.2-0.4,0.4s0.2,0.4,0.4,0.4h2.4
	C-117.8,161-117.9,161.6-118,162.1z M-116.1,117.4c0,0.2,0,0.7,0,0.8h-3.1c-0.2,0-0.4,0.2-0.4,0.4c0,0.2,0.2,0.4,0.4,0.4h3
	c0,0.3-0.1,0.5-0.1,0.8h-2.9c-0.2,0-0.4,0.2-0.4,0.4c0,0.2,0.2,0.4,0.4,0.4h2.6c-0.1,0.3-0.1,0.5-0.2,0.8h-2.4
	c-0.2,0-0.4,0.2-0.4,0.4s0.2,0.4,0.4,0.4h2.2c-0.1,0.3-0.1,0.5-0.2,0.8h-2.1c-0.2,0-0.4,0.2-0.4,0.4s0.2,0.4,0.4,0.4h1.9
	c-0.1,0.3-0.1,0.5-0.2,0.8h-1.8c-0.2,0-0.4,0.2-0.4,0.4s0.2,0.4,0.4,0.4h1.6c0,0.3-0.1,0.5-0.1,0.8h-1.8c-0.2,0-0.4,0.2-0.4,0.4
	s0.2,0.4,0.4,0.4h1.7c0,0.3,0,0.5,0,0.8h-1.9c-0.2,0-0.4,0.2-0.4,0.4s0.2,0.4,0.4,0.4h1.8c0,0.3,0,0.5-0.1,0.8h-2
	c-0.2,0-0.4,0.2-0.4,0.4s0.2,0.4,0.4,0.4h1.9c0,0.3-0.1,0.5-0.1,0.8h-2.1c-0.2,0-0.4,0.2-0.4,0.4s0.2,0.4,0.4,0.4h2
	c0,0.3-0.1,0.5-0.1,0.8h-2.2c-0.2,0-0.4,0.2-0.4,0.4s0.2,0.4,0.4,0.4h2.2c0,0.3,0,0.5-0.1,0.8h-2.4c-0.2,0-0.4,0.2-0.4,0.4
	s0.2,0.4,0.4,0.4h2.3c0,0.3,0,0.5,0,0.8h-2.5c-0.2,0-0.4,0.2-0.4,0.4s0.2,0.4,0.4,0.4h2.5c0,0.3,0.1,0.5,0.1,0.8h-2.7
	c-0.2,0-0.4,0.2-0.4,0.4s0.2,0.4,0.4,0.4h2.9c0.1,0.2,0.2,0.7,0.2,0.8h-2.6c-0.2,0-0.4,0.2-0.4,0.4s0.2,0.4,0.4,0.4h2.7
	c0.1,0.3,0.1,0.5,0.2,0.8h-2.4c-0.2,0-0.4,0.2-0.4,0.4s0.2,0.4,0.4,0.4h2.6c0,0.3,0.1,0.5,0.1,0.8h-2.3c-0.2,0-0.4,0.2-0.4,0.4
	s0.2,0.4,0.4,0.4h2.4c0,0.3,0,0.5,0.1,0.8h-2.1c-0.2,0-0.4,0.2-0.4,0.4s0.2,0.4,0.4,0.4h2.1c0,0.3,0,0.5,0,0.8h-2.1
	c-0.2,0-0.4,0.2-0.4,0.4s0.2,0.4,0.4,0.4h2.1c0,0.2,0,0.5,0,0.8h-2.2c-0.2,0-0.4,0.2-0.4,0.4s0.2,0.4,0.4,0.4h2.2
	c0,0.3,0.1,0.5,0.1,0.8h-2.5c-0.2,0-0.4,0.2-0.4,0.4s0.2,0.4,0.4,0.4h2.6c0,0.1,0.1,0.5,0.1,0.6c-1.7,0.6-4.8,0.6-6,0.3
	c0.5-2,0.6-5.3,0.3-6.9c-0.3-1.9-2.1-4.7-2.1-6.9c0-2.5-0.8-5.9-0.8-8.3c0-1.4,0.7-8.3,0.7-8.7c0-0.4-0.8-3.6-0.8-4.7
	c0-0.7,0.3-1.6,0.9-2.3c1.7,0.8,3.9,1.2,6,1.2c0.4,0,0.8,0,1.1-0.1c0.3,0.2,0.6,0.6,0.7,0.9h-3.7c-0.2,0-0.4,0.2-0.4,0.4
	c0,0.2,0.2,0.4,0.4,0.4h4.1c0.1,0.2,0.2,0.5,0.2,0.8h-3.4c-0.2,0-0.4,0.2-0.4,0.4c0,0.2,0.2,0.4,0.4,0.4H-116.1z M-110.2,84l0.4,0.3
	c-0.1,0.2-0.2,0.4-0.2,0.7v0h-0.9c-0.2,0-0.4,0.2-0.4,0.4c0,0.2,0.2,0.4,0.4,0.4h0.9v0.9v0h-1.1c-0.2,0-0.4,0.2-0.4,0.4
	c0,0.2,0.2,0.4,0.4,0.4h1.5c0.2,0.2,0.4,0.5,0.5,0.9h-0.6c-0.2,0-0.4,0.2-0.4,0.4c0,0.2,0.2,0.4,0.4,0.4h0.9
	c0.1,0.3,0.2,0.6,0.2,0.9h-0.8c-0.2,0-0.4,0.2-0.4,0.4c0,0.2,0.2,0.4,0.4,0.4h0.9c0,0.3,0,0.6,0,0.9h-1.2c-0.2,0-0.4,0.2-0.4,0.4
	s0.2,0.4,0.4,0.4h1.1c0,0.3-0.1,0.6-0.1,0.9h-1.6c-0.2,0-0.4,0.2-0.4,0.4s0.2,0.4,0.4,0.4h1.4c-0.1,0.3-0.2,0.6-0.3,0.9h-2
	c-0.2,0-0.4,0.2-0.4,0.4s0.2,0.4,0.4,0.4h1.7c-0.1,0.3-0.3,0.6-0.5,0.9h-2.4c-0.2,0-0.4,0.2-0.4,0.4s0.2,0.4,0.4,0.4h1.8
	c-0.2,0.3-0.4,0.6-0.7,0.9h-2.5c-0.2,0-0.4,0.2-0.4,0.4s0.2,0.4,0.4,0.4h1.9c-0.2,0.3-0.5,0.6-0.7,0.9h-2.5c-0.2,0-0.4,0.2-0.4,0.4
	s0.2,0.4,0.4,0.4h1.9c-0.2,0.3-0.4,0.6-0.6,0.9h-2.7c-0.2,0-0.4,0.2-0.4,0.4s0.2,0.4,0.4,0.4h2.3c-0.1,0.3-0.3,0.6-0.4,0.9h-3.3
	c-0.2,0-0.4,0.2-0.4,0.4s0.2,0.4,0.4,0.4h3c-0.1,0.3-0.1,0.6-0.2,0.9h-4c-0.2,0-0.4,0.2-0.4,0.4s0.2,0.4,0.4,0.4h3.9
	c-0.1,0.2-0.1,0.7-0.1,0.9h-4.5c-0.2,0-0.4,0.2-0.4,0.4c0,0.2,0.2,0.4,0.4,0.4h4.4c0,0.3,0,0.6,0.1,0.9h-5c-0.2,0-0.4,0.2-0.4,0.4
	c0,0.2,0.2,0.4,0.4,0.4h5.2c0,0.1,0.1,0.8,0.2,0.9h-5.6c-0.2,0-0.4,0.2-0.4,0.4c0,0.2,0.2,0.4,0.4,0.4h5.7c-0.6,0.6-1.9,0.9-3.2,0.9
	c-2.7,0-7.4-0.8-7.4-2.8c0-0.6,1.1-3.2,1.5-4.7c0.3-1.2,0.5-2,0.6-2.5c0.6-0.3,1.1-0.5,1.1-0.5c0.1-0.1,0.2-0.2,0.3-0.3
	c0.1-0.1,0-0.4-0.1-0.5c5.8-2.2,11.2-6.4,10.8-10c0-0.3-0.3-0.5-0.6-0.4s-0.5,0.3-0.4,0.6c0.1,0.5-0.1,1-0.3,1.6l-0.4-0.6
	c-0.1-0.2-0.4-0.3-0.6-0.1c-0.2,0.1-0.3,0.4-0.1,0.6l0.6,1.1c-0.2,0.3-0.4,0.6-0.6,0.9l-0.7-1.1c-0.1-0.2-0.4-0.3-0.6-0.1
	c-0.2,0.1-0.3,0.4-0.1,0.6l0.8,1.4c-0.2,0.2-0.5,0.5-0.7,0.7l-1.4-2.2c-0.1-0.2-0.4-0.3-0.6-0.1c-0.2,0.1-0.3,0.4-0.1,0.6l1.4,2.3
	c-0.3,0.2-0.5,0.4-0.8,0.6l-1-1.6c-0.1-0.2-0.4-0.3-0.6-0.1c-0.2,0.1-0.3,0.4-0.1,0.6l1.1,1.7c-0.3,0.2-0.6,0.4-0.9,0.5l-0.9-1.5
	c-0.1-0.2-0.4-0.3-0.6-0.1c-0.2,0.1-0.3,0.4-0.1,0.6l0.9,1.5c-0.3,0.2-0.6,0.3-0.9,0.5l-0.9-1.4c-0.1-0.2-0.4-0.3-0.6-0.1
	c-0.2,0.1-0.3,0.4-0.1,0.6l0.9,1.4c-0.3,0.1-0.6,0.3-0.9,0.4l-1-1.6c-0.1-0.2-0.4-0.3-0.6-0.1c-0.2,0.1-0.3,0.4-0.1,0.6l0.9,1.5
	c-0.2,0.1-0.4,0.1-0.5,0.2c-0.6-0.9-1.3-2.2-1.9-3.1c-0.1-0.2-0.1-0.4-0.2-0.6c1.9-0.8,6.2-4.1,6.5-5.5c0.4-1.8,1.9-3.5,3.1-3.5
	c0.4,0,0.8,0.1,1.1,0.2c0.3,0.1,0.6,0,0.7-0.3c0.1-0.3,0-0.6-0.3-0.7c-0.2-0.1-0.4-0.1-0.7-0.2l1.6-4.4c0.1-0.1-0.1-0.2-0.2-0.2
	c0,0-1,0.6-1.4,0.6c-0.7,0-1.1-0.1-1.6-0.2c-0.2-0.1-0.7-0.2-1.2-0.2c-0.2,0-0.5,0-0.7-0.1c0.1-0.1,0.3-0.2,0.4-0.3
	c0.6-0.4,1.3-1,1.5-1.8c0.1-0.3,0-0.6,0-0.8c0.3-0.2,0.3-0.5,0.3-0.8c0-0.4-0.2-0.7-0.4-0.9c0.3-0.2,1.8-1.1,2.4-1.3
	c0.4-0.2,0.7-0.5,0.9-0.9c0.1-0.2,0.3-0.5,0.7-0.6c0.5-0.1,1-0.3,1.5-0.6c0.4-0.2,0.6-0.3,0.9-0.3c0.3,0,0.5,0.1,0.9,0.4
	c0.4,0.3,0.9,0.5,1.2,0.6c0.2,0.1,0.4,0.3,0.5,0.5c0.2,0.7,0.7,1.3,1.4,1.5c0.5,0.1,1.2,1.2,1.2,2.4L-106,78
	c-0.2-0.1-0.4-0.1-0.6,0.1c-0.1,0.2-0.1,0.4,0.1,0.6l2.1,1.6c-0.1,0.3-0.2,0.5-0.3,0.8l-1.7-1.4c-0.2-0.1-0.4-0.1-0.6,0.1
	c-0.1,0.2-0.1,0.4,0.1,0.6l1.8,1.4c-0.2,0.2-0.4,0.4-0.5,0.6l-1.6-1.3c-0.2-0.1-0.4-0.1-0.6,0.1c-0.1,0.2-0.1,0.4,0.1,0.6l1.5,1.1
	c-0.2,0.1-0.5,0.3-0.8,0.4l-1.5-1.2c-0.2-0.1-0.4-0.1-0.6,0.1c-0.1,0.2-0.1,0.4,0.1,0.6l1.1,0.9c-0.3,0.1-0.8,0.2-1,0.2l-0.5-0.4
	c-0.2-0.1-0.4-0.1-0.6,0.1C-110.4,83.6-110.3,83.9-110.2,84z"/>
</svg>
