<?xml version="1.0" encoding="utf-8"?>
<!-- Generator: Adobe Illustrator 19.0.0, SVG Export Plug-In . SVG Version: 6.00 Build 0)  -->
<svg version="1.1" id="Capa_1" xmlns="http://www.w3.org/2000/svg" xmlns:xlink="http://www.w3.org/1999/xlink" x="0px" y="0px"
	 viewBox="-19 372.2 459.8 80.1" style="enable-background:new -19 372.2 459.8 80.1;" xml:space="preserve">
<style type="text/css">
	.st0{fill:#424242;}
</style>
<path id="XMLID_9574_" class="st0" d="M1.2,403.8c-5.9,0-7.5-5.6-7.5-10.8c0-5.3,1.5-10.8,7.5-10.8c4.9,0,7.2,3.6,7.7,8.1h3v-11.2H9
	l-0.8,2.6c-1.8-1.7-4.8-3-7.4-3c-8.5,0-13.5,6.3-13.5,13.9c0,8.7,4.5,14.7,13,14.7c7.1,0,11.2-4,11.7-11.1H8.5
	C8.1,400.6,5.9,403.8,1.2,403.8z"/>
<path id="XMLID_9577_" class="st0" d="M33.5,401c0,2.5-0.5,3.1-1.1,3.1c-0.6,0-1-0.4-1-1.3v-10c0-3.4-2.4-5.9-7.9-5.9
	c-3.2,0-8.2,0.9-8.2,5.1c0,1.7,1.2,3,2.9,3c1.6,0,2.9-0.6,2.9-2.4c0-1.7-1.2-2.3-2.7-2.1c0.7-1,2.7-1.3,3.8-1.3
	c2.2,0,4.4,0.5,4.4,3.1c0,5.8-12.2,1.9-12.2,9.8c0,3.7,2.5,5.2,5.7,5.2c2.6,0,5.2-0.7,6.7-3c0.3,2.2,2.1,3,4.1,3
	c3.4,0,5.3-1.9,5.3-6.5v-1.2h-2.6V401z M26.7,399.1c0,2.6-1.6,5-4.3,5c-1.7,0-2.4-0.9-2.4-2.6c0-1.9,1.3-2.6,2.4-3.1l4.3-2V399.1z"
	/>
<path id="XMLID_9578_" class="st0" d="M42.6,392c0-1.6,1.8-2.2,3.1-2.2c1.6,0,2.9,0.4,3.8,1.1c1,0.7,1.7,1.8,2.2,3.3h2.6v-6.8h-2.2
	l-0.8,1.4c-1.8-1.2-3.8-2-6-2c-3.6,0-7.5,2.1-7.5,6.1c0,7.3,12.8,5,12.8,9c0,1.7-1.8,2.4-3.2,2.4c-1.8,0-3.3-0.4-4.5-1.3
	c-1.2-0.9-2-2.2-2.4-4h-3v7.5h2.7l0.8-1.5c1.9,1.7,4.4,2.1,6.8,2.1c3.8,0,7.5-1.8,7.5-6C55.4,393.6,42.6,395.1,42.6,392z"/>
<path id="XMLID_9579_" class="st0" d="M68.9,401.2c0,1.6-0.5,2.3-1.8,2.3c-1.1,0-1.6-0.5-1.6-1.3v-12h5.3v-2.7h-5.4v-7.6H63
	c-0.4,3.8-1.4,7.4-5.6,7.7v2.6h3.4v12.5c0,3.3,2.2,4.5,5.2,4.5c3.2,0,5.6-1.9,5.6-6.2v-3.4h-2.7V401.2z"/>
<path id="XMLID_9582_" class="st0" d="M91.8,399.7h-3.4c-0.5,2.8-2,4.3-4.9,4.3c-3.8,0-4.8-3.4-4.6-6.6h13
	c0.4-4.6-2.4-10.6-9.1-10.6c-5.6,0-9.5,4.2-9.5,10.2c0,6.6,3.3,10.2,9.7,10.2C88.4,407.1,91.2,404.4,91.8,399.7z M82.7,389.7
	c2.9,0,3.7,2.5,3.7,5.1h-7.6C78.9,392.2,79.9,389.7,82.7,389.7z"/>
<path id="XMLID_9583_" class="st0" d="M102.2,402.2v-22.7h-8.4v2.7h2c1.1,0,1.6,0.4,1.6,1.6v18.4c0,1.2-0.5,1.6-1.6,1.6h-2v2.7h12
	v-2.7h-1.9C102.7,403.8,102.2,403.4,102.2,402.2z"/>
<path id="XMLID_9584_" class="st0" d="M115.8,402.2v-22.7h-8.4v2.7h2c1.1,0,1.6,0.4,1.6,1.6v18.4c0,1.2-0.5,1.6-1.6,1.6h-2v2.7h12
	v-2.7h-1.9C116.2,403.8,115.8,403.4,115.8,402.2z"/>
<path id="XMLID_9587_" class="st0" d="M142.6,400.6v-1.2H140v1.6c0,2.5-0.5,3.1-1.1,3.1c-0.6,0-1-0.4-1-1.3v-10
	c0-3.4-2.4-5.9-7.9-5.9c-3.2,0-8.2,0.9-8.2,5.1c0,1.7,1.2,3,2.9,3c1.6,0,2.9-0.6,2.9-2.4c0-1.7-1.2-2.3-2.7-2.1
	c0.7-1,2.7-1.3,3.8-1.3c2.2,0,4.4,0.5,4.4,3.1c0,5.8-12.2,1.9-12.2,9.8c0,3.7,2.5,5.2,5.7,5.2c2.6,0,5.2-0.7,6.7-3
	c0.3,2.2,2.1,3,4.1,3C140.8,407.1,142.6,405.2,142.6,400.6z M133.1,399.1c0,2.6-1.6,5-4.3,5c-1.7,0-2.4-0.9-2.4-2.6
	c0-1.9,1.3-2.6,2.4-3.1l4.3-2V399.1z"/>
<path id="XMLID_9588_" class="st0" d="M159.3,386.8c-3.2,0-5.4,1.6-7.1,4.2h-0.1v-3.5h-8.8v2.7h1.3c2.1,0,2.6,0.4,2.6,2.2v9.9
	c0,1.2-0.5,1.6-1.6,1.6h-2.3v2.7h12v-2.7h-1.6c-1.1,0-1.6-0.4-1.6-1.6v-7.5c0-2.6,2.6-4.7,4.6-4.7c2,0,3.6,0.7,3.6,3.7v8.5
	c0,1.2-0.5,1.6-2.2,1.6h-1v2.7h11.9v-2.7h-1.5c-2,0-2.4-0.4-2.4-1.6v-8.8C165.1,389,162.9,386.8,159.3,386.8z"/>
<path id="XMLID_9591_" class="st0" d="M181.2,407.1c6.1,0,10.5-3.7,10.5-10.2s-4.4-10.2-10.5-10.2c-6.1,0-10.5,3.7-10.5,10.2
	S175.1,407.1,181.2,407.1z M181.2,389.5c3.3,0,5,2.6,5,7.5s-1.7,7.5-5,7.5c-3.3,0-5-2.6-5-7.5S177.9,389.5,181.2,389.5z"/>
<path id="XMLID_9592_" class="st0" d="M211.8,401.1c0-7.5-12.8-6-12.8-9.1c0-1.6,1.8-2.2,3.1-2.2c1.6,0,2.9,0.4,3.8,1.1
	c1,0.7,1.7,1.8,2.2,3.3h2.6v-6.8h-2.2l-0.8,1.4c-1.8-1.2-3.8-2-6-2c-3.6,0-7.5,2.1-7.5,6.1c0,7.3,12.8,5,12.8,9
	c0,1.7-1.8,2.4-3.2,2.4c-1.8,0-3.3-0.4-4.5-1.3c-1.2-0.9-2-2.2-2.4-4h-3v7.5h2.7l0.8-1.5c1.9,1.7,4.4,2.1,6.8,2.1
	C208.2,407.1,211.8,405.4,211.8,401.1z"/>
<path id="XMLID_9595_" class="st0" d="M242.8,401.9c0,3.7,2.5,5.2,5.7,5.2c2.6,0,5.2-0.7,6.7-3c0.3,2.2,2.1,3,4.1,3
	c3.4,0,5.3-1.9,5.3-6.5v-1.2h-2.6v1.6c0,2.5-0.5,3.1-1.1,3.1s-1-0.4-1-1.3v-10c0-3.4-2.4-5.9-7.9-5.9c-3.2,0-8.2,0.9-8.2,5.1
	c0,1.7,1.2,3,2.9,3c1.6,0,2.9-0.6,2.9-2.4c0-1.7-1.2-2.3-2.7-2.1c0.7-1,2.7-1.3,3.8-1.3c2.2,0,4.4,0.5,4.4,3.1
	C255,397.9,242.8,394,242.8,401.9z M255,399.1c0,2.6-1.6,5-4.3,5c-1.7,0-2.4-0.9-2.4-2.6c0-1.9,1.3-2.6,2.4-3.1l4.3-2V399.1z"/>
<path id="XMLID_9596_" class="st0" d="M283.8,401.1c0-7.5-12.8-6-12.8-9.1c0-1.6,1.8-2.2,3.1-2.2c1.6,0,2.9,0.4,3.8,1.1
	c1,0.7,1.7,1.8,2.2,3.3h2.6v-6.8h-2.2l-0.8,1.4c-1.8-1.2-3.8-2-6-2c-3.6,0-7.5,2.1-7.5,6.1c0,7.3,12.8,5,12.8,9
	c0,1.7-1.8,2.4-3.2,2.4c-1.8,0-3.3-0.4-4.5-1.3c-1.2-0.9-2-2.2-2.4-4h-3v7.5h2.7l0.8-1.5c1.9,1.7,4.4,2.1,6.8,2.1
	C280.2,407.1,283.8,405.4,283.8,401.1z"/>
<path id="XMLID_9599_" class="st0" d="M296.2,386.8c-6.1,0-10.5,3.7-10.5,10.2s4.4,10.2,10.5,10.2c6.1,0,10.5-3.7,10.5-10.2
	S302.4,386.8,296.2,386.8z M296.2,404.4c-3.3,0-5-2.6-5-7.5s1.7-7.5,5-7.5c3.3,0,5,2.6,5,7.5S299.5,404.4,296.2,404.4z"/>
<path id="XMLID_9600_" class="st0" d="M308.4,396.9c0,6.6,3.3,10.2,9.6,10.2c5.5,0,8.4-3,8.8-8.4h-3.2c-0.3,2.9-2,5-4.4,5
	c-4.2,0-5.3-4-5.3-7.1c0-3.1,1.2-7.1,5.4-7.1c1.6,0,3,0.4,3.9,1.6c-1.6,0.1-2.4,1-2.4,2.7c0,1.7,1.8,2.4,3.2,2.4
	c1.8,0,2.9-1.6,2.9-3.4c0-3.4-3.7-6-8.4-6C313.2,386.8,308.4,390.9,308.4,396.9z"/>
<path id="XMLID_9601_" class="st0" d="M331.5,381.9c0,1.6,1.3,2.9,2.9,2.9c1.6,0,2.9-1.3,2.9-2.9c0-1.6-1.3-2.9-2.9-2.9
	C332.8,379,331.5,380.3,331.5,381.9z"/>
<path id="XMLID_9602_" class="st0" d="M341,403.8h-2c-1.1,0-1.6-0.4-1.6-1.6v-14.8H329v2.7h1.9c1.1,0,1.6,0.4,1.6,1.6v10.4
	c0,1.2-0.5,1.6-1.6,1.6H329v2.7H341V403.8z"/>
<path id="XMLID_9605_" class="st0" d="M361.6,401c0,2.5-0.5,3.1-1.1,3.1s-1-0.4-1-1.3v-10c0-3.4-2.4-5.9-7.9-5.9
	c-3.2,0-8.2,0.9-8.2,5.1c0,1.7,1.2,3,2.9,3c1.6,0,2.9-0.6,2.9-2.4c0-1.7-1.2-2.3-2.7-2.1c0.7-1,2.7-1.3,3.8-1.3
	c2.2,0,4.4,0.5,4.4,3.1c0,5.8-12.2,1.9-12.2,9.8c0,3.7,2.5,5.2,5.7,5.2c2.6,0,5.2-0.7,6.7-3c0.3,2.2,2.1,3,4.1,3
	c3.4,0,5.3-1.9,5.3-6.5v-1.2h-2.6V401z M354.7,399.1c0,2.6-1.6,5-4.3,5c-1.7,0-2.4-0.9-2.4-2.6c0-1.9,1.3-2.6,2.4-3.1l4.3-2V399.1z"
	/>
<path id="XMLID_9608_" class="st0" d="M384.8,402v-22.5h-9.1v2.7h2.6c1.3,0,1.7,0.6,1.7,1.8v6.4h-0.1c-0.9-1.5-3.2-3.5-6.4-3.5
	c-5.1,0-8.1,5.1-8.1,10.2c0,5,2.4,10.2,8.1,10.2c2.7,0,4.8-1.2,6.4-4h0.1v3.3h8.6v-2.7h-2.1C385.2,403.8,384.8,403.3,384.8,402z
	 M375.1,403.9c-2.7,0-4.2-2.3-4.2-7c0-4.7,1.5-7,4.2-7c2.7,0,4.9,2.3,4.9,6.7C380,401.7,377.8,403.9,375.1,403.9z"/>
<path id="XMLID_9611_" class="st0" d="M400.5,386.8c-6.1,0-10.5,3.7-10.5,10.2s4.4,10.2,10.5,10.2c6.1,0,10.5-3.7,10.5-10.2
	S406.6,386.8,400.5,386.8z M400.5,404.4c-3.3,0-5-2.6-5-7.5s1.7-7.5,5-7.5c3.3,0,5,2.6,5,7.5S403.8,404.4,400.5,404.4z"/>
<path id="XMLID_9612_" class="st0" d="M418.3,392c0-1.6,1.8-2.2,3.1-2.2c1.6,0,2.9,0.4,3.8,1.1c1,0.7,1.7,1.8,2.2,3.3h2.6v-6.8h-2.2
	l-0.8,1.4c-1.8-1.2-3.8-2-6-2c-3.6,0-7.5,2.1-7.5,6.1c0,7.3,12.8,5,12.8,9c0,1.7-1.8,2.4-3.2,2.4c-1.8,0-3.3-0.4-4.5-1.3
	c-1.2-0.9-2-2.2-2.4-4h-3v7.5h2.7l0.8-1.5c1.9,1.7,4.4,2.1,6.8,2.1c3.8,0,7.5-1.8,7.5-6C431.1,393.6,418.3,395.1,418.3,392z"/>
<path id="XMLID_9615_" class="st0" d="M217.7,396.7c0,2.6,1.8,5.1,6,5.1c1.7,0,3.2-0.4,4.9-1.4c1.2,0.9,2.6,1.4,4.1,1.4
	c4.2,0,5-2.8,5-6.4h-2c0,1.7-0.4,3.8-2.6,3.8c-0.9,0-1.4-0.3-1.9-1l3.3-4.7c0.5-0.7,1.1-1,2.6-1h0.6v-1.9h-8.3v1.9h1
	c1,0,1.3,0.3,1.3,0.9c0,0.8-1.4,2.5-1.9,3.1c-1-0.9-2.9-3.6-3.4-4.9c1.7-1,3.4-2.5,3.4-4.6c0-2.1-1.7-3.5-3.7-3.5
	c-2.8,0-4.6,1.8-4.6,4.5c0,1,0.3,2.4,0.8,3C218.6,393,217.7,394,217.7,396.7z M225.8,385.6c1,0,1.6,0.6,1.6,1.6
	c0,1.2-1.2,2.2-2.2,2.6c-0.4-0.7-1-1.6-1-2.4C224.2,386.3,224.7,385.6,225.8,385.6z M223.1,393.1c1.1,2,2.3,3.9,3.8,5.6
	c-0.8,0.5-1.6,0.6-2.5,0.6c-1.8,0-3-1.5-3-3.4C221.4,394.6,222.1,393.8,223.1,393.1z"/>
<path id="XMLID_9617_" class="st0" d="M219.4,404.7c-0.7,0-1.3,0.6-1.3,1.3s0.6,1.3,1.3,1.3h16.2c0.7,0,1.3-0.6,1.3-1.3
	s-0.6-1.3-1.3-1.3H219.4z"/>
<path id="XMLID_9620_" class="st0" d="M95.3,421.6H84.9v1.9h1.7c0.6,0,1.1,0.2,1.1,0.9V436c0,0.7-0.5,0.9-1.1,0.9h-1.7v1.9h10.4
	c5.2,0,8.7-2.9,8.7-8.6C103.9,424.5,100.5,421.6,95.3,421.6z M94.5,436.9h-3.2v-13.4h3.5c2.8,0,5.1,1.6,5.1,6.7
	C99.8,435.3,97.5,436.9,94.5,436.9z"/>
<path id="XMLID_9623_" class="st0" d="M113.3,426.2c-3.6,0-6,2.7-6,6.5c0,4.2,2.1,6.5,6.2,6.5c3.5,0,5.2-1.7,5.6-4.7h-2.2
	c-0.3,1.8-1.3,2.8-3.1,2.8c-2.4,0-3-2.2-3-4.2h8.3C119.3,430.1,117.5,426.2,113.3,426.2z M110.7,431.3c0.1-1.6,0.7-3.2,2.5-3.2
	c1.8,0,2.4,1.6,2.3,3.2H110.7z"/>
<path id="XMLID_9624_" class="st0" d="M125.8,429.5c0-1,1.1-1.4,2-1.4c1,0,1.8,0.2,2.4,0.7c0.6,0.5,1.1,1.2,1.4,2.1h1.7v-4.3h-1.4
	l-0.5,0.9c-1.1-0.8-2.4-1.3-3.8-1.3c-2.3,0-4.8,1.3-4.8,3.9c0,4.6,8.2,3.2,8.2,5.7c0,1.1-1.1,1.6-2,1.6c-1.1,0-2.1-0.3-2.9-0.9
	c-0.8-0.5-1.3-1.4-1.5-2.5h-1.9v4.8h1.7l0.5-0.9c1.2,1.1,2.8,1.3,4.3,1.3c2.4,0,4.8-1.1,4.8-3.8C134,430.6,125.8,431.5,125.8,429.5z
	"/>
<path id="XMLID_9627_" class="st0" d="M146,426.2c-1.7,0-3,0.8-4.1,2.5h-0.1v-2.1h-5.5v1.7h1.3c0.8,0,1,0.4,1,1.1v11.9
	c0,0.8-0.2,1.1-1,1.1h-1.4v1.7h8.2v-1.7H143c-0.8,0-1-0.4-1-1.1v-4.5h0.1c0.5,1,2,2.2,4,2.2c3.6,0,5.1-3.3,5.1-6.5
	S149.6,426.2,146,426.2z M145,437.1c-1.7,0-3-1.5-3-4.4c0-3,1.3-4.4,3-4.4c1.4,0,2.7,1.1,2.7,4.4C147.7,435.6,146.5,437.1,145,437.1
	z"/>
<path id="XMLID_9630_" class="st0" d="M167.5,435.3c0,1.6-0.3,2-0.7,2c-0.4,0-0.6-0.3-0.6-0.9V430c0-2.2-1.5-3.8-5-3.8
	c-2.1,0-5.2,0.6-5.2,3.2c0,1.1,0.8,1.9,1.9,1.9c1,0,1.8-0.4,1.8-1.5c0-1.1-0.8-1.5-1.7-1.3c0.5-0.6,1.7-0.9,2.4-0.9
	c1.4,0,2.8,0.3,2.8,2c0,3.7-7.8,1.2-7.8,6.3c0,2.3,1.6,3.3,3.6,3.3c1.6,0,3.3-0.5,4.3-1.9c0.2,1.4,1.3,1.9,2.6,1.9
	c2.2,0,3.4-1.2,3.4-4.1v-0.8h-1.7V435.3z M163.1,434.1c0,1.7-1,3.2-2.8,3.2c-1.1,0-1.6-0.5-1.6-1.6c0-1.2,0.8-1.6,1.6-2l2.8-1.2
	V434.1z"/>
<path id="XMLID_9631_" class="st0" d="M179.6,430.7c0,1.1,1.1,1.6,2,1.6c1.1,0,1.9-1,1.9-2.2c0-2.2-2.3-3.8-5.3-3.8
	c-3.4,0-6.4,2.6-6.4,6.4c0,4.2,2.1,6.5,6.1,6.5c3.5,0,5.4-1.9,5.6-5.4h-2c-0.2,1.9-1.3,3.2-2.8,3.2c-2.7,0-3.3-2.5-3.3-4.5
	s0.8-4.5,3.5-4.5c1,0,1.9,0.3,2.5,1C180.1,429,179.6,429.6,179.6,430.7z"/>
<path id="XMLID_9632_" class="st0" d="M200.6,436v-6.2c0-2.2-1.4-3.6-3.7-3.6c-2,0-3.5,1-4.5,2.4h-0.1v-7.1h-5.6v1.7h1.5
	c0.7,0,1,0.3,1,1V436c0,0.8-0.3,1-1,1h-1.5v1.7h7.6v-1.7h-1c-0.7,0-1-0.3-1-1V432c0-2.3,1.6-3.7,2.9-3.7c1.4,0,2.3,0.5,2.3,1.8v5.9
	c0,0.8-0.3,1-1,1h-1v1.7h7.6v-1.7h-1.5C200.9,437.1,200.6,436.8,200.6,436z"/>
<path id="XMLID_9635_" class="st0" d="M212.9,426.2c-3.9,0-6.7,2.3-6.7,6.5c0,4.1,2.8,6.5,6.7,6.5c3.9,0,6.7-2.3,6.7-6.5
	C219.5,428.6,216.8,426.2,212.9,426.2z M212.9,437.5c-2.1,0-3.2-1.6-3.2-4.8c0-3.1,1.1-4.8,3.2-4.8c2.1,0,3.2,1.6,3.2,4.8
	C216,435.8,215,437.5,212.9,437.5z"/>
<path id="XMLID_9636_" class="st0" d="M236.8,421.3c-1,0-1.9,0.8-1.9,1.9c0,1,0.9,1.9,1.9,1.9c1,0,1.9-0.8,1.9-1.9
	C238.7,422.1,237.8,421.3,236.8,421.3z"/>
<path id="XMLID_9637_" class="st0" d="M233,428.3h1.5c0.7,0,1,0.3,1,1v12.1c0,1.3-0.8,1.6-1.9,1.6c-0.3,0-0.6-0.1-0.8-0.3
	c0.7-0.1,1.5-0.6,1.5-1.3c0-0.9-0.7-1.5-1.6-1.5c-0.9,0-1.7,0.8-1.7,1.7c0,1.8,1.6,2.7,3.2,2.7c2.2,0,4.4-0.9,4.4-3.6v-14H233V428.3
	z"/>
<path id="XMLID_9638_" class="st0" d="M257.1,436v-9.4h-5.7v1.7h1.4c0.8,0,1.3,0.3,1.3,1v4.4c0,1.2-1,3.4-3.2,3.4
	c-1.3,0-2-0.8-2-1.9v-8.6h-5.4v1.7h1.3c0.7,0,1,0.3,1,1v6.2c0,2.4,1.4,3.6,3.8,3.6c1.7,0,3.3-0.5,4.4-2.4h0.1v2.1h5.6v-1.7h-1
	C257.4,437.1,257.1,436.8,257.1,436z"/>
<path id="XMLID_9639_" class="st0" d="M271.6,426.2c-1.4,0-2.2,0.8-3.2,2.4h-0.1v-2h-5.5v1.7h1.4c0.7,0,1,0.3,1,1v6.6
	c0,0.8-0.3,1-1,1h-1.4v1.7h8.2v-1.7h-1.6c-0.7,0-1-0.3-1-1v-4.3c0-1.9,1.1-4,3.2-4c0.4,0,0.8,0.1,1.1,0.4c-0.9,0-1.7,0.6-1.7,1.6
	c0,1.1,0.8,1.7,1.8,1.7c1.3,0,2-1,2-2.2C274.8,427.2,273.3,426.2,271.6,426.2z"/>
<path id="XMLID_9640_" class="st0" d="M283.3,436v-9.4H278v1.7h1.2c0.7,0,1,0.3,1,1v6.6c0,0.8-0.3,1-1,1H278v1.7h7.6v-1.7h-1.3
	C283.6,437.1,283.3,436.8,283.3,436z"/>
<path id="XMLID_9641_" class="st0" d="M281.7,422l-2.5,2.9h1.5l3.8-2.4c0.6-0.4,0.9-0.6,0.9-1.4c0-0.6-0.6-1.1-1.1-1.1
	C283.1,420,282.4,421.1,281.7,422z"/>
<path id="XMLID_9644_" class="st0" d="M301.1,435.9v-14.4h-5.8v1.7h1.6c0.8,0,1.1,0.4,1.1,1.1v4.1H298c-0.6-1-2-2.2-4.1-2.2
	c-3.2,0-5.1,3.3-5.1,6.5s1.5,6.5,5.1,6.5c1.7,0,3-0.8,4.1-2.5h0.1v2.1h5.5v-1.7h-1.4C301.4,437.1,301.1,436.7,301.1,435.9z
	 M294.9,437.1c-1.7,0-2.7-1.5-2.7-4.4c0-3,0.9-4.4,2.7-4.4s3.1,1.5,3.1,4.3C298.1,435.7,296.7,437.1,294.9,437.1z"/>
<path id="XMLID_9645_" class="st0" d="M308.2,423.1c0,1,0.9,1.9,1.9,1.9c1,0,1.9-0.8,1.9-1.9c0-1-0.9-1.9-1.9-1.9
	C309,421.3,308.2,422.1,308.2,423.1z"/>
<path id="XMLID_9646_" class="st0" d="M311.9,436v-9.4h-5.3v1.7h1.2c0.7,0,1,0.3,1,1v6.6c0,0.8-0.3,1-1,1h-1.2v1.7h7.6v-1.7h-1.3
	C312.2,437.1,311.9,436.8,311.9,436z"/>
<path id="XMLID_9647_" class="st0" d="M325,430.7c0,1.1,1.1,1.6,2,1.6c1.1,0,1.9-1,1.9-2.2c0-2.2-2.3-3.8-5.3-3.8
	c-3.4,0-6.4,2.6-6.4,6.4c0,4.2,2.1,6.5,6.1,6.5c3.5,0,5.4-1.9,5.6-5.4h-2c-0.2,1.9-1.3,3.2-2.8,3.2c-2.7,0-3.3-2.5-3.3-4.5
	s0.8-4.5,3.5-4.5c1,0,1.9,0.3,2.5,1C325.5,429,325,429.6,325,430.7z"/>
<path id="XMLID_9650_" class="st0" d="M338.9,426.2c-3.9,0-6.7,2.3-6.7,6.5c0,4.1,2.8,6.5,6.7,6.5c3.9,0,6.7-2.3,6.7-6.5
	C345.6,428.6,342.8,426.2,338.9,426.2z M338.9,437.5c-2.1,0-3.2-1.6-3.2-4.8c0-3.1,1.1-4.8,3.2-4.8c2.1,0,3.2,1.6,3.2,4.8
	C342.1,435.8,341,437.5,338.9,437.5z"/>
</svg>
