<?xml version="1.0" encoding="utf-8"?>
<!-- Generator: Adobe Illustrator 19.0.0, SVG Export Plug-In . SVG Version: 6.00 Build 0)  -->
<svg version="1.1" id="Capa_1" xmlns="http://www.w3.org/2000/svg" xmlns:xlink="http://www.w3.org/1999/xlink" x="0px" y="0px"
	 viewBox="80 35.9 459.8 80.1" style="enable-background:new 80 35.9 459.8 80.1;" xml:space="preserve">
<style type="text/css">
	.st0{fill:#424242;}
</style>
<g id="XMLID_157_">
	<g id="XMLID_518_">
		<path id="XMLID_519_" class="st0" d="M109.7,43.5h2.8v10.9l-3,0c-0.5-4.3-2.8-7.9-7.5-7.9c-5.9,0-7.3,5.3-7.3,10.6
			c0,5.1,1.6,10.6,7.3,10.6c4.5,0,6.7-3.2,7.2-7.4h3.4c-0.5,6.9-4.5,10.8-11.4,10.8c-8.4,0-12.8-5.9-12.8-14.4
			c0-7.5,4.9-13.6,13.2-13.6c2.6,0,5.5,1.2,7.3,2.9L109.7,43.5z"/>
		<path id="XMLID_521_" class="st0" d="M136.2,63.4v1.2c0,4.5-1.8,6.3-5.1,6.3c-2,0-3.7-0.8-4-3c-1.5,2.2-4,3-6.5,3
			c-3.1,0-5.5-1.5-5.5-5.1c0-7.7,12-4,12-9.6c0-2.6-2.2-3-4.3-3c-1.1,0-3,0.4-3.7,1.3c1.5-0.2,2.6,0.4,2.6,2.1
			c0,1.8-1.2,2.4-2.8,2.4c-1.7,0-2.9-1.3-2.9-3c0-4.1,4.9-4.9,8-4.9c5.4,0,7.7,2.4,7.7,5.8v9.8c0,0.9,0.4,1.3,1,1.3
			c0.6,0,1.1-0.6,1.1-3v-1.5H136.2z M126.9,60.5l-4.2,1.9c-1.2,0.5-2.4,1.2-2.4,3c0,1.7,0.8,2.5,2.4,2.5c2.7,0,4.2-2.3,4.2-4.9V60.5
			z"/>
		<path id="XMLID_524_" class="st0" d="M140.6,63.1c0.4,1.8,1.2,3.1,2.4,3.9c1.2,0.9,2.6,1.3,4.4,1.3c1.4,0,3.1-0.8,3.1-2.4
			c0-3.9-12.6-1.7-12.6-8.8c0-3.9,3.8-6,7.3-6c2.1,0,4.1,0.8,5.9,2l0.8-1.4h2.2v6.7h-2.6c-0.5-1.5-1.2-2.6-2.2-3.3
			c-1-0.8-2.2-1.1-3.7-1.1c-1.3,0-3,0.6-3,2.2c0,3.1,12.6,1.6,12.6,8.9c0,4.2-3.5,5.9-7.3,5.9c-2.4,0-4.8-0.4-6.7-2l-0.8,1.4h-2.6
			v-7.3H140.6z"/>
		<path id="XMLID_526_" class="st0" d="M157,54.3v-2.5c4.1-0.3,5.1-3.9,5.5-7.5h2.5v7.4h5.3v2.6H165v11.8c0,0.8,0.4,1.3,1.5,1.3
			c1.2,0,1.7-0.7,1.7-2.3v-3.5h2.6v3.3c0,4.2-2.3,6-5.5,6c-3,0-5.1-1.2-5.1-4.4l0-12.2H157z"/>
		<path id="XMLID_528_" class="st0" d="M177.9,61.5c-0.1,3.1,0.8,6.5,4.5,6.5c2.9,0,4.3-1.5,4.8-4.2h3.3c-0.5,4.5-3.3,7.2-8.6,7.2
			c-6.2,0-9.4-3.5-9.4-9.9c0-5.8,3.7-9.9,9.2-9.9c6.5,0,9.3,5.9,8.8,10.4H177.9z M185.3,58.9c0-2.5-0.8-5-3.6-5
			c-2.7,0-3.7,2.5-3.8,5H185.3z"/>
		<path id="XMLID_531_" class="st0" d="M192.5,70.4v-2.6h2c1.1,0,1.6-0.4,1.6-1.6v-18c0-1.2-0.5-1.6-1.6-1.6h-2v-2.6h8.2v22.2
			c0,1.2,0.5,1.6,1.6,1.6h1.9v2.6H192.5z"/>
		<path id="XMLID_533_" class="st0" d="M205.8,70.4v-2.6h2c1.1,0,1.6-0.4,1.6-1.6v-18c0-1.2-0.5-1.6-1.6-1.6h-2v-2.6l8.2,0l0,22.2
			c0,1.2,0.5,1.6,1.6,1.6h1.9v2.6L205.8,70.4z"/>
		<path id="XMLID_535_" class="st0" d="M240.3,63.4v1.2c0,4.5-1.8,6.3-5.1,6.3c-2,0-3.7-0.8-4-3c-1.5,2.2-4,3-6.5,3
			c-3.1,0-5.5-1.5-5.5-5.1c0-7.7,12-4,12-9.6c0-2.6-2.2-3-4.3-3c-1.1,0-3,0.4-3.7,1.3c1.5-0.2,2.6,0.4,2.6,2.1
			c0,1.8-1.2,2.4-2.8,2.4c-1.7,0-2.9-1.3-2.9-3c0-4.1,4.9-4.9,8-4.9c5.4,0,7.7,2.4,7.7,5.8v9.8c0,0.9,0.4,1.3,1,1.3
			c0.6,0,1.1-0.6,1.1-3v-1.5H240.3z M231,60.5l-4.2,1.9c-1.2,0.5-2.4,1.2-2.4,3c0,1.7,0.8,2.5,2.4,2.5c2.7,0,4.2-2.3,4.2-4.9V60.5z"
			/>
		<path id="XMLID_540_" class="st0" d="M249.7,55.2L249.7,55.2c1.7-2.5,3.9-4.1,7-4.1c3.5,0,5.7,2.1,5.7,6.4v8.6
			c0,1.2,0.5,1.6,2.4,1.6h1.4v2.6l-11.6,0v-2.6h1c1.7,0,2.2-0.4,2.2-1.6v-8.3c0-3-1.6-3.6-3.5-3.6c-1.9,0-4.5,2-4.5,4.6l0,7.3
			c0,1.2,0.5,1.6,1.6,1.6h1.6v2.6h-11.7v-2.6h2.3c1.1,0,1.6-0.4,1.6-1.6v-9.6c0-1.7-0.5-2.2-2.6-2.2h-1.3v-2.6h8.6V55.2z"/>
		<path id="XMLID_542_" class="st0" d="M278,51.1c6,0,10.2,3.6,10.2,9.9c0,6.3-4.3,9.9-10.2,9.9c-6,0-10.2-3.6-10.2-9.9
			C267.8,54.7,272,51.1,278,51.1z M278,68.3c3.2,0,4.9-2.5,4.9-7.3s-1.7-7.3-4.9-7.3c-3.2,0-4.9,2.5-4.9,7.3S274.8,68.3,278,68.3z"
			/>
		<path id="XMLID_547_" class="st0" d="M293.5,63.1c0.4,1.8,1.2,3.1,2.4,3.9c1.2,0.9,2.6,1.3,4.4,1.3c1.4,0,3.1-0.8,3.1-2.4
			c0-3.9-12.6-1.7-12.6-8.8c0-3.9,3.8-6,7.3-6c2.1,0,4.1,0.8,5.9,2l0.8-1.4h2.2v6.7h-2.6c-0.5-1.5-1.2-2.6-2.2-3.3
			c-1-0.8-2.2-1.1-3.7-1.1c-1.3,0-3,0.6-3,2.2c0,3.1,12.6,1.6,12.6,8.9c0,4.2-3.5,5.9-7.3,5.9c-2.4,0-4.8-0.4-6.7-2l-0.8,1.4h-2.6
			v-7.3H293.5z"/>
		<path id="XMLID_549_" class="st0" d="M338.1,70.4v-3c2.1,0,3.5-0.3,4.2-2.2l7.6-21.3h5.6l8,21.3c0.7,1.9,2.1,2.2,4.2,2.2v3
			l-13.9,0v-3h3.1c0.9,0,1.2-0.2,1.2-0.6c0-0.4-0.1-0.7-0.2-1l-1.3-4h-9l-1.3,4c-0.1,0.2-0.2,0.5-0.2,0.8c0,0.6,0.5,0.7,1.3,0.7h3.1
			v3H338.1z M355.5,58.9l-3.5-9.6H352l-3.2,9.6L355.5,58.9z"/>
		<path id="XMLID_552_" class="st0" d="M372.8,63.1c0.4,1.8,1.2,3.1,2.4,3.9c1.2,0.9,2.6,1.3,4.4,1.3c1.4,0,3.1-0.8,3.1-2.4
			c0-3.9-12.6-1.7-12.6-8.8c0-3.9,3.8-6,7.3-6c2.1,0,4.1,0.8,5.9,2l0.8-1.4h2.2v6.7h-2.6c-0.5-1.5-1.2-2.6-2.2-3.3
			c-1-0.8-2.2-1.1-3.7-1.1c-1.3,0-3,0.6-3,2.2c0,3.1,12.6,1.6,12.6,8.9c0,4.2-3.5,5.9-7.3,5.9c-2.4,0-4.8-0.4-6.7-2l-0.8,1.4h-2.6
			v-7.3L372.8,63.1z"/>
		<path id="XMLID_554_" class="st0" d="M399.4,51.1c6,0,10.2,3.6,10.2,9.9c0,6.3-4.3,9.9-10.2,9.9c-6,0-10.2-3.6-10.2-9.9
			C389.2,54.7,393.4,51.1,399.4,51.1z M399.4,68.3c3.2,0,4.9-2.5,4.9-7.3s-1.7-7.3-4.9-7.3c-3.2,0-4.9,2.5-4.9,7.3
			S396.2,68.3,399.4,68.3z"/>
		<path id="XMLID_559_" class="st0" d="M429.3,62.7c-0.4,5.3-3.1,8.3-8.6,8.3c-6.1,0-9.4-3.6-9.4-10c0-5.9,4.7-9.9,9.8-9.9
			c4.6,0,8.2,2.5,8.2,5.9c0,1.8-1.2,3.3-2.9,3.3c-1.4,0-3.1-0.7-3.1-2.4c0-1.6,0.8-2.5,2.4-2.6c-0.9-1.2-2.2-1.6-3.8-1.6
			c-4.1,0-5.3,3.9-5.3,6.9c0,3,1,6.9,5.1,6.9c2.4,0,4.1-2,4.3-4.9H429.3z"/>
		<path id="XMLID_563_" class="st0" d="M431.5,70.4v-2.6h1.8c1.1,0,1.6-0.4,1.6-1.6V55.9c0-1.2-0.5-1.6-1.6-1.6h-1.8v-2.6l8.1,0
			v14.4c0,1.2,0.5,1.6,1.6,1.6l2,0v2.6H431.5z M436.8,43.5c1.6,0,2.9,1.3,2.9,2.9c0,1.6-1.3,2.9-2.9,2.9c-1.6,0-2.9-1.3-2.9-2.9
			C433.9,44.7,435.2,43.5,436.8,43.5z"/>
		<path id="XMLID_566_" class="st0" d="M465.9,63.4v1.2c0,4.5-1.8,6.3-5.1,6.3c-2,0-3.7-0.8-4-3c-1.5,2.2-4,3-6.5,3
			c-3.1,0-5.5-1.5-5.5-5.1c0-7.7,12-4,12-9.6c0-2.6-2.2-3-4.3-3c-1.1,0-3,0.4-3.7,1.3c1.5-0.2,2.6,0.4,2.6,2.1
			c0,1.8-1.2,2.4-2.8,2.4c-1.7,0-2.9-1.3-2.9-3c0-4.1,4.9-4.9,8-4.9c5.4,0,7.7,2.4,7.7,5.8v9.8c0,0.9,0.4,1.3,1,1.3
			c0.6,0,1.1-0.6,1.1-3v-1.5H465.9z M456.6,60.5l-4.2,1.9c-1.2,0.5-2.4,1.2-2.4,3c0,1.7,0.8,2.5,2.4,2.5c2.7,0,4.2-2.3,4.2-4.9V60.5
			z"/>
		<path id="XMLID_571_" class="st0" d="M481.3,67.1L481.3,67.1c-1.7,2.7-3.7,3.9-6.3,3.9c-5.5,0-7.9-5-7.9-9.9s2.9-9.9,7.9-9.9
			c3.2,0,5.3,2,6.3,3.4h0.1v-6.2c0-1.2-0.4-1.8-1.6-1.8h-2.5v-2.6h8.8v22c0,1.2,0.4,1.8,1.6,1.8h2.1v2.6h-8.4V67.1z M476.6,67.8
			c2.7,0,4.8-2.2,4.8-7.1c0-4.3-2.1-6.6-4.8-6.6c-2.7,0-4.1,2.2-4.1,6.8S473.9,67.8,476.6,67.8z"/>
		<path id="XMLID_575_" class="st0" d="M501.4,51.1c6,0,10.2,3.6,10.2,9.9c0,6.3-4.3,9.9-10.2,9.9c-6,0-10.2-3.6-10.2-9.9
			C491.1,54.7,495.4,51.1,501.4,51.1z M501.4,68.3c3.2,0,4.9-2.5,4.9-7.3s-1.7-7.3-4.9-7.3c-3.2,0-4.9,2.5-4.9,7.3
			S498.1,68.3,501.4,68.3z"/>
		<path id="XMLID_579_" class="st0" d="M516.8,63.1c0.4,1.8,1.2,3.1,2.4,3.9c1.2,0.9,2.6,1.3,4.4,1.3c1.4,0,3.1-0.8,3.1-2.4
			c0-3.9-12.6-1.7-12.6-8.8c0-3.9,3.8-6,7.3-6c2.1,0,4.1,0.8,5.9,2l0.8-1.4h2.2v6.7h-2.6c-0.5-1.5-1.2-2.6-2.2-3.3
			c-1-0.8-2.2-1.1-3.7-1.1c-1.3,0-3,0.6-3,2.2c0,3.1,12.6,1.6,12.6,8.9c0,4.2-3.5,5.9-7.3,5.9c-2.4,0-4.8-0.4-6.7-2l-0.8,1.4h-2.6
			v-7.3H516.8z"/>
	</g>
	<g id="XMLID_588_">
		<g>
			<path id="XMLID_30_" class="st0" d="M326,54.8h8.1v1.9h-0.6c-1.5,0-2.1,0.3-2.5,0.9l-3.3,4.6c0.5,0.6,1,1,1.9,1
				c2.1,0,2.5-2,2.5-3.7h1.9c0,3.5-0.8,6.2-4.9,6.2c-1.4,0-2.8-0.4-4-1.3c-1.6,0.9-3.1,1.3-4.7,1.3c-4.1,0-5.8-2.4-5.8-5
				c0-2.7,0.8-3.7,4.3-5.5c-0.5-0.6-0.7-1.9-0.7-2.9c0-2.7,1.8-4.4,4.5-4.4c2,0,3.6,1.4,3.6,3.4c0,2.1-1.6,3.5-3.3,4.5
				c0.5,1.2,2.4,3.9,3.3,4.8c0.6-0.6,1.9-2.3,1.9-3c0-0.6-0.3-0.9-1.3-0.9h-1V54.8z M321.1,63.4c0.9,0,1.7-0.1,2.5-0.6
				c-1.4-1.7-2.6-3.6-3.7-5.5c-1,0.6-1.7,1.4-1.7,2.8C318.2,61.9,319.4,63.4,321.1,63.4z M324.1,51.4c0-1-0.6-1.5-1.5-1.5
				c-1,0-1.6,0.7-1.6,1.7c0,0.8,0.5,1.7,0.9,2.4C322.9,53.5,324.1,52.6,324.1,51.4z"/>
		</g>
	</g>
	<g id="XMLID_595_">
		<path id="XMLID_597_" class="st0" d="M330.9,70.8h-14.5c-0.6,0-1-0.5-1-1s0.5-1,1-1h14.5c0.6,0,1,0.5,1,1S331.4,70.8,330.9,70.8z"
			/>
	</g>
	<g id="XMLID_852_">
		<g>
			<path id="XMLID_333_" class="st0" d="M184.3,100h1.6c0.6,0,1.1-0.2,1.1-0.9V87.8c0-0.7-0.5-0.9-1.1-0.9l-1.6,0v-1.9l10.1,0
				c5.1,0,8.5,2.8,8.5,8.4c0,5.6-3.4,8.4-8.5,8.4h-10.1L184.3,100z M190.6,100h3.1c2.9,0,5.2-1.5,5.2-6.6s-2.3-6.5-5-6.5h-3.4V100z"
				/>
			<path id="XMLID_330_" class="st0" d="M209.6,96.3c-0.1,2,0.5,4.1,2.9,4.1c1.8,0,2.7-0.9,3.1-2.7h2.1c-0.3,2.9-2.1,4.6-5.5,4.6
				c-3.9,0-6-2.2-6-6.3c0-3.7,2.4-6.3,5.9-6.3c4.2,0,5.9,3.7,5.6,6.6L209.6,96.3z M214.3,94.6c0-1.6-0.5-3.2-2.3-3.2
				c-1.7,0-2.4,1.6-2.4,3.2H214.3z"/>
			<path id="XMLID_328_" class="st0" d="M223.1,97.3c0.3,1.1,0.8,2,1.5,2.5c0.7,0.6,1.7,0.8,2.8,0.8c0.9,0,2-0.5,2-1.5
				c0-2.5-8-1.1-8-5.6c0-2.5,2.4-3.8,4.6-3.8c1.3,0,2.6,0.5,3.7,1.2l0.5-0.9h1.4v4.2H230c-0.3-0.9-0.8-1.6-1.4-2.1
				c-0.6-0.5-1.4-0.7-2.4-0.7c-0.8,0-1.9,0.4-1.9,1.4c0,2,8,1,8,5.7c0,2.7-2.3,3.8-4.6,3.8c-1.5,0-3-0.3-4.2-1.3l-0.5,0.9h-1.7v-4.6
				H223.1z"/>
			<path id="XMLID_325_" class="st0" d="M240.1,92.1L240.1,92.1c1.1-1.7,2.4-2.5,4-2.5c3.5,0,5,3.2,5,6.3s-1.5,6.3-5,6.3
				c-2,0-3.4-1.2-3.9-2.2h-0.1v4.4c0,0.8,0.2,1.1,1,1.1h1.6v1.7h-8v-1.7h1.4c0.8,0,1-0.4,1-1.1V92.8c0-0.8-0.2-1.1-1-1.1h-1.3V90
				h5.3V92.1z M240.2,96c0,2.9,1.3,4.3,3,4.3c1.4,0,2.6-1.5,2.6-4.3c0-3.3-1.2-4.3-2.6-4.3C241.4,91.6,240.2,93.1,240.2,96z"/>
			<path id="XMLID_322_" class="st0" d="M266.7,97.5v0.8c0,2.8-1.1,4-3.3,4c-1.3,0-2.4-0.5-2.6-1.9c-0.9,1.4-2.6,1.9-4.2,1.9
				c-2,0-3.5-0.9-3.5-3.2c0-4.9,7.6-2.5,7.6-6.1c0-1.6-1.4-1.9-2.7-1.9c-0.7,0-1.9,0.2-2.4,0.8c0.9-0.1,1.7,0.3,1.7,1.3
				c0,1.1-0.8,1.5-1.8,1.5c-1.1,0-1.8-0.8-1.8-1.9c0-2.6,3.1-3.1,5.1-3.1c3.4,0,4.9,1.5,4.9,3.7v6.2c0,0.6,0.2,0.8,0.6,0.8
				c0.4,0,0.7-0.4,0.7-1.9v-1H266.7z M260.8,95.6l-2.7,1.2c-0.7,0.3-1.5,0.7-1.5,1.9c0,1.1,0.5,1.6,1.5,1.6c1.7,0,2.7-1.5,2.7-3.1
				V95.6z"/>
			<path id="XMLID_320_" class="st0" d="M280.7,97c-0.2,3.4-2,5.3-5.5,5.3c-3.9,0-6-2.3-6-6.3c0-3.8,3-6.3,6.3-6.3
				c2.9,0,5.2,1.6,5.2,3.7c0,1.1-0.7,2.1-1.8,2.1c-0.9,0-2-0.5-2-1.5c0-1,0.5-1.6,1.5-1.6c-0.6-0.7-1.4-1-2.4-1
				c-2.6,0-3.4,2.5-3.4,4.4c0,1.9,0.6,4.4,3.3,4.4c1.5,0,2.6-1.3,2.8-3.1H280.7z"/>
			<path id="XMLID_318_" class="st0" d="M289.4,92L289.4,92c1.1-1.4,2.5-2.4,4.5-2.4c2.2,0,3.6,1.4,3.6,3.6l0,6c0,0.7,0.3,1,1,1h1.4
				v1.7h-7.4v-1.7h1c0.7,0,1-0.3,1-1l0-5.8c0-1.3-0.9-1.8-2.2-1.8c-1.3,0-2.8,1.4-2.8,3.6v4c0,0.7,0.3,1,1,1h1v1.7h-7.5v-1.7h1.4
				c0.7,0,1-0.3,1-1V87.8c0-0.7-0.3-1-1-1h-1.4v-1.7l5.5,0V92z"/>
			<path id="XMLID_315_" class="st0" d="M309.5,89.7c3.8,0,6.5,2.3,6.5,6.3c0,4-2.7,6.3-6.5,6.3S303,100,303,96
				C303,91.9,305.7,89.7,309.5,89.7z M309.5,100.6c2.1,0,3.1-1.6,3.1-4.6c0-3-1.1-4.6-3.1-4.6s-3.1,1.6-3.1,4.6
				C306.4,99,307.4,100.6,309.5,100.6z"/>
			<path id="XMLID_313_" class="st0" d="M340.2,87c-0.8,0-1,0.3-1,0.9v10.4c0,2.6-2.3,4.1-5.2,4.1c-2.3,0-5.6-1.1-5.6-3.9
				c0-1.5,0.7-2.7,2.4-2.7c1,0,2,0.9,2,1.9c0,1.2-0.7,2-1.9,2.1c0.6,0.6,1.5,0.8,2.4,0.8c1.4,0,2.4-0.6,2.4-2V87.9
				c0-0.7-0.3-0.9-1-0.9h-1.7v-1.9l9.1,0V87H340.2z"/>
			<path id="XMLID_311_" class="st0" d="M355.4,101.9v-2h-0.1c-1,1.9-2.6,2.4-4.3,2.4c-2.4,0-3.7-1.2-3.7-3.6v-6c0-0.7-0.3-1-1-1
				h-1.3V90h5.3v8.4c0,1.1,0.7,1.9,2,1.9c2.2,0,3.1-2.1,3.1-3.3v-4.3c0-0.7-0.4-1-1.2-1h-1.4V90h5.6v9.2c0,0.7,0.3,1,1.4,1h1v1.7
				H355.4z"/>
			<path id="XMLID_309_" class="st0" d="M369.4,92L369.4,92c1.1-1.5,1.9-2.3,3.2-2.3c1.6,0,3.1,0.9,3.1,2.8c0,1.1-0.7,2.1-1.9,2.1
				c-1,0-1.8-0.6-1.8-1.6c0-1,0.8-1.5,1.7-1.5c-0.3-0.3-0.7-0.4-1.1-0.4c-2.1,0-3.2,2.1-3.2,3.9v4.2c0,0.7,0.3,1,1,1h1.6v1.7l-8,0
				v-1.7h1.4c0.7,0,1-0.3,1-1v-6.5c0-0.7-0.3-1-1-1H364V90h5.4V92z"/>
			<path id="XMLID_306_" class="st0" d="M378.8,101.9v-1.7h1.2c0.7,0,1-0.3,1-1v-6.5c0-0.7-0.3-1-1-1h-1.2V90h5.2v9.2
				c0,0.7,0.3,1,1,1h1.2v1.7H378.8z M380,88.3l2.5-2.8c0.7-0.8,1.4-1.9,2.5-1.9c0.5,0,1.1,0.5,1.1,1c0,0.8-0.3,1-0.9,1.3l-3.7,2.3
				H380z"/>
			<path id="XMLID_303_" class="st0" d="M398.5,99.8L398.5,99.8c-1.1,1.7-2.4,2.5-4,2.5c-3.5,0-5-3.2-5-6.3c0-3.1,1.9-6.3,5-6.3
				c2,0,3.4,1.2,4,2.2h0.1v-4c0-0.8-0.3-1.1-1-1.1h-1.6v-1.7h5.6v14c0,0.8,0.2,1.1,1,1.1h1.3v1.7h-5.3V99.8z M395.4,100.3
				c1.7,0,3.1-1.4,3.1-4.5c0-2.8-1.3-4.2-3.1-4.2c-1.7,0-2.6,1.4-2.6,4.3S393.7,100.3,395.4,100.3z"/>
			<path id="XMLID_300_" class="st0" d="M406.8,101.9v-1.7h1.2c0.7,0,1-0.3,1-1v-6.5c0-0.7-0.3-1-1-1h-1.2V90h5.2v9.2
				c0,0.7,0.3,1,1,1h1.2v1.7H406.8z M410.2,84.8c1,0,1.8,0.8,1.8,1.8c0,1-0.8,1.8-1.8,1.8c-1,0-1.8-0.8-1.8-1.8
				C408.4,85.6,409.2,84.8,410.2,84.8z"/>
			<path id="XMLID_298_" class="st0" d="M428.6,97c-0.2,3.4-2,5.3-5.5,5.3c-3.9,0-6-2.3-6-6.3c0-3.8,3-6.3,6.3-6.3
				c2.9,0,5.2,1.6,5.2,3.7c0,1.1-0.7,2.1-1.8,2.1c-0.9,0-2-0.5-2-1.5c0-1,0.5-1.6,1.5-1.6c-0.6-0.7-1.4-1-2.4-1
				c-2.6,0-3.4,2.5-3.4,4.4c0,1.9,0.6,4.4,3.3,4.4c1.5,0,2.6-1.3,2.8-3.1L428.6,97z"/>
			<path id="XMLID_295_" class="st0" d="M438.4,89.7c3.8,0,6.5,2.3,6.5,6.3c0,4-2.7,6.3-6.5,6.3c-3.8,0-6.5-2.3-6.5-6.3
				C431.9,91.9,434.6,89.7,438.4,89.7z M438.4,100.6c2.1,0,3.1-1.6,3.1-4.6c0-3-1.1-4.6-3.1-4.6c-2.1,0-3.1,1.6-3.1,4.6
				C435.3,99,436.4,100.6,438.4,100.6z"/>
		</g>
	</g>
</g>
</svg>
